<svg xmlns="http://www.w3.org/2000/svg" width="600" height="266"><path fill="#FDFDFD" d="M0 0h600v266H0V0Z"/><path fill="#FEFEFE" d="M535 217h36l-1 4h-4v-2l-6-1-1 4c-2.312.027-4.625.046-6.938.063l-3.902.035C545 222 545 222 544 221v2h15l1 2c2.416.167 2.416.167 5 0l2-2 2.063-.438L571 222l1-3h28v47H0v-47h244v14c2.156 2.156 7.502 1.402 10.541 1.518 5.246.269 5.246.269 7.459 2.482 2.5.333 2.5.333 5 0l2-2c2.95-.259 2.95-.259 6.688-.266l1.994-.005a598.56 598.56 0 0 1 4.176.01c2.134.011 4.266 0 6.4-.012 1.351 0 2.703.003 4.055.007l3.738.007C299 235 299 235 301 237c3.618.38 5.884-.153 9-2v2c3.893.37 5.806.103 9.313-1.75 2.784-1.964 2.784-1.964 3.562-4.5L323 229h7v-2h-7v-8h85l1 3c1.634 1.368 1.634 1.368 3.563 2.563 1.94 1.253 1.94 1.253 3.437 2.437v2h7v-3l-4-1 1-2h12c1 4 1 4 0 6h8l.188-1.625c1.187-3.47 2.966-6.096 5.812-8.375 2.92-.845 5.715-.761 8.738-.681l2.632-.003c2.863.004 5.724.051 8.587.098 1.988.011 3.977.02 5.965.026 5.226.023 10.452.082 15.678.148 5.336.061 10.672.089 16.007.119 10.465.064 20.929.167 31.393.293v-2Z"/><path fill="#90C4E9" d="M390.672 92.242C396.057 95.78 399.815 99.388 403 105v-3h-2c.613-2.962 1.254-4.38 3-7h2v33h-3c-.925-4.716-1.23-7.673 1-12h-2l-.75 3.188c-1.05 3.646-2.534 6.096-5.25 8.812-2.25.813-2.25.813-4 1v2h-2v2h-3l.108 3.155c1.274 38.108 1.274 38.108-.108 55.845l4-1 .313-2.875C392 185 392 185 395 183c3.961-.432 6.114-.653 9.375 1.75C406 187 406 187 406.438 188.938c.454 2.382.454 2.382 3.125 4.437C412 196 412 196 412.688 199.063 412 202 412 202 409.313 204.313c-2.91 1.482-5.1 2.309-8.313 2.687l-1 10h8l1-3 7-3 1-35h1v34l2-1a96.455 96.455 0 0 1 5.875-.25l3.18-.078c3.34.372 4.41 1.224 6.945 3.328 2.308.945 2.308.945 4.688 1.625 4.223 1.286 4.223 1.286 5.312 2.375l19 1V104h1v113h15l-.25-6.25c-.244-6.092-.244-6.092 2.047-9.145 3.181-2.318 5.363-2.085 9.203-1.605l4 3c3.667.25 3.667.25 7 0v8h-7v6h10v-50l-35 1-1 48h-1v-50h20l-2-15-3-1c3-2 3-2 5-3-3.766-1.255-5.372-.37-9 1-3.267-4.084-3.352-7.586-3.398-12.598.495-2.99 1.177-4.332 3.398-6.402 2.7-.39 2.7-.39 5.688-.25l3.011.11L491 129l1 4c2.169-.506 4-1 6-2v-2l4 2v-4c3.478-1.16 5.459-.708 9 0v10h2v24l-3 1c-2.203 3.305-2.246 4.277-2.227 8.114v3.154l.032 3.4.008 3.485c.011 3.678.037 7.356.062 11.035.01 2.491.02 4.983.027 7.474.022 6.113.057 12.225.098 18.338h15v-8l-1.75-.25c-3.095-1.032-4.34-2.089-6.25-4.75-.67-4.616-.71-7.624 2-11.5 3.388-2.824 4.816-3.236 9.07-2.898 4.383.904 6.495 2.745 8.93 6.398.24 4.356-.283 7.986-2.813 11.563C530 209 530 209 526 209v8l3.938-.438c.73-.08 1.461-.162 2.214-.246 1.86-.135 1.86-.135 2.848-1.316 1.998-.158 4-.251 6.004-.316l3.682-.127 3.876-.12 3.89-.13c3.182-.107 6.365-.209 9.548-.307v1h6l-1-39-2 1c-7.977.952-15.975 1.145-24 1l1-4c2.874-.506 5.749-1.005 8.625-1.5l2.45-.434c4.364-.745 8.477-1.239 12.925-1.066l-1-3c-.484-8.551.093-16.657 2-25h3v26l9-1c2.55.33 2.55.33 4.527.96.73.225 1.458.45 2.21.68l2.2.735c.754.235 1.507.47 2.284.71 5.277 1.664 5.277 1.664 7.779 2.915v3c-7 0-7 0-26-4l-1 42h5l1 1c1.706.157 3.417.25 5.129.316l3.135.127 3.298.12 3.311.13c2.709.107 5.418.209 8.127.307v2h-28l-1 4c-2.5 1.188-2.5 1.188-5 2l-1 1c-1.666.04-3.334.043-5 0l-1-3h-15l-1-4 2 1v2h14l1-4 6 1v2c1.985-.267 1.985-.267 4-1l1-3h-36v2h-89l-2 4h-2l-2 6h-8v-6h-12v2l3 1v3h-7v-2l-1.75-.813c-2.324-1.226-4.288-2.435-6.25-4.187v-3h-85v8h7v2h-7l-.125 2.25C322 234 322 234 319.312 236.375c-3.763 1.846-5.353 1.756-9.312.625v-2l-1.688 1.5c-2.727 1.77-4.12 1.92-7.312 1.5l-2-2c-3.076-.312-3.076-.312-6.688-.266l-1.994-.005a598.56 598.56 0 0 0-4.176.01c-2.134.011-4.266 0-6.4-.012-1.351 0-2.703.003-4.055.007l-3.738.007c-3.07-.049-3.07-.049-4.949 2.259-2.5.25-2.5.25-5 0l-2-2c-2.523-.255-4.97-.42-7.5-.5-7.23-.23-7.23-.23-9.5-2.5-.23-1.988-.23-1.988-.188-4.313l.02-2.3C243 224 243 224 244 219H0v-2h69v-8l-2.25-.688c-3.415-1.63-4.804-3.069-6.75-6.312-.644-4.426-.308-6.446 1.875-10.375C64 189 64 189 66 188c3.016-.277 6.031-.447 9.055-.621 2.828-.364 4.613-.756 6.945-2.379l.438-2.875C83 179 83 179 85.061 176.625c3.803-2.104 6.685-2.467 10.938-1.625 2.938 1.625 2.938 1.625 5 4 .36 1.996.695 3.995 1 6 1.884 1.317 1.884 1.317 4 2 2.393 2.393 2.32 3.094 2.375 6.375-.096 3-.254 4.41-1.75 7.063-4.024 2.395-8.011 2.833-12.625 3.562v13h19l-.016-4.19c-.018-5.118-.03-10.236-.039-15.353-.005-2.218-.012-4.435-.02-6.653a3961.07 3961.07 0 0 1-.023-9.546l-.015-3.018v-2.79l-.007-2.463C113 171 113 171 114 169c.153-1.739.25-3.482.316-5.227l.127-3.125.12-3.273.13-3.297c.107-2.692.209-5.385.307-8.078h2v-18c3.281-1.64 6.898-1.143 10.5-1.125l2.379-.012c5.868.01 5.868.01 8.121 1.137v11h3v18l-3 1a139.724 139.724 0 0 0-1 4c-1.438 1.563-1.438 1.563-3 3l-2 3h-2v3h2v46h11v-74h1l1 73 15 1-.14-3.98a4347.25 4347.25 0 0 1-.11-5.208l-.102-2.619c-.065-4.254-.046-6.55 2.243-10.244 3.027-2.798 4.877-3.166 8.922-3.324l2.582-.148c3.98.8 5.278 2.215 7.605 5.523.595 3.468.472 6.808.313 10.313L181 217h20V102h51v108h61v-2l-1.863-.332-2.45-.48-2.425-.458c-2.573-.83-3.667-1.557-5.262-3.73-.556-2.704-.43-5.279 0-8 1.375-2 1.375-2 3-3h2l.313-2.875C307 186 307 186 310 184c3.552-.551 6.87-.671 10 1.188 1.309 2.372 1.216 4.146 1 6.812l5 1v-7h2v31h15v-55h2v55h18l-.092-4.357c-.28-13.55-.518-27.102-.714-40.654-.101-6.967-.218-13.934-.37-20.9a1989.67 1989.67 0 0 1-.33-20.172c-.038-2.565-.089-5.13-.155-7.694a622.06 622.06 0 0 1-.155-10.78l-.116-3.21c.019-7.082.019-7.082 2.672-10.426A54.812 54.812 0 0 1 370 94l2.75-1.938c5.93-1.938 12.152-2.502 17.922.18Z"/><path fill="#F6FAFD" d="M535 217h36l-1 4h-4v-2l-6-1-1 4c-2.312.027-4.625.046-6.938.063l-3.902.035C545 222 545 222 544 221v2h15l1 2c2.416.167 2.416.167 5 0l2-2 2.063-.438L571 222l1-3h28v23H0v-23h244v14c2.156 2.156 7.502 1.402 10.541 1.518 5.246.269 5.246.269 7.459 2.482 2.5.333 2.5.333 5 0l2-2c2.95-.259 2.95-.259 6.688-.266l1.994-.005a598.56 598.56 0 0 1 4.176.01c2.134.011 4.266 0 6.4-.012 1.351 0 2.703.003 4.055.007l3.738.007C299 235 299 235 301 237c3.618.38 5.884-.153 9-2v2c3.893.37 5.806.103 9.313-1.75 2.784-1.964 2.784-1.964 3.562-4.5L323 229h7v-2h-7v-8h85l1 3c1.634 1.368 1.634 1.368 3.563 2.563 1.94 1.253 1.94 1.253 3.437 2.437v2h7v-3l-4-1 1-2h12c1 4 1 4 0 6h8l.188-1.625c1.187-3.47 2.966-6.096 5.812-8.375 2.92-.845 5.715-.761 8.738-.681l2.632-.003c2.863.004 5.724.051 8.587.098 1.988.011 3.977.02 5.965.026 5.226.023 10.452.082 15.678.148 5.336.061 10.672.089 16.007.119 10.465.064 20.929.167 31.393.293v-2Z"/><path fill="#82BEE2" d="M390.672 92.242C396.057 95.78 399.815 99.388 403 105v-3h-2c.613-2.962 1.254-4.38 3-7h2v33h-3c-.925-4.716-1.23-7.673 1-12h-2l-.75 3.188c-1.05 3.646-2.534 6.096-5.25 8.812-2.25.813-2.25.813-4 1v2h-2v2h-3l.108 3.155c1.274 38.108 1.274 38.108-.108 55.845l4-1 .313-2.875C392 185 392 185 395 183c3.961-.432 6.114-.653 9.375 1.75C406 187 406 187 406.438 188.938c.454 2.382.454 2.382 3.125 4.437C412 196 412 196 412.688 199.063 412 202 412 202 409.313 204.313c-2.91 1.482-5.1 2.309-8.313 2.687l-1 10h8l1-3 7-3 1-35h1v34l2-1a96.455 96.455 0 0 1 5.875-.25l3.18-.078c3.34.372 4.41 1.224 6.945 3.328 2.308.945 2.308.945 4.688 1.625 4.223 1.286 4.223 1.286 5.312 2.375l19 1V104h1v113h15l-.25-6.25c-.244-6.092-.244-6.092 2.047-9.145 3.181-2.318 5.363-2.085 9.203-1.605l4 3c3.667.25 3.667.25 7 0v8h-7v6h10v-50l-35 1-1 48h-1v-50h20l-2-15-3-1c3-2 3-2 5-3-3.766-1.255-5.372-.37-9 1-3.267-4.084-3.352-7.586-3.398-12.598.495-2.99 1.177-4.332 3.398-6.402 2.7-.39 2.7-.39 5.688-.25l3.011.11L491 129l1 4c2.169-.506 4-1 6-2v-2l4 2v-4c3.478-1.16 5.459-.708 9 0v10h2v24l-3 1c-2.203 3.305-2.246 4.277-2.227 8.114v3.154l.032 3.4.008 3.485c.011 3.678.037 7.356.062 11.035.01 2.491.02 4.983.027 7.474.022 6.113.057 12.225.098 18.338h15v-8l-1.75-.25c-3.095-1.032-4.34-2.089-6.25-4.75-.67-4.616-.71-7.624 2-11.5 3.388-2.824 4.816-3.236 9.07-2.898 4.383.904 6.495 2.745 8.93 6.398.24 4.356-.283 7.986-2.813 11.563C530 209 530 209 526 209v8l3.938-.438c.73-.08 1.461-.162 2.214-.246 1.86-.135 1.86-.135 2.848-1.316 1.998-.158 4-.251 6.004-.316l3.682-.127 3.876-.12 3.89-.13c3.182-.107 6.365-.209 9.548-.307v1h6l-1-39-2 1c-7.977.952-15.975 1.145-24 1l1-4c2.874-.506 5.749-1.005 8.625-1.5l2.45-.434c4.364-.745 8.477-1.239 12.925-1.066l-1-3c-.484-8.551.093-16.657 2-25h3v26l9-1c2.55.33 2.55.33 4.527.96.73.225 1.458.45 2.21.68l2.2.735c.754.235 1.507.47 2.284.71 5.277 1.664 5.277 1.664 7.779 2.915v3c-7 0-7 0-26-4l-1 42h5l1 1c1.706.157 3.417.25 5.129.316l3.135.127 3.298.12 3.311.13c2.709.107 5.418.209 8.127.307v2h-28l-1 4c-2.5 1.188-2.5 1.188-5 2l-1 1c-1.666.04-3.334.043-5 0l-1-3h-15l-1-4 2 1v2h14l1-4 6 1v2c1.985-.267 1.985-.267 4-1l1-3h-36v2h-89l-2 4h-2l-2 6h-8v-6h-12v2l3 1v3h-7v-2l-1.75-.813c-2.324-1.226-4.288-2.435-6.25-4.187v-3h-85v8h7v2h-7l-1 4-1-22-6-1c.563-1.875.563-1.875 2-4 2.31-.743 4.646-1.411 7-2 2.317-1.876 2.317-1.876 2.188-4.938-.058-3.103-.058-3.103-1.188-6.062.278-2.34.605-4.676 1-7h2v31h15v-55h2v55h18l-.092-4.357c-.28-13.55-.518-27.102-.714-40.654-.101-6.967-.218-13.934-.37-20.9a1989.67 1989.67 0 0 1-.33-20.172c-.038-2.565-.089-5.13-.155-7.694a622.06 622.06 0 0 1-.155-10.78l-.116-3.21c.019-7.082.019-7.082 2.672-10.426A54.812 54.812 0 0 1 370 94l2.75-1.938c5.93-1.938 12.152-2.502 17.922.18Z"/><path fill="#94BFE5" d="M344.828 79.047c3.214 1.41 5.822 3.53 8.547 5.703l1.672 1.305c3.712 2.91 7.341 5.912 10.953 8.945l-3 1v121h-18v-55h-2v55h-15v-31h-2v7l-5-1-.938-2.938c-.757-2.903-.757-2.903-2.062-4.062-5.243-.53-5.243-.53-9.938 1.25-1.166 1.708-1.166 1.708-1.5 3.75-.562 2-.562 2-2.625 3.25-2.1 1.536-2.1 1.536-2.269 3.645-.09 2.467-.09 2.467.332 6.105 2.69 2.69 5.369 3.027 9 4l2 1v2h-54v-19h-4c-.313-2.688-.313-2.688 0-6 2.438-2.75 2.438-2.75 5-5l1-2 3.38-.076c4.125-.094 8.25-.194 12.373-.296 1.788-.044 3.576-.085 5.363-.125 2.565-.058 5.129-.122 7.693-.187l2.436-.05c3.682.242 3.682.242 6.755-1.266.122-1.503.178-3.012.205-4.52l.06-2.912.051-3.166.063-3.224c.066-3.413.125-6.827.183-10.24l.131-6.924c.108-5.671.21-11.343.307-17.014 3-1 4.974-1.116 8.105-1.098l2.685.008 3.397.028L325 127V97h-5c3.727-4.1 7.854-7.11 12.434-10.215 3.052-2.123 5.922-4.435 8.777-6.816C343 79 343 79 344.828 79.047Z"/><path fill="#D2EBFD" d="M423 79h36v17h-6v6h14v115h-21l-2-2a81.002 81.002 0 0 0-5-1.5c-4.778-1.278-4.778-1.278-7-3.5-3.289-.282-3.289-.282-7-.188l-3.813.02c-3.083-.05-3.083-.05-5.187 1.168V102h13v-5h-6V79Z"/><path fill="#B8DEF3" d="M0 219h244v1l-57 1c9.046 4.43 9.046 4.43 18 6v2h-5v5l-4 1-1 4 1.847-.001c44.623-.034 89.245.057 133.868.195l28.097.084c16.686.049 33.373.099 50.059.15l48.472.145 3.045.009 15.133.045c41.493.123 82.986.248 124.479.373v2H0v-23Z"/><path fill="#D3EBFD" d="M149 119h36v17h-6v5h20v76h-18l-.078-4.234c-.056-1.839-.114-3.677-.172-5.516l-.043-2.79c-.16-5.345-.16-5.345-2.445-10.065-2.613-1.612-4.141-1.962-7.2-1.958l-2.527-.066c-3.844.954-5.214 2.431-7.535 5.629-.727 3.273-.79 6.469-.813 9.813l-.076 2.677c-.058 2.17-.088 4.34-.111 6.51-2.48.027-4.958.047-7.438.063l-2.142.025c-1.807.009-3.614-.036-5.42-.088-1.906-1.906-1.184-5.4-1.205-7.998l-.03-2.217c-.032-2.43-.057-4.86-.081-7.289l-.063-5.04c-.056-4.43-.105-8.861-.153-13.292-.05-4.517-.106-9.035-.161-13.553-.108-8.87-.21-17.74-.307-26.611h12v-5h-6v-17Z"/><path fill="#D4EBFD" d="M203 104h47v106l-3 1-2 6h-22v-10h19l-1-9-18-1c-.046-3.933-.086-7.865-.11-11.798-.015-1.995-.04-3.99-.066-5.985l-.02-3.799-.031-3.507C223 169 223 169 225 166c2.938-.438 2.938-.438 6 0 2.467 2.22 2.962 3.436 3.188 6.75L234 175h-4v20h10v-20h-4l-.621-1.934-.816-2.504-.81-2.496c-.575-2.028-.575-2.028-1.753-3.066-3.836-.145-7.323-.177-11 1v-2h-13v10h12v6h-12v10h12v7h-9v10h9v10h-17V104Z"/><path fill="#F6F7F7" d="m321 95 5 1v97l-5-1-.938-2.938c-.757-2.903-.757-2.903-2.062-4.062-5.243-.53-5.243-.53-9.938 1.25-1.166 1.708-1.166 1.708-1.5 3.75-.562 2-.562 2-2.625 3.25-2.1 1.536-2.1 1.536-2.269 3.645-.09 2.467-.09 2.467.332 6.105 2.69 2.69 5.369 3.027 9 4l2 1v2h-54v-19h-4c-.313-2.688-.313-2.688 0-6 2.438-2.75 2.438-2.75 5-5l1-2 3.38-.076c4.125-.094 8.25-.194 12.373-.296 1.788-.044 3.576-.085 5.363-.125 2.565-.058 5.129-.122 7.693-.187l2.436-.05c3.682.242 3.682.242 6.755-1.266.122-1.503.178-3.012.205-4.52l.06-2.912.051-3.166.063-3.224c.066-3.413.125-6.827.183-10.24l.131-6.924c.108-5.671.21-11.343.307-17.014 3-1 4.974-1.116 8.105-1.098l2.685.008 3.397.028L325 127V97h-5l1-2Z"/><path fill="#F5F5F5" d="m107 55 4 1v25l7-1c2.722.53 2.722.53 5.277 1.434l2.803.966 2.858 1.037 2.939 1.026c2.38.832 4.753 1.678 7.123 2.537v3c-5.677.387-10.39-.76-15.84-2.344-3.928-.927-3.928-.927-11.16-.656v30c5.37-.406 5.37-.406 10.739-.838 4.279-.288 7.352-.215 11.261 1.838v9l-17 1v18h-2l.016 2.08c.02 3.098.034 6.196.046 9.295l.026 3.273.01 3.125.016 2.889C115 169 115 169 114 171a73.848 73.848 0 0 0-.205 4.45l-.06 2.79-.051 3.018-.063 3.085c-.066 3.26-.125 6.521-.183 9.782l-.131 6.621c-.108 5.418-.209 10.836-.307 16.254H94v-13l7.52-2.246c1.835-.558 3.66-1.147 5.48-1.754.288-3.709.441-7.3 0-11-2.245-2.33-2.245-2.33-5-4a220.497 220.497 0 0 1-3-7c-3.025-2.017-3.61-2.258-7-2.188l-2.063.02c-2.155.111-2.155.111-4.937 1.168l-1-3 2-2 1 2 4-2v-55c14-1 14-1 17 0V88l-4 2c-2.565.227-2.565.227-5.422.195l-3.105-.02-3.223-.05-3.27-.027c-2.66-.024-5.32-.057-7.98-.098l1-3c3.448-1.15 6.706-1.543 10.313-2 4.58-.583 9.137-1.21 13.687-2l-1-3c.063-2.56.186-5.074.375-7.625l.148-2.166A284.55 284.55 0 0 1 107 55Z"/><path fill="#F3F5F5" d="M390.672 92.242C396.057 95.78 399.815 99.388 403 105v-3h-2c.613-2.962 1.254-4.38 3-7h2v33h-3c-.925-4.716-1.23-7.673 1-12h-2l-.75 3.188c-1.05 3.646-2.534 6.096-5.25 8.812-2.25.813-2.25.813-4 1v2h-2v2h-3l.092 3.14c1.1 37.932 1.1 37.932.908 56.86h-2v-18h-4l-3-10-4.313-.313-2.425-.175c-2.41.283-2.41.283-3.871 2.345-2.038 4.606-1.87 8.927-1.903 13.913l-.054 3.14c-.054 3.3-.088 6.601-.122 9.903-.033 2.241-.067 4.483-.103 6.724-.085 5.488-.153 10.975-.209 16.463h-3c-.318-15.003-.59-30.006-.806-45.01-.101-6.968-.218-13.935-.37-20.901a1989.67 1989.67 0 0 1-.33-20.172c-.038-2.565-.089-5.13-.155-7.694a622.06 622.06 0 0 1-.155-10.78l-.116-3.21c.019-7.082.019-7.082 2.672-10.426A54.812 54.812 0 0 1 370 94l2.75-1.938c5.93-1.938 12.152-2.502 17.922.18Z"/><path fill="#329318" d="M318 184c2 1.188 2 1.188 3 3 .188 2.688.188 2.688 0 5l1.875.313C325 193 325 193 327 196c.45 3.53.49 5.294-1.563 8.25-2.997 2.152-5.893 2.814-9.437 3.75l-1 2c1.454-.03 1.454-.03 2.938-.063C321 210 321 210 322 211c.363 3.761.372 7.536.438 11.313l.138 3.208c.043 2.943.006 5.593-.576 8.479-2.816 2.746-2.816 2.746-6 4-3.375-.25-3.375-.25-6-1v-2l-1.688 1.5c-2.727 1.77-4.12 1.92-7.312 1.5l-2-2c-3.076-.312-3.076-.312-6.688-.266l-1.994-.005a598.56 598.56 0 0 0-4.176.01c-2.134.011-4.266 0-6.4-.012-1.351 0-2.703.003-4.055.007l-3.738.007c-3.07-.049-3.07-.049-4.949 2.259-2.5.25-2.5.25-5 0l-2-2c-2.523-.255-4.97-.42-7.5-.5-7.23-.23-7.23-.23-9.5-2.5-.626-7.636.893-14.665 3-22 1-1 1-1 3.626-1.12l3.546.006h1.951c2.138 0 4.275.009 6.412.016l4.435.005c3.898.003 7.796.013 11.694.024 3.974.01 7.95.015 11.924.02 7.804.01 15.608.028 23.412.049v-2l-1.863-.332-2.45-.48-2.425-.458c-2.573-.83-3.667-1.557-5.262-3.73-.556-2.704-.43-5.279 0-8 1.375-2 1.375-2 3-3h2l.313-2.875c1.355-6.16 6.408-5.829 11.687-5.125Z"/><path fill="#233746" d="m127.5 126.875 2.379-.012c5.868.01 5.868.01 8.121 1.137v11h3v18l-3 1a139.724 139.724 0 0 0-1 4c-1.438 1.563-1.438 1.563-3 3l-2 3h-2v3h2v46h-19c-.025-6.514-.043-13.029-.055-19.543-.005-2.218-.012-4.435-.02-6.653a3961.07 3961.07 0 0 1-.023-9.546l-.015-3.018v-2.79l-.007-2.463C113 171 113 171 114 169c.153-1.739.25-3.482.316-5.227l.127-3.125.12-3.273.13-3.297c.107-2.692.209-5.385.307-8.078h2v-18c3.281-1.64 6.898-1.143 10.5-1.125Z"/><path fill="#D4ECFD" d="M328 158h33v59h-16v-55h-2v55h-15v-59Z"/><path fill="#C1E4FE" d="M203 104h47v106l-3 1-2 6h-22v-10h19l-1-9-18-1c-.046-3.933-.086-7.865-.11-11.798-.015-1.995-.04-3.99-.066-5.985l-.02-3.799-.031-3.507C223 169 223 169 225 166c2.938-.438 2.938-.438 6 0 2.467 2.22 2.962 3.436 3.188 6.75L234 175h-4v20h10v-20h-4l-.621-1.898-.816-2.477-.81-2.46c-.705-2.175-.705-2.175-1.753-4.165a1420.4 1420.4 0 0 1 6.813-.063l3.832-.035C246 164 246 164 249 165l-1-30h-17v-11h17v-14h-2v9h-15v-11h17v-2l-8 1v-2l-35 1 1 14c-.07 2.935-.179 5.772-.418 8.685-.642 9.453-.802 18.882-.898 28.354l-.063 5.236c-.055 4.528-.105 9.055-.153 13.582-.051 4.647-.106 9.293-.161 13.94-.107 9.068-.209 18.135-.307 27.203h-1V104Zm4 4h15v11h-16l1-11Z"/><path fill="#F8FBFD" d="M0 220h95l1 3c-7.51 4.193-13.35 5.589-22 4v2h7l.688 2.375c1.646 3.294 2.956 3.42 6.312 4.625l1 3H0v-19Z"/><path fill="#98CAEB" d="M423 79h36v17h-6v6h14v115h-1V104h-47v63h2l1 3 1-7h14v11l-12 1v3l2.371.184 3.067.254 3.058.246C436 179 436 179 437 180c.072 1.686.084 3.375.063 5.063l-.028 2.785L437 190c-2.312.027-4.625.046-6.938.063l-3.902.035C423 190 423 190 422 189a91.472 91.472 0 0 1-.063-5.063l.028-2.785L422 179h-2v31l-4 1V102h13v-5h-6V79Z"/><path fill="#BFE0F9" d="M474.326 166.886c1.476 0 2.952.006 4.428.016l2.082.003c2.575.006 5.15.02 7.726.032L506 167v50h-10v-6h7v-8l-3.813.687c-2.234.29-2.234.29-4.187.313-1.563-1.438-1.563-1.438-3-3-4.56-.563-4.56-.563-8.676 1.105-1.945 2.783-1.845 5.226-2.012 8.582l-.199 3.575L481 217h-12c.118-6.96.242-13.92.372-20.88.044-2.37.085-4.74.125-7.11.058-3.398.122-6.796.187-10.194l.05-3.232.06-2.972.048-2.632c.272-3.41.949-2.973 4.484-3.094Z"/><path fill="#F5F5F5" d="m397.227 137.902 3.125.01 3.273.025 3.297.014c2.693.012 5.385.028 8.078.049.873 24.674 1.13 49.311 1 74l-3.438 1.375c-3.61 1.196-3.61 1.196-4.562 3.625h-8v-10c8.625-3.875 8.625-3.875 12-5-1.24-6.616-1.24-6.616-6-11-.75-3.188-.75-3.188-1-6-3.565-1.188-6.256-1.263-10-1-2.4 1.359-2.4 1.359-4 3-.943-2.83-1.122-4.543-1.114-7.471v-2.73l.016-2.936.005-3.014c.005-3.179.018-6.358.03-9.536.006-2.155.01-4.31.014-6.463.011-5.284.028-10.567.049-15.85 2.557-1.279 4.367-1.113 7.227-1.098Z"/><path fill="#D1EBFD" d="M261 178c5.054-.099 10.107-.172 15.161-.22a609.29 609.29 0 0 0 5.156-.082c2.473-.048 4.944-.071 7.417-.089l2.324-.062c3.589-.002 5.553.16 8.459 2.352C301 182 301 182 301 184l3 1v6h-4c.282 1.96.576 3.918.875 5.875l.492 3.305c.396 2.94.396 2.94 2.633 4.82 2.322.705 4.656 1.372 7 2l2 1v2h-54v-19h-4c-.313-2.688-.313-2.688 0-6 2.438-2.75 2.438-2.75 5-5l1-2Z"/><path fill="#D0EBFE" d="M145 143h10v3l-4 1-1 12h11l2 4h2v10h11v-11h-5v-3h6v-5h2l1-3 2 7 10 1v-14l-4-1h8v72h-1v-56h-2v13h-1v-11h-10v12h6l-2 4h-36v10l12 1v1l-6 1 1 3-2.438-.063c-2.496-.233-2.496-.233-3.562 1.063h7v1l-7 1-1 10h9v-11c2 2 2 2 2.135 3.971l-.158 2.38-.157 2.579-.195 2.695-.172 2.719A969.06 969.06 0 0 1 160 217h-15v-74Z"/><path fill="#F6931F" d="M390.672 92.242C396.057 95.78 399.815 99.388 403 105v-3h-2c.613-2.962 1.254-4.38 3-7h2v33h-3c-.925-4.716-1.23-7.673 1-12h-2l-.75 3.188c-1.05 3.646-2.534 6.096-5.25 8.812-2.25.813-2.25.813-4 1v2l-5 1v-14l-5.215.035-6.723.028-3.443.025-3.271.01-3.031.016C363 118 363 118 362 117c-1.532-13.555-1.532-13.555 1.574-18.512 2.047-1.797 4.053-3.158 6.426-4.488l2.75-1.938c5.93-1.938 12.152-2.502 17.922.18Z"/><path fill="#F8FBFC" d="M186 220h58v13c2.156 2.156 7.502 1.402 10.541 1.518 5.246.269 5.246.269 7.459 2.482 2.5.333 2.5.333 5 0l2-2c4.238-.422 8.492-.372 12.749-.37 2.112-.005 4.221-.041 6.333-.08 1.345-.005 2.69-.01 4.035-.01 1.223-.01 2.447-.017 3.707-.026 3.718.569 4.871 1.592 7.176 4.486-26.455.91-52.85 1.037-79.313.563l-2.166-.04c-8.84-.16-17.68-.334-26.521-.523.313-1.938.313-1.938 1-4l3-1 1-5h5v-2l-2.75.375c-5.97.074-11.175-3.575-16.25-6.375v-1Z"/><path fill="#8FB2C3" d="M567 143h3v26l9-1c2.55.33 2.55.33 4.527.96.73.225 1.458.45 2.21.68l2.2.735c.754.235 1.507.47 2.284.71 5.277 1.664 5.277 1.664 7.779 2.915v3c-7 0-7 0-26-4l-1 42h5l1 1c1.706.157 3.417.25 5.129.316l3.135.127 3.298.12 3.311.13c2.709.107 5.418.209 8.127.307v2h-28l-1 4c-2.5 1.188-2.5 1.188-5 2l-1 1c-1.666.04-3.334.043-5 0l-1-3h-15l-1-4 2 1v2h14l1-4 6 1v2c1.985-.267 1.985-.267 4-1l1-3h-36v2c-2.792.054-5.583.094-8.375.125l-2.406.05c-2.074.018-4.148-.072-6.219-.175l-2-2h7v-8l-1.75-.25c-3.095-1.032-4.34-2.089-6.25-4.75-.67-4.616-.71-7.624 2-11.5 3.388-2.824 4.816-3.236 9.07-2.898 4.383.904 6.495 2.745 8.93 6.398.24 4.356-.283 7.986-2.813 11.563C530 209 530 209 526 209v8l3.938-.438c.73-.08 1.461-.162 2.214-.246 1.86-.135 1.86-.135 2.848-1.316 1.998-.158 4-.251 6.004-.316l3.682-.127 3.876-.12 3.89-.13c3.182-.107 6.365-.209 9.548-.307v1h6l-1-39-2 1c-7.977.952-15.975 1.145-24 1l1-4c2.874-.506 5.749-1.005 8.625-1.5l2.45-.434c4.364-.745 8.477-1.239 12.925-1.066l-1-3c-.484-8.551.093-16.657 2-25Z"/><path fill="#8EBCE2" d="M149 119h36v17h-6v5h20v76h-2v-74l-20 1c-3.792-.073-7.482-.169-11.25-.438l-2.617-.158A767.904 767.904 0 0 1 157 143v2h-2v-2h-10v73h-1l-1-75h12v-5h-6v-17Z"/><path fill="#2C4121" d="M96 175c2.938 1.625 2.938 1.625 5 4 .36 1.996.695 3.995 1 6 1.884 1.317 1.884 1.317 4 2 2.393 2.393 2.32 3.094 2.375 6.375-.096 2.986-.233 4.38-1.75 7-3.986 2.468-8.096 3.433-12.625 4.625l-1 12h-2l-.148-2.59-.227-3.347c-.07-1.103-.14-2.205-.21-3.34L90 205l-2-1v-2h-7l-.75 2.375C79 207 79 207 77.062 208.313 75 209 75 209 72 209v8h-2v-8l-2.188-.125C63.96 207.676 61.894 205.46 60 202c-.718-4.466-.328-6.41 1.875-10.375C64 189 64 189 66 188c3.016-.277 6.031-.447 9.055-.621 2.828-.364 4.613-.756 6.945-2.379l.438-2.875C83 179 83 179 85.061 176.625c3.803-2.104 6.685-2.467 10.938-1.625Z"/><path fill="#F3F3F3" d="M511 127v10h2v24l-3 1-1 2h-18v-6h-2l-.813-3.438L487 151l-3-1c3-2 3-2 5-3-3.766-1.255-5.372-.37-9 1-3.267-4.084-3.352-7.586-3.398-12.598.495-2.99 1.177-4.332 3.398-6.402 2.7-.39 2.7-.39 5.688-.25l3.011.11L491 129l1 4c2.169-.506 4-1 6-2v-2l4 2v-4c3.069-1.534 5.7-.55 9 0Z"/><path fill="#7AB1D2" d="M208 164h13v2l1.563-1c3.42-1.404 5.776-1.523 9.437-1 2.685 2.96 3.902 4.874 4.25 8.875L236 175h4v20h-10v-20h4c-.86-4.332-.86-4.332-3-8-2-.04-4-.043-6 0-1.396 2.791-1.218 5.202-1.316 8.32l-.127 3.809-.12 3.996-.13 4.02c-.107 3.285-.209 6.57-.307 9.855l3.902-.035 5.036-.028 2.576-.025 2.45-.01 2.27-.016C241 197 241 197 242 198v9h-19v10h22l-1 4v-2h-25l1-12h-9v-10h9v-7h-12v-10h12v-6h-12v-10Z"/><path fill="#D66669" d="M249 212h71l1 11h-58l-1 5-2 1c-.652 2.025-.652 2.025-1 4-2.146.027-4.292.046-6.438.063l-3.62.035C246 233 246 233 245 232c-.75-7.954 1.21-11.628 4-20Z"/><path fill="#F8FBFC" d="M323 220c7.654-.05 15.308-.086 22.961-.11 2.606-.01 5.211-.024 7.817-.04 3.738-.025 7.476-.036 11.214-.045l3.548-.032h3.276l2.893-.014C377 220 377 220 379 222c-4.385 3.316-7.375 4.55-13 5-1.002 3.583-1.002 3.583 0 7l2.438.938C371 236 371 236 373 239h-56l5-6c.853-2.217.853-2.217 1-4h7v-2h-7v-7Z"/><path fill="#CFE8FD" d="M423 108h38v11l-2.809.148-3.628.227-3.622.21c-.97.138-1.94.274-2.941.415l-1 2 1.828-.035 2.422-.028 2.39-.035C456 122 456 122 460 123v11h-15v-8h-3l-1 3h-2l.063 2.438C439 134 439 134 438 135c-2.53.073-5.033.092-7.563.063l-2.154-.014c-1.76-.012-3.522-.03-5.283-.049v-12l5-1v-3h-5v-11Z"/><path fill="#40AC1E" d="M373.5 163.375c3.5.625 3.5.625 5.875 2.188 2.077 3.116 2.34 5.742 2.625 9.437h4v18l5-2c.664-2.987.664-2.987 1-6 3.72-2.48 5.598-2.463 10-2 2.447 1.803 3.76 2.939 4.438 5.938.454 2.382.454 2.382 3.125 4.437C412 196 412 196 412.688 199.063 412 202 412 202 409.438 204.313c-3.591 1.762-6.471 2.37-10.438 2.687v11h-2v-11l-3.188-.125c-5.093-1.17-6.048-2.519-8.812-6.875-.313-2.875-.313-2.875 0-5h-9v-20h3c-.185-4.342-.185-4.342-2-8-2.958-.333-2.958-.333-6 0-2.113 3.17-2.26 4.016-2.319 7.655l-.06 2.85-.035 3.07-.059 3.148c-.06 3.321-.106 6.643-.152 9.964-.038 2.251-.077 4.502-.117 6.752-.096 5.52-.181 11.04-.258 16.561h-2c-.102-6.584-.172-13.167-.22-19.751-.02-2.239-.047-4.477-.082-6.716-.048-3.222-.071-6.443-.089-9.666l-.062-3.021c-.002-6.636.293-13.103 7.953-14.471Z"/><path fill="#D5ECFD" d="M328 132h33v24h-33v-24Z"/><path fill="#F3F6F7" d="M148 119h1v17h6v5h-12v76h-11v-46h-2c0-3 0-3 1.25-4.438L133 165c3.22-3.013 3.22-3.013 5-7l2-1-.035-2.922-.028-3.828-.035-3.797c.078-2.738.27-4.872 1.098-7.453l-3-1 2-7h1v6h2l3 3v-10h-7v-2l8-1 1-8Z"/><path fill="#F7F6F7" d="M374.063 165.625C377 166 377 166 379 168c.125 3.625.125 3.625 0 7h-3v20h9l.813 3.313c1.197 4.097 1.197 4.097 4.187 6.687 2.31.744 4.643 1.422 7 2v10h-29c-.069-6.62-.129-13.24-.165-19.86-.015-2.253-.035-4.505-.061-6.758-.037-3.237-.054-6.473-.067-9.71-.015-1.008-.03-2.015-.047-3.053v-2.85l-.02-2.504c.67-4.21 2.196-6.123 6.423-6.64Z"/><path fill="#E9F2FE" d="M187 221c2.887 1.133 5.627 2.438 8.402 3.82 3.285 1.492 6.022 1.942 9.598 2.18v2h-5v5l-4 1-1 4h63v1H117v-1l52-1-1-3-2.375.188L163 235c-2-3-2-3-1.688-5.625C162 227 162 227 163 226c1.39-.322 2.787-.608 4.188-.875 3.038-.632 5.044-1.25 7.812-2.75 4.158-1.906 7.5-2.157 12-1.375Z"/><path fill="#1E73B6" d="M115 173h15v44h-15v-44Z"/><path fill="#D8ECFD" d="M225 166c2.938-.438 2.938-.438 6 0 2.467 2.22 2.962 3.436 3.188 6.75L234 175h-4v20h10v-5h6v-3h3v23l-2 1-2 6h-22v-10h19l-1-9-18-1c-.046-3.933-.086-7.865-.11-11.798-.015-1.995-.04-3.99-.066-5.985l-.02-3.799-.031-3.507C223 169 223 169 225 166Z"/><path fill="#A3D3F5" d="M150 178h42v10l-2.23.078c-6.122.178-6.122.178-11.333 2.984-2.914 2.317-3.768 2.104-7.375 1.938-3.556-.117-5.2.053-8.625 1.375-3.55 3.824-3.418 7.56-3.437 12.625h-9a336.784 336.784 0 0 1-.125-4.75l-.07-2.672c.204-2.692.83-4.277 2.195-6.578l5 1c-1.098-2.993-1.677-3.846-4.625-5.25L150 188v-10Z"/><path fill="#D8ECFD" d="m215.293 104.902 2.14.005c2.251.005 4.503.018 6.755.03 1.527.006 3.055.01 4.583.014 3.743.011 7.486.028 11.229.049v2l2-1c2-.04 4-.043 6 0v2h-17v11h15v-9l3-1v15c-2.349 1.174-3.738 1.115-6.352 1.098l-2.578-.01-2.695-.025-2.719-.014A1686.08 1686.08 0 0 1 228 125v-2h-4v2l-16-1v11h16v3c-3.792 2.528-6.809 2.224-11.188 2.125l-2.271-.027c-1.847-.024-3.694-.06-5.541-.098-1.683-3.366-.808-7.137-.563-10.813.47-7.747.688-15.424.563-23.187 3.506-1.169 6.648-1.125 10.293-1.098ZM207 108l-1 11h16v-11h-15Z"/><path fill="#D8ECFE" d="M188 144h8v72h-1v-56h-2v13h-1v-11h-10v12h6l-2 4-38 1c-.923-3.692-1.103-6.481-1.063-10.25l.028-3.266L147 163l2 1v9h11v-11h-13l1-4c2.126.06 4.25.149 6.375.25l3.586.14c3.039.61 3.039.61 4.453 2.657L163 163h2v10h11v-11h-5v-3h6v-5h2l1-3 2 7 10 1v-14l-4-1Z"/><path fill="#D0EAFE" d="M482 168h24v49h-10v-6h7v-8l-3.813.688c-2.234.289-2.234.289-4.187.312-1.563-1.438-1.563-1.438-3-3-4.56-.563-4.56-.563-8.676 1.105-1.945 2.783-1.845 5.226-2.012 8.583l-.199 3.574L481 217h-10v-12l2 1c.625 2.063.625 2.063 1 4l6 1v-8h-8v-6h31v-6h-29c2.762-2.762 5.207-2.579 9-3l1-3v3h9l1-3v3h9v-19l-8 1c-1.59 1.92-1.59 1.92-2 4l-1-4-10-1v-1Z"/><path fill="#CEEAFD" d="M328 99h33v30h-6l-.008-3.98c-.037-1.736-.076-3.472-.117-5.207l.008-2.62c-.093-4.752-.093-4.752-2.151-8.9-2.722-2.38-4.727-3.292-8.295-3.918-4.485.816-5.686 2.004-8.437 5.625-.712 3.25-.745 6.431-.75 9.75-.033 1.724-.07 3.448-.11 5.172l-.014 2.3C335 129 335 129 334 130h-6V99Z"/><path fill="#80C0D4" d="M81 202h7v2l3 1v12h2v-12h1v12h38v1c-14.903 1.07-29.76 1.13-44.695 1.098l-7.59-.005c-5.929-.003-11.857-.01-17.785-.021-6.762-.011-13.524-.017-20.286-.022-13.881-.01-27.763-.028-41.644-.05v-2h69v-8h1v8h2v-8l3.375-1.25c2.618-1.105 3.46-1.499 5.063-3.938L81 202Z"/><path fill="#6F4929" d="M198 50h28l.063 7.938.027 2.503A179.38 179.38 0 0 1 226 66c-2.645 2.645-10.374 1.186-13.938 1.188l-3.693.037-3.521.005-3.25.013C199 67 199 67 197 65c-.23-2.969-.23-2.969-.188-6.5l.02-3.531C197 52 197 52 198 50Z"/><path fill="#319217" d="M96 177c2.679 2.606 3.916 4.054 4.25 7.813L100 187h4c2.458 3.687 2.311 5.643 2 10l-2 3c-1.945.293-1.945.293-4.125.188L96 200l-1 2a600.893 600.893 0 0 1-5.75-.375c-1.067-.07-2.135-.14-3.234-.21-2.844-.391-4.627-.864-7.016-2.415-1.515-3.03-1.17-5.651-1-9 1-2.938 1-2.938 2-5l6 2 2-3h3v-2l5 2-2-3c-2.584-.25-2.584-.25-5 0v2c-2 1.625-2 1.625-4 3-.366-5.494-.366-5.494 1.313-7.813 3.4-2.392 5.858-2.495 9.687-1.187Z"/><path fill="#7BBEE7" d="M390 221c2.647 1.114 5.09 2.417 7.594 3.82 3.497 1.715 6.544 1.965 10.406 2.18v2h-5l-1 5-3 1-1 3h-5l-1-3h-14v2c-2.875.625-2.875.625-6 1l-2-2-2.563-.75L365 234c-.938-3-.938-3-1-6 2.29-2.29 3.21-2.39 6.313-2.938 2.947-.584 4.591-.998 7.125-2.687 4.11-2.206 8.008-2.11 12.562-1.375Z"/><path fill="#EFF1F2" d="m321 95 5 1v97l-5-1-2-7 5 1 1-22h-2v-11l-3-1h5v-5h-2v-11l-4-1 5-1 1-5h-23v49h3l1-2h2v3h12v2l-8 1 4 2-3.875.625c-2.217.475-2.217.475-4.125 1.375-1.183 2.883-1.183 2.883-2 6-3.125 2.375-3.125 2.375-6 4v-5h4c-.342-2.97-.342-2.97-1-6l-2-1v-2l-3-1-1-3 2-2c.33-2.14.33-2.14.319-4.633l.06-2.912.035-3.15.059-3.22c.06-3.403.106-6.807.152-10.21.038-2.303.077-4.607.117-6.91.096-5.655.181-11.31.258-16.965 3-1 4.974-1.116 8.105-1.098l2.685.008 3.397.028L325 127V97h-5l1-2Z"/><path fill="#D63B46" d="M263 223h58v9l-2 1-2-4c-4.79-.234-4.79-.234-9 2l-2-2c-3.083-.167-3.083-.167-6 0l-2 4h-29v-4l-7-1 1-5Z"/><path fill="#B4DCF3" d="M425 81h33v14h-33V81Z"/><path fill="#50453E" d="m107 55 4 1v25l7-1c2.722.53 2.722.53 5.277 1.434l2.803.966 2.858 1.037 2.939 1.026c2.38.832 4.753 1.678 7.123 2.537v3c-5.677.387-10.39-.76-15.84-2.344-3.928-.927-3.928-.927-11.16-.656l-1 30h-2V87l-5 3c-2.679.34-2.679.34-5.52.293l-3.095-.03c-1.055-.024-2.11-.05-3.198-.076l-3.255-.04A785.973 785.973 0 0 1 81 90l1-3c3.448-1.15 6.706-1.543 10.313-2 4.58-.583 9.137-1.21 13.687-2l-1-3c.063-2.56.186-5.074.375-7.625l.148-2.166A284.55 284.55 0 0 1 107 55Z"/><path fill="#1F4063" d="M391 50h27v17h-27V50Z"/><path fill="#FDFEFE" d="M568 175v39c-5.66-.809-8.297-1.362-13-4a4480.96 4480.96 0 0 1-.482-13.19 1813.71 1813.71 0 0 0-.166-4.49c-.082-2.147-.157-4.294-.23-6.441l-.144-3.92C554 179 554 179 555 178a91.472 91.472 0 0 1 5.063-.063l2.785.028L565 178v-2c2-1 2-1 3-1Z"/><path fill="#605A60" d="m249.588 209.88 3.492.006h3.944l4.292.016 4.368.005c3.839.003 7.677.013 11.516.024 3.915.01 7.829.015 11.743.02 7.686.01 15.371.028 23.057.049v1l-62 1c-3.731 10.248-3.731 10.248-4 20l13 1 1-5c6.75-.125 6.75-.125 9 1v4h29l1-4c1-1 1-1 3.875-1.187C306 228 306 228 309 230l3-2c4.875 2.625 4.875 2.625 6 6l3 1c-3.086 2.269-4.422 3.055-8.312 2.688L310 237v-2l-1.687 1.5c-2.728 1.77-4.121 1.92-7.313 1.5l-2-2c-3.076-.312-3.076-.312-6.687-.266l-1.995-.005a598.56 598.56 0 0 0-4.176.01c-2.134.011-4.266 0-6.4-.012-1.351 0-2.703.003-4.054.007l-3.739.007c-3.07-.049-3.07-.049-4.949 2.259-2.5.25-2.5.25-5 0l-2-2c-2.523-.255-4.97-.42-7.5-.5-7.23-.23-7.23-.23-9.5-2.5-.626-7.636.893-14.665 3-22 1-1 1-1 3.588-1.12Z"/><path fill="#E0EEFB" d="M151 121h32v14h-32v-14Z"/><path fill="#3A3025" d="M567 143h3v26l9-1c2.55.33 2.55.33 4.527.96l2.21.68 2.2.735c.754.235 1.507.47 2.284.71 5.277 1.664 5.277 1.664 7.779 2.915v3c-5.912.257-11.181-.704-16.938-2l-2.65-.578c-2.139-.468-4.276-.942-6.412-1.422v2h-2v39h-1v-39l-4 2c-7.924 1.152-16.008 1.144-24 1l1-4c2.874-.506 5.749-1.005 8.625-1.5l2.45-.434c4.364-.745 8.477-1.239 12.925-1.066l-1-3c-.484-8.551.093-16.657 2-25Z"/><path fill="#81C2EB" d="m429.576 142.861 2.361.006 2.41-.003c1.685 0 3.37.001 5.054.006 2.588.005 5.175 0 7.763-.007 1.633 0 3.266.002 4.898.004l2.362-.006c5.461.024 5.461.024 6.576 1.139v10h-38c0-11.11 0-11.11 6.576-11.139Z"/><path fill="#72B9F0" d="M261 178c5.035-.149 10.07-.257 15.106-.33 1.712-.03 3.424-.07 5.136-.123 2.465-.073 4.929-.107 7.395-.133l2.308-.094c2.918-.002 5.305.091 7.656 1.937 2.965 3.393 4.08 6.282 4.399 10.743h-3v-5l-3-1v-2h-2l1 9h-3l-.367-1.934-.508-2.504-.492-2.496L291 182l-2-1 1 3c.04 2.333.044 4.667 0 7h-3l-1-9h-2v9h-3v-9h-3v9h-3v-9h-2l-1 9h-3c-.125-6.625-.125-6.625 1-10-2.797 2.068-3.027 3.144-3.688 6.688L266 191h-3c-.125-6.75-.125-6.75 1-9l-3 2c-.417 2.715-.417 2.715-.293 5.883l.03 3.535.075 3.707.042 3.73c.035 3.05.084 6.097.146 9.145h-2v-19h-4c-.313-2.688-.313-2.688 0-6 2.438-2.75 2.438-2.75 5-5l1-2Z"/><path fill="#D7ECFD" d="m419 177 1 2h2l1 10c2.419.135 4.83.234 7.25.313l2.066.126c2.297.108 2.297.108 5.684-.439 2.734-2.698 4.446-5.503 6-9h2v10h12v2h-2l1 4h-31v12l-7 1v-32Z"/><path fill="#D3EBFE" d="M344.563 104.313c3.224.909 5.047 2.363 7.437 4.687.922 2.766 1.118 4.383 1.098 7.23l-.01 2.432-.026 2.525-.013 2.561c-.012 2.084-.03 4.168-.049 6.252h-17c-1.032-18.068-1.032-18.068 2.688-22.625 2.043-1.76 3.239-2.355 5.875-3.063Z"/><path fill="#93C6F5" d="m335.414 95.902 2.211.005c2.333.005 4.667.018 7 .03A4750.787 4750.787 0 0 1 361 96l-1 4h-31l-1 30 6-1 .078-3.98c.056-1.736.114-3.472.172-5.207l.043-2.62c.203-5.286.658-8.396 4.707-12.193 3.203-1.601 5.453-1.407 9-1 2.885 1.54 5.037 3.382 7 6 .827 3.343.672 6.458.438 9.875l-.096 2.664A266.596 266.596 0 0 1 355 129h6v3h-33v20h-1c-1.073-6.086-1.13-12.013-1.098-18.184l.005-3.198c.005-3.352.018-6.704.03-10.055.006-2.281.01-4.562.014-6.842.011-5.574.028-11.147.049-16.721 3.012-1.506 6.113-1.122 9.414-1.098Zm1.746 13.344c-2.68 6.362-1.546 13.992-1.16 20.754h17c.081-2.896.14-5.79.188-8.688l.076-2.474c.058-4.78-.103-7.984-3.264-11.838-2.746-2.078-2.746-2.078-5.313-2.563-3.6.754-5.212 1.973-7.527 4.81Z"/><path fill="#CCAAA5" d="M263 213h54l1 7h-55v-7Z"/><path fill="#83C2F0" d="M423 108h38v10h-38v-10Z"/><path fill="#D8ECFD" d="m172 193.188 2.063.23c2.445.734 3.35 1.588 4.937 3.582.34 2.177.34 2.177.293 4.668l-.03 2.705c-.024.929-.05 1.858-.076 2.815l-.04 2.85c-.036 2.32-.09 4.641-.147 6.962h-17l-.188-8.188-.082-2.551c-.05-4.584.276-7.555 3.27-11.261 3.144-2.096 3.521-2.267 7-1.813Z"/><path fill="#D7EBFE" d="M205 168h2v7h3v3h9v1h-12v12h13v6h-9v10h9v10h-15v-49Z"/><path fill="#5A5859" d="M373.5 163.375c3.5.625 3.5.625 5.875 2.188 2.077 3.116 2.34 5.742 2.625 9.437h4c.196 3.041.382 6.083.563 9.125l.17 2.594c.265 4.603.272 8.74-.733 13.281h-1v-5h-9v-20h3c-.185-4.342-.185-4.342-2-8-2.958-.333-2.958-.333-6 0-2.113 3.17-2.26 4.016-2.319 7.655l-.06 2.85-.035 3.07-.059 3.148c-.06 3.321-.106 6.643-.152 9.964-.038 2.251-.077 4.502-.117 6.752-.096 5.52-.181 11.04-.258 16.561h-2c-.102-6.584-.172-13.167-.22-19.751-.02-2.239-.047-4.477-.082-6.716-.048-3.222-.071-6.443-.089-9.666l-.062-3.021c-.002-6.636.293-13.103 7.953-14.471Z"/><path fill="#86C5EA" d="M107 221c3.355 1.342 5.458 2.458 8 5 1.65.707 3.316 1.38 5 2 .313 2.75.313 2.75 0 6-2.56 2.779-4.023 3.913-7.813 4.25L110 238l1.875-.75c2.476-1.456 3.076-2.628 4.125-5.25l2 1v-4H83v4l2.188-.938c2.615-.988 5.063-1.59 7.812-2.062l2 4h15v2l-3.21.148-4.165.227-2.117.094c-4.21.126-4.21.126-7.508 2.531-2.625-.375-2.625-.375-5-1v-2l-2.375-.375C83 235 83 235 81 233v-4h-7v-2l3.875.188c6.293 0 12.397-1.392 17.688-4.875 3.736-2.013 7.284-1.869 11.437-1.313Z"/><path fill="#E6F0FE" d="M83 229h35v4h-2l-1 4 2-1v4H0v-1l3.517-.025c10.919-.077 21.838-.165 32.756-.263 5.614-.05 11.228-.096 16.842-.134 5.414-.037 10.828-.083 16.242-.136 2.07-.019 4.139-.034 6.208-.045 2.89-.017 5.78-.046 8.67-.078l2.614-.007c4.552.136 4.552.136 8.151-2.312a93.85 93.85 0 0 1 7.625-.125l2.14.027c1.746.024 3.49.06 5.235.098v-2l-3.21.105c-1.389.029-2.777.056-4.165.083l-2.117.076c-2.031.029-2.031.029-5.508-.264l-2-3-2.188.438L83 233v-4Z"/><path fill="#86C5EB" d="M410 216h34l1 4a88.406 88.406 0 0 1-5 1l-1-1-1 5h2v-2h2l-2 6h-8v-6h-12v2l3 1v3h-7v-2l-1.75-.75c-2.55-1.417-4.268-3.126-6.25-5.25l2-5Z"/><path fill="#6ABF4C" d="M526.07 189.602c4.383.904 6.495 2.745 8.93 6.398.24 4.331-.253 7.97-2.813 11.5-2.134 1.463-3.642 2.136-6.187 2.5l-1 8h-1v-9l-2.25-.25c-3.46-.944-4.704-1.794-6.75-4.75-.67-4.616-.71-7.624 2-11.5 3.388-2.824 4.816-3.236 9.07-2.898Z"/><path fill="#D4E9FB" d="M225 166c2.938-.438 2.938-.438 6 0 2.467 2.22 2.962 3.436 3.188 6.75L234 175h-4v20h10v-4h4l-1 19-1-2h-19v-1h19l-1-9-18-1c-.046-3.933-.086-7.865-.11-11.798-.015-1.995-.04-3.99-.066-5.985l-.02-3.799-.031-3.507C223 169 223 169 225 166Z"/><path fill="#DFF2F9" d="M467 105h8v23l-2 1-1-21h-3l-1 3h2v41h-2v13h21v1h-20v51h-2V105Z"/><path fill="#F9F9F8" d="M121 131h13v24h-12c-1.063-5.173-1.117-10.124-1.063-15.375l.014-2.52c.012-2.035.03-4.07.049-6.105Z"/><path fill="#81C2E9" d="M187 221c2.887 1.133 5.627 2.438 8.402 3.82 3.285 1.492 6.022 1.942 9.598 2.18v2h-5v5l-5 2-.375-1.875c-.497-2.316-.497-2.316-2.625-4.125 2.169.506 4 1 6 2v-3h-34v3h3l1-2h6l1 3 15-1v3h-15v2l-6 1-1-3-2.375.188L163 235c-2-3-2-3-1.688-5.625C162 227 162 227 163 226c1.39-.322 2.787-.608 4.188-.875 3.038-.632 5.044-1.25 7.812-2.75 4.158-1.906 7.5-2.157 12-1.375Z"/><path fill="#CEE7FD" d="M426 197h30v10h-30v-10Z"/><path fill="#F4FAFC" d="M509 160c2 2 2 2 2.24 4.253l-.013 2.84v3.214l-.032 3.482-.008 3.556c-.011 3.76-.037 7.52-.062 11.28-.01 2.544-.02 5.089-.027 7.633-.022 6.247-.056 12.495-.098 18.742h2l-.254-1.941c-.623-5.29-.77-9.83.254-15.059l.688 1.625c2.277 4.122 4.713 7.842 9.312 9.375v8h-15v-52h-17v-1h18v-4Z"/><path fill="#F4F4F5" d="M474 129h1l1 6h1l.402 2.082.536 2.73.527 2.708c.512 2.594.512 2.594 1.535 5.48l2.75-1.625C486 145 486 145 488.375 145.812L490 147l-1 2-3 1 2 1c1.49 4.234 1.065 8.572 1 13h-12l-1-13-1 13h-2c-1.32-17.33-1.32-17.33-.156-25.996.335-2.076.335-2.076-.844-4.004.938-2.625.938-2.625 2-5Z"/><path fill="#38363A" d="M232 164c2.685 2.96 3.902 4.874 4.25 8.875L236 175h4v20h-10v-20h4c-.86-4.332-.86-4.332-3-8-2-.04-4-.043-6 0-2.594 4.938-2.349 9.893-2.414 15.332l-.059 3.005c-.06 3.159-.106 6.317-.152 9.476l-.117 6.435c-.096 5.25-.181 10.501-.258 15.752h-1c-.101-6.905-.171-13.81-.22-20.715-.02-2.35-.047-4.699-.082-7.048-.048-3.376-.071-6.751-.089-10.128l-.062-3.185c-.002-7.254-.002-7.254 2.259-10.58 3.307-2.026 5.406-2.02 9.194-1.344Z"/><path fill="#CFE9FD" d="m343.563 134.688 2.94.074C349 135 349 135 351 136v2h2c.196 1.603.381 3.208.563 4.813l.316 2.707C354 148 354 148 353 151c-3.28 2.332-5.856 2.089-9.75 1.625l-2.984-.336L338 152v-3h-3a224.84 224.84 0 0 1-.188-4.75l-.105-2.672c.66-5.807 3.324-7.104 8.856-6.89Z"/><path fill="#5A4837" d="M117 128h1v18h2v-14h1l1 23h12v1h-8v5l7 1c-1.3 2.9-2.433 5.086-5 7-4.362.407-8.61.13-13 0v-23h2v-18Z"/><path fill="#372423" d="M318 184c1.938 1.125 1.938 1.125 3 3 .688 3.188.688 3.188 1 6h-2l-.938-2.438c-.825-2.453-.825-2.453-2.062-3.562-2.67-.141-5.324-.042-8 0l-1 6-4 1c-.685 2.858-.685 2.858-1 6 2.613 3.919 4.467 4.078 9 5 2.567-.247 2.567-.247 5-1 1.999-.34 3.999-.674 6-1l.438-3.375C324 196 324 196 325 194c2 2 2 2 2.375 4.875C327 202 327 202 325.437 204.25c-2.997 2.152-5.893 2.814-9.437 3.75l-1 2c1.454-.03 1.454-.03 2.938-.063C321 210 321 210 322 211a90.91 90.91 0 0 1 .098 5.129l-.01 3.135-.026 3.298-.013 3.311c-.012 2.71-.028 5.418-.049 8.127h-4c-1.563-1.875-1.563-1.875-3-4l-3-2c2.313-.25 2.313-.25 5 0l3 4v-20h-70v-1l62-1 1-2-1.863-.332-2.45-.48-2.425-.458c-2.573-.83-3.667-1.557-5.262-3.73-.556-2.704-.43-5.279 0-8 1.375-2 1.375-2 3-3h2l.313-2.875c1.356-6.167 6.406-5.82 11.687-5.125Z"/><path fill="#CFE8FD" d="M345.406 81.453c3.418 2.038 6.68 4.22 9.906 6.547l1.956 1.367c1.617 1.157 3.18 2.39 4.732 3.633v2h-35v-2l5-2v-2c2.23-2.016 2.23-2.016 5.188-4.25l2.917-2.266C343 81 343 81 345.406 81.454Z"/><path fill="#F4F6FA" d="M535 197h1l1 7h8l-1 2c-2.25.379-2.25.379-5 .563-3.308-.028-3.308-.028-6 1.437 5.607.607 11.047 1.042 16.688.813 4.625-.06 7.55.855 11.519 3.164 2.473 1.41 5.076 2.208 7.793 3.023v1c-6.152.098-6.152.098-8 0l-1-1c-1.844-.029-3.689.013-5.531.086l-3.395.133-3.574.156-3.574.133c-5.336-.287-5.336-.287-9.926 1.492-2.67.141-5.324.042-8 0v-8l2.313-.688c3.32-1.62 4.144-2.995 5.687-6.312.707-2.693.707-2.693 1-5Z"/><path fill="#EFF1F1" d="M254 105c6.014-.05 12.028-.086 18.042-.11 2.045-.01 4.09-.024 6.134-.04 2.944-.025 5.888-.037 8.832-.045l2.756-.032c4.824 0 8.705.343 13.236 2.227l-2 3-1.923-.974c-4.14-1.38-7.977-1.381-12.315-1.44l-2.368-.054c-2.902-.062-5.804-.109-8.707-.157L256 107v75l3 1-4 2c-1.708-1.708-1.12-3.86-1.124-6.138l.01-2.227v-2.336c0-2.56.009-5.119.016-7.678l.005-5.31c.003-4.667.013-9.334.024-14.001.01-4.759.015-9.518.02-14.277.01-9.344.028-18.689.049-28.033Z"/><path fill="#3B3533" d="m125.033 126.863 2.405.012 2.392-.012c5.917.01 5.917.01 8.17 1.137v11h3v18l-3 1-1 3v-7h2v-2h-2l2-5h-2l-2 8h-1v-24l-13 1-1 14h-2c-.027-2.98-.047-5.958-.062-8.938l-.026-2.576-.01-2.45-.016-2.27c.267-4.142 3.8-2.897 7.147-2.903Z"/><path fill="#43A128" d="m71.625 189.938 2.477.027L76 190l.367 1.863.508 2.45.492 2.425c.578 2.515.578 2.515 2.633 5.262-.375 2.688-.375 2.688-1 5h-3l-2.121.14c-6.187.293-6.187.293-9.379-1.702-2.001-3.253-2.433-5.625-2.5-9.438 2.35-5.15 4.143-6.14 9.625-6.063Z"/><path fill="#F0EFEF" d="M374.063 165.625C377 166 377 166 379 168c.125 3.625.125 3.625 0 7h-3v19h-1v-7h-3l1 6h-3l.035 3.254c.01 1.436.019 2.872.027 4.309l.026 2.134c.02 4.543-.34 8.82-1.088 13.303h-1c-.076-6.478-.129-12.955-.165-19.434-.015-2.203-.035-4.407-.061-6.61-.037-3.168-.054-6.335-.067-9.503-.015-.985-.03-1.971-.047-2.986v-2.79l-.02-2.45c.678-4.19 2.22-6.088 6.423-6.602Z"/><path fill="#C9E5FD" d="M152 180h38v6h-38v-6Z"/><path fill="#9ED0F3" d="M535 217h36l-1 4h-4v-2l-6-1-1 4c-2.312.027-4.625.046-6.938.063l-3.902.035C545 222 545 222 544 221v2h15v1l-11 1v4c-5.341.438-5.341.438-8 0-1.813-2.375-1.813-2.375-3-5l-3-2 1-5Z"/><path fill="#8ABAD4" d="M222 172h1v25c5.879-.04 5.879-.04 11.758-.09l2.207-.008 2.27-.016C241 197 241 197 242 198v9h-20v-35Z"/><path fill="#84B7DF" d="M489 158h2v7h17v52h-2v-50l-35 1-1 48h-1v-50h20v-8Z"/><path fill="#F6F5F7" d="M81 202h7v2h2v13H72v-8l3.375-1.25c2.618-1.105 3.46-1.499 5.063-3.938L81 202Z"/><path fill="#F1F1F1" d="M481.326 123.886c1.476 0 2.952.006 4.428.016l2.35.005c2.486.005 4.972.018 7.458.03 1.682.006 3.364.01 5.045.014 4.131.011 8.262.028 12.393.049v13h-2v-10h-9l1 4-2 1-3-3-1 5-5-1-1-3-1.898.035c-.818.01-1.635.018-2.477.027l-2.46.036C482 130 482 130 480 129l-2 4h-1c-.098-6.152-.098-6.152 0-8 1-1 1-1 4.326-1.114Z"/><path fill="#95C1E9" d="m302 184 2 1v6h-4c.282 1.96.576 3.918.875 5.875l.492 3.305c.396 2.94.396 2.94 2.633 4.82 2.322.705 4.656 1.372 7 2l2 1v2h-27l-2-7c-1.876-1.45-1.876-1.45-4.125-1.938l-2.195-.652L276 200v-1c3.835-.357 5.553-.298 8.813 1.875C287 203 287 203 288 205l1-3h8l2-17h1v5h3l-1-6Z"/><path fill="#54493D" d="m72 113 1 4 1.813.25c2.917 1 3.727 2.048 5.187 4.75.188 3.25.188 3.25 0 6h2v2h-5v5h-2v-5h-5v5h-2v-5h-5v-2h2l-.25-2.688c.305-4.043 1.374-5.518 4.25-8.312h3v-4Z"/><path fill="#6A6A69" d="M480 129h2v2h2v2c2.967 1.648 5.656 2.443 9 3v5h-2v5l-3.25.438c-2.667.4-5.164.838-7.75 1.562-3.267-4.084-3.352-7.586-3.398-12.598.478-2.882 1.402-4.294 3.398-6.402Z"/><path fill="#8DBCD9" d="M326 186h2v31h9l4 2h-18v8h7v2h-7l-1 4-1-22-6-1c.563-1.875.563-1.875 2-4 2.31-.743 4.646-1.411 7-2 2.317-1.876 2.317-1.876 2.188-4.938-.058-3.103-.058-3.103-1.188-6.062.278-2.34.605-4.676 1-7Z"/><path fill="#B5DCFD" d="M471 167h35v1h-24v10l-1 2h-8v16h-2v-29Z"/><path fill="#1D73AF" d="M393 54c3.403 1.059 6.014 2.009 9 4 1.99.39 3.99.732 6 1v-2c5.75-3 5.75-3 8-3v11h-23V54Z"/><path fill="#E1F0F9" d="m321 95 5 1v97l-5-1-2-7 5 1 1-22h-2v-11l-3-1h5v-5h-2v-11l-4-1 5-1 1-37h-5l1-2Z"/><path fill="#F8F8FB" d="m94 205 5 1v2h14v9H94v-12Z"/><path fill="#F6F9FE" d="M448 82h9v12h-31v-2h21l-1-3h9l-1-2-28-1v-2l22-1v-1Z"/><path fill="#F1F0F1" d="M292 33c3.895 1.37 7.455 3.707 10 7v2c-3 0-3 0-5.188-2L295 38l1.063 1.813C297 42 297 42 296 45l-1.938-2c-4.066-2.656-7.319-2.895-12.062-2-2.908 1.857-2.908 1.857-5 4h-2c.813-1.938.813-1.938 2-4l3-1v-3c-3.628 1.866-3.628 1.866-6 5h-3c3.702-9.424 12.19-9.834 21-9Z"/><path fill="#B5DDFD" d="M164 228h34l1 4h-4l.563 2.438L196 237c-1 1-1 1-3.563 1.063L190 238l-1-5h-14l-1-2c-3.03-.658-3.03-.658-6-1l-1 3-4-1 1-4Z"/><path fill="#99CEEF" d="M474 191h29v6h-29v-6Z"/><path fill="#324C24" d="M402 183c2.447 1.803 3.76 2.939 4.438 5.938.454 2.382.454 2.382 3.125 4.437C412 196 412 196 412.688 199.063 412 202 412 202 409.438 204.313c-3.591 1.762-6.471 2.37-10.438 2.687v11h-2v-11l-3.25-.25c-3.75-.75-3.75-.75-6.188-2.313-2.37-3.697-2.046-6.08-1.562-10.437 1.375-2 1.375-2 3-3h2l.313-2.875c1.3-5.913 5.407-5.68 10.687-5.125Zm-9 4-.938 2.938c-1.16 3.343-2.09 4.279-5.062 6.062.267 2.934.267 2.934 1 6 3.162 2.108 4.507 2.338 8.188 2.625l2.73.227L401 205v-2l2.25.75c2.848.553 2.848.553 5.125-1.375 1.928-2.277 1.928-2.277 1.375-5.125L409 195l-4-1-.938-3.375c-.885-3.42-.885-3.42-2.062-5.625-4.79-.234-4.79-.234-9 2Z"/><path fill="#C6E4FE" d="M410 216h34l1 4-5 1v-3c-2.416-.25-2.416-.25-5 0l-2 3c-3.258.293-3.258.293-7.125.188l-3.883-.083L419 221l-1-2-1 1v4c-4.875-.875-4.875-.875-6-2h-3l2-6Z"/><path fill="#79594A" d="m107 55 4 1v25l7-1v2l-2.375.313c-2.955.463-2.955.463-4.625 3.687h-3v-2l-2-1c-1.224-3.67-.906-6.836-.625-10.625l.148-2.166A284.55 284.55 0 0 1 107 55Z"/><path fill="#FAFAFA" d="M414 203v3l2 1v5l-3.438 1.375c-3.61 1.196-3.61 1.196-4.562 3.625h-8v-10l2.688-.875a92.86 92.86 0 0 0 6-2.25C411 203 411 203 414 203Z"/><path fill="#CBE6FE" d="M83 229h35v4h-2l-2 4h-5l1-3-3.21.105c-1.389.029-2.777.056-4.165.083l-2.117.076c-2.031.029-2.031.029-5.508-.264l-2-3-2.188.438L83 233v-4Z"/><path fill="#87C4EF" d="M446 179h14v11h-14v-11Z"/><path fill="#86C4F0" d="M446 163h14v11h-14v-11Z"/><path fill="#C1E2FD" d="M208 124h14v11h-14v-11Z"/><path fill="#E9F2FE" d="M112 219h132v1l-2.121.025c-6.648.078-13.296.165-19.944.263-3.416.05-6.833.095-10.25.134-3.942.044-7.884.104-11.826.164l-3.656.035c-7.57.13-14.775.91-22.203 2.379v-3h-62v-1Z"/><path fill="#91C3EF" d="M261 178h36v1l-32 1v3l2 1-1 7h-3c-.125-6.75-.125-6.75 1-9l-3 2c-.417 2.715-.417 2.715-.293 5.883l.03 3.535.075 3.707.042 3.73c.035 3.05.084 6.097.146 9.145h-2v-19h-4c-.313-2.688-.313-2.688 0-6 2.438-2.75 2.438-2.75 5-5l1-2Z"/><path fill="#872F2E" d="M271 225h25v6h-25v-6Z"/><path fill="#2E4921" d="M96 175c2.938 1.625 2.938 1.625 5 4 .36 1.996.695 3.995 1 6 1.884 1.317 1.884 1.317 4 2 2.393 2.393 2.32 3.094 2.375 6.375-.09 3.121-.267 4.44-1.875 7.188-3.643 2.094-6.335 1.715-10.5 1.437v-2l6.152-.586L104 199c1.495-2.99 1.116-5.7 1-9l-1-3h-4l-.75-3.313c-.965-3.618-.965-3.618-3-5.687-3.11-1.382-5.021-.912-8.25 0l-2 2v4l3-1v-2l5-1 2 4-5-2v2l-3 1-2 3-5-1c1.32-7.2 1.32-7.2 4.125-10.5 3.773-1.968 6.705-2.326 10.875-1.5Z"/><path fill="#7ABCE8" d="m571 216 29 1v2h-28l-1 4c-2.5 1.188-2.5 1.188-5 2l-1 1c-1.666.04-3.334.043-5 0l-1-3h-15l-1-4 2 1v2h14l1-4 6 1v2l4-1 1-4Z"/><path fill="#87C1E6" d="M344.852 79.02c3.184 1.453 5.804 3.562 8.523 5.73l1.672 1.305c3.712 2.91 7.341 5.912 10.953 8.945l-5 4v-3l-3.15.108c-3.86.13-7.722.253-11.584.374-1.67.053-3.34.109-5.01.166-2.403.082-4.806.157-7.21.23l-2.257.083c-3.424.098-6.52.148-9.789-.961v-2c1.764-1.298 3.59-2.513 5.438-3.688 4.83-3.113 9.281-6.4 13.625-10.16C343 79 343 79 344.851 79.02Zm-7.477 5.855-3.04 2.18L332 89v2l-5 2v2h35v-2c-1.579-1.418-1.579-1.418-3.648-2.82l-2.297-1.621-2.43-1.684-2.406-1.707c-6.272-4.39-7.355-5.004-13.844-.293Z"/><path fill="#76BEE2" d="M365 227c2 2 2 2 2 5h3l1-2c2.375-.125 2.375-.125 5 0l2 2c2.365.3 4.744.495 7.125.625l3.883.227L392 233l1-3c2.438.688 2.438.688 5 2 .875 2.563.875 2.563 1 5-1 1-1 1-3.563 1.063L393 238l-1-3h-14v2c-2.875.625-2.875.625-6 1l-2-2-2.563-.75L365 234c-.875-3.063-.875-3.063-1-6l1-1Z"/><path fill="#D8ECFD" d="M488 201.75c3 .25 3 .25 5 2.25.195 3.04.195 3.04.125 6.625l-.055 3.602L493 217h-10c-.054-2.125-.093-4.25-.125-6.375l-.07-3.586c.267-4.165 1.038-4.943 5.195-5.289Z"/><path fill="#EEE" d="M512 161h1v32l2-1c.658-3.03.658-3.03 1-6h2v4l2 1-1.938 2.125c-2.264 3.156-2.578 5.085-3.062 8.875l-1.016 1.887c-1.15 2.47-1.189 4.155-1.109 6.863l.055 2.422L513 215h-2c-.025-7.53-.043-15.06-.055-22.59-.005-2.563-.012-5.127-.02-7.69a5303.2 5303.2 0 0 1-.023-11.029l-.015-3.497v-3.215l-.007-2.847C511 162 511 162 512 161Z"/><path fill="#F8E2E0" d="M254 213h8v15l-2 1-1 3h-5v-19Z"/><path fill="#E0EEF9" d="M148 119h1v17h6v5h-12v14l-2 1c-1.148-5.869-.773-11.089 0-17l-3-1 2-7h1v6h2l3 3v-10h-7v-2l8-1 1-8Z"/><path fill="#80C1E4" d="M231 141h14v10h-14v-10Z"/><path fill="#C7E3FC" d="M208 141h14v10h-14v-10Z"/><path fill="#7FC1F1" d="M446 124h14v10h-14v-10Z"/><path fill="#7FBEE9" d="M423 124h14v10h-14v-10Z"/><path fill="#83BEE6" d="M231 109h14v10h-14v-10Z"/><path fill="#C5E4FD" d="M208 109h14v10h-14v-10Z"/><path fill="#45AC27" d="M402 185c3 6.75 3 6.75 3 9l4 1c.75 2.25.75 2.25 1 5-1.625 2.375-1.625 2.375-4 4-2.75-.25-2.75-.25-5-1v2h-5v-2l4 1-.563-2.375C399 199 399 199 400 197l-4-1 2.938-1.813c3.293-1.898 3.293-1.898 4.062-5.187-3.355-.765-3.355-.765-7-1-1.964 1.293-1.964 1.293-3 3v-4c3.435-2.29 4.985-2.178 9-2Z"/><path fill="#D98730" d="M117 148h2c1.262 2.525 1.099 4.312 1.063 7.125l-.028 2.758L120 160h2v2h11c-2.64 5.279-2.64 5.279-5 7-3.704.402-7.263.132-11 0v-21Z"/><path fill="#C4E4F9" d="M425 81h33v14h-33V81Zm23 1v1l-22 1v10h31V82h-9Z"/><path fill="#B6DDFD" d="M367 228h34v4l-8-1-1 2c-2.291.054-4.583.093-6.875.125l-3.867.07C378 233 378 233 376 231c-2.57-.648-2.57-.648-5-1l-1 3-4-1 1-4Z"/><path fill="#334427" d="M318 184c1.938 1.125 1.938 1.125 3 3 .688 3.188.688 3.188 1 6h-2l-.938-2.438c-.825-2.453-.825-2.453-2.062-3.562-2.67-.141-5.324-.042-8 0l-1 6-4 1c-.685 2.858-.685 2.858-1 6 2.613 3.919 4.467 4.078 9 5 2.567-.247 2.567-.247 5-1 1.999-.34 3.999-.674 6-1l.438-3.375C324 196 324 196 325 194c2 2 2 2 2.375 4.875C327 202 327 202 325.5 204.25c-5.365 3.756-10.033 4.05-16.313 3.063-3.64-.673-5.973-1.234-8.187-4.313-.556-2.704-.43-5.279 0-8 1.375-2 1.375-2 3-3h2l.313-2.875c1.356-6.167 6.406-5.82 11.687-5.125Z"/><path fill="#222F44" d="M391 50h27v17h-27V50Zm2 3v12h24V52c-4.344-1.086-8.12-1.184-12.563-1.188l-2.326-.037c-3.895-.01-5.798.016-9.111 2.225Z"/><path fill="#74B7E2" d="M348 104c2.91 1.527 5.047 3.354 7 6 .833 3.506.67 6.797.438 10.375l-.096 2.809A246.548 246.548 0 0 1 355 130h5v1h-32v-1l6-1 .078-3.98c.056-1.736.114-3.472.172-5.207l.043-2.62c.203-5.286.658-8.396 4.707-12.193 3.203-1.601 5.453-1.407 9-1Zm-10.84 5.246c-2.68 6.362-1.546 13.992-1.16 20.754h17c.081-2.896.14-5.79.188-8.688l.076-2.474c.058-4.78-.103-7.984-3.264-11.838-2.746-2.078-2.746-2.078-5.313-2.563-3.6.754-5.212 1.973-7.527 4.81Z"/><path fill="#F8FAF9" d="M364 119h21l-1 8c-2-3-2-3-2-5l-3.188.563c-3.383.388-5.576.32-8.812-.563v7h-3v2h-2v5h-1v-17Z"/><path fill="#EEEEF0" d="M474 129h1l1 6h1l.402 2.082.536 2.73.527 2.708c.512 2.594.512 2.594 1.535 5.48a139.441 139.441 0 0 1-1 4 102.94 102.94 0 0 0-.063 5.25l.028 2.703L479 162h-2l-1-11-1 13h-2c-1.32-17.33-1.32-17.33-.156-25.996.335-2.076.335-2.076-.844-4.004.938-2.625.938-2.625 2-5Z"/><path fill="#8AC3DC" d="M149 119h36v16h-2v-14h-32v14h-2v-16Z"/><path fill="#F6F5F6" d="M108 190h1l1 9 3 1v8c-2.25.054-4.5.093-6.75.125l-3.797.07c-3.193-.18-4.863-.397-7.453-2.195l-1-2 2.082-.621 2.73-.816 2.708-.81c1.835-.557 3.66-1.146 5.48-1.753l1-10Z"/><path fill="#DBDCDC" d="M547 105c2.375 1.375 2.375 1.375 4 3v2h-3v5h2l-1 3h-2l-1 3h-3c-1.943-5.7-1.943-5.7-2.438-8.313L540 111l-3-1c2.315-5.125 4.431-5.446 10-5Z"/><path fill="#D77F37" d="M200 58h24v3h-8v2l8-1v3h-24v-2h14v-2h-14v-3Z"/><path fill="#EBEBEB" d="M365 155h4l.625 2.375c1.182 2.934 1.182 2.934 4.5 3.938L377 162v1l-3.313.688c-3.655.967-3.655.967-5.385 3.22-1.93 4.585-1.782 8.934-1.814 13.862l-.054 3.14c-.054 3.3-.088 6.601-.122 9.903-.033 2.241-.067 4.483-.103 6.724-.085 5.488-.153 10.975-.209 16.463h-1v-62Z"/><path fill="#A7D3F0" d="M342 135c6.75-.125 6.75-.125 9 1v2h2c.196 1.603.381 3.208.563 4.813l.316 2.707C354 148 354 148 353 151c-3.202 2.237-5.81 2.194-9.625 1.875l-2.914-.195C338 152 338 152 336.664 150.133 336 148 336 148 336 145h2l1.188 2c1.757 2.394 1.757 2.394 5.312 2.313 3.47-.175 3.47-.175 6.5-1.313v-3h-7v-5h2v2h4c-1.156-2.539-1.156-2.539-3-5-2.591-.887-2.591-.887-5-1v-1Z"/><path fill="#E6EFF6" d="M185 119h1l.184 3.395.254 4.418.119 2.236c.187 3.182.43 5.913 1.443 8.951h5l-1-8h-5v-3c2.333-.042 4.667-.04 7 0 1 1 1 1 1.098 3.941L195 141h-16v-5h6v-17Z"/><path fill="#595250" d="M311 228c4.723 1.491 4.723 1.491 6.125 4.063L318 234l3 1c-3.086 2.269-4.422 3.055-8.313 2.688L310 237v-2l-1.688 1.5c-2.733 1.773-4.114 2.005-7.312 1.5l-2-3c.875-2.688.875-2.688 2-5 2.25-.25 2.25-.25 5 0 2.313 2 2.313 2 4 4l-.063-2.438C310 229 310 229 311 228Z"/><path fill="#9CCEEE" d="M153 126c4.292-.087 8.583-.14 12.875-.188l3.707-.076 3.535-.029 3.27-.048L179 126l2 3h-2v3h-19v-2l-8-1 1-3Z"/><path fill="#81C2E8" d="M557.152 209.828c1.342.69 2.671 1.406 3.985 2.149 2.51 1.378 5.128 2.203 7.863 3.023v1c-6.152.098-6.152.098-8 0l-1-1a83.431 83.431 0 0 0-4.91-.098l-2.998.01-3.154.025-3.167.014c-2.59.012-5.18.028-7.771.049 5.403-5.79 11.416-8.148 19.152-5.172Z"/><path fill="#87C1ED" d="M182 147h10v12h-10v-12Z"/><path fill="#89C2EE" d="M150 147h10v12h-10v-12Z"/><path fill="#E9C7C0" d="M263 213h17v7h-17v-7Z"/><path fill="#CBE6FD" d="M443 145h17v7h-17v-7Z"/><path fill="#CDE7FE" d="M425 145h17v7h-17v-7Z"/><path fill="#88C3ED" d="M166 147c6.934-.098 6.934-.098 9 0 1 1 1 1 1.133 3.25l-.008 2.75.008 2.75C176 158 176 158 175 159c-3.003.142-5.992.042-9 0v-12Z"/><path fill="#303E25" d="M526.07 189.602c4.383.904 6.495 2.745 8.93 6.398.24 4.331-.253 7.97-2.813 11.5-2.134 1.463-3.642 2.136-6.187 2.5l-1 8h-1v-9l-2.25-.25c-3.46-.944-4.704-1.794-6.75-4.75-.67-4.616-.71-7.624 2-11.5 3.388-2.824 4.816-3.236 9.07-2.898ZM519 194c-2.065 2.95-2.607 5.446-2 9 2.468 3.266 3.956 4.783 8 5.625 4.107-.856 5.554-2.244 8-5.625.637-4.032.698-6.017-1.688-9.375-4.752-3.34-7.73-3.216-12.312.375Z"/><path fill="#E7F2FE" d="M323 219h85l-1 2h-13v2l-1.648-.5c-2.728-.58-5.19-.56-7.977-.5-5.154.11-5.154.11-7.375-1a98.5 98.5 0 0 0-5.184-.205l-3.276-.06-3.548-.051-3.623-.063c-3.831-.066-7.663-.125-11.494-.184l-7.777-.13c-6.366-.108-12.732-.21-19.098-.307v-1Z"/><path fill="#79BFE5" d="M426 197h30v10h-30v-10Zm2 1v7h27v-7h-27Z"/><path fill="#83C1EE" d="M166 162h10v11h-10v-11Z"/><path fill="#7FBFED" d="M182 162h10v11h-10v-11Z"/><path fill="#81C0EC" d="M150 162h10v11h-10v-11Z"/><path fill="#E9F2FF" d="M0 219h104v1h-6v2l-3-1a271.51 271.51 0 0 0-9.061-.205l-2.81-.03c-3.067-.032-6.135-.057-9.203-.081l-6.377-.063c-5.598-.056-11.196-.105-16.793-.153-5.711-.05-11.422-.106-17.133-.161-11.208-.108-22.415-.21-33.623-.307v-1Z"/><path fill="#C1B29D" d="M404 95h2v33h-3c-.925-4.716-1.23-7.673 1-12h-2a672.997 672.997 0 0 1-.063-4.75l-.035-2.672c.09-2.36.429-4.323 1.098-6.578h-2c.613-2.962 1.254-4.38 3-7Z"/><path fill="#703E34" d="M106 84v5c-2.557 1.279-4.367 1.113-7.227 1.098l-3.125-.01-3.273-.025-3.297-.014A2489.57 2489.57 0 0 1 81 90l1-3c3.443-1.148 6.714-1.582 10.313-2.063l3.925-.535A74.127 74.127 0 0 1 106 84Z"/><path fill="#85BEEE" d="M326 145h1l1 12h32v1h-32v28h-2v-41Z"/><path fill="#A2A1A2" d="M498 129c3 1 3 1 4.168 2.785 1.803 4.8 1.537 9.645-.543 14.278L500 148h-2v-2l-2-1c-.942-2.827-1.135-4.632-1.125-7.563l-.008-2.378C495 133 495 133 496 131h2v-2Z"/><path fill="#7FBBE4" d="M232 164h13v10l-9 1-.621-1.898-.816-2.477-.81-2.46c-.705-2.175-.705-2.175-1.753-4.165Z"/><path fill="#D6EAFE" d="M223 199h17v6h-17v-6Z"/><path fill="#D1E9FD" d="M425 110h17v6h-17v-6Z"/><path fill="#D2EAFE" d="M535 217h36l-1 4h-4v-2l-6-1v2c-2.765 1.382-5.046 1.095-8.125 1.063l-3.32-.028L546 221l-1-2h-6l-1 2-3-1v-3Z"/><path fill="#45392B" d="M574 170c8.833-.564 15.785.737 24 4v3c-5.912.257-11.181-.704-16.938-2l-2.65-.578c-2.139-.468-4.276-.942-6.412-1.422l2-1v-2Z"/><path fill="#E3EFFC" d="M157 136h20v5h-20v-5Z"/><path fill="#EEE" d="M255 105c5.872-.05 11.743-.086 17.615-.11 1.996-.01 3.992-.024 5.988-.04 2.875-.025 5.749-.037 8.624-.045l2.69-.032c4.772 0 8.598.373 13.083 2.227l-2 3-1.909-.988c-4.233-1.386-8.123-1.26-12.548-1.207l-2.736.008c-2.873.011-5.746.037-8.62.062-1.952.01-3.904.02-5.857.027-4.777.022-9.553.057-14.33.098v-3Z"/><path fill="#FAFCFF" d="M431 97h20v5h-20v-5Z"/><path fill="#A3D3F8" d="M330 96h31l-1 4c-4.27.029-8.542.047-12.813.063l-3.681.025-3.526.01-3.253.016C334 100 334 100 331 99l-1-3Z"/><path fill="#E5F2FE" d="M446 219c2.841-.286 5.463-.378 8.305-.34l2.602-.002c2.846.002 5.692.026 8.538.049a3728.02 3728.02 0 0 1 21.485.087c5.296.03 10.591.044 15.886.06 10.395.032 20.79.083 31.184.146l-1 2h-84l-1 2-4-1 2-3Z"/><path fill="#8BC4ED" d="M152.848 195.902 159 196v11h-9a757.916 757.916 0 0 1-.063-4.938l-.035-2.777c.12-2.787.153-3.235 2.946-3.383Z"/><path fill="#D4D4D4" d="M482 134c1.442 2.884 1.588 5.824 2 9v-8c3.273 0 5.847.3 9 1v5h-2v5c-6.401.483-6.401.483-8.938-1.563-1.424-3.266-1.328-5.914-1.062-9.437l1-1Z"/><path fill="#397D2A" d="m318 188 2 1v4l4-1c1.374 3.818.68 7.073 0 11a210.497 210.497 0 0 1-3.75 1.563l-2.11.878c-2.44.637-3.78.361-6.14-.441l6-3-1-2h3l-1-3h-4v2h-2l1-4 5-1-1-6Z"/><path fill="#D8D5B6" d="M378 177h6v16h-6v-16Z"/><path fill="#E6C7BD" d="M232 177h6v16h-6v-16Z"/><path fill="#8CC5EC" d="M276 199c3.835-.357 5.553-.298 8.813 1.875C287 203 287 203 288 205l1-3h9v8h-12l-.5-3.313c-1.069-3.692-1.069-3.692-3.414-4.82A57.585 57.585 0 0 0 276 200v-1Z"/><path fill="#F0F4F7" d="M197 117h4v24l-4-1v-23Z"/><path fill="#D9AC73" d="M364 99c1.605 3.21.824 6.633.563 10.125L364 117h25v13l3 1-5 1v-14l-5.215.035-6.723.028-3.443.025-3.271.01-3.031.016C363 118 363 118 362 117a169.13 169.13 0 0 1-.188-7.938l-.037-2.248c-.005-1.94.103-3.878.225-5.814l2-2Z"/><path fill="#46A72C" d="M75 190v3l-8 2v3l3-2h3v2c-1.977.73-3.98 1.394-6 2l-2-1c.344 2.473.344 2.473 1 5l2 1-2 1c-2.613-1.931-3.04-3.156-3.875-6.375-.139-4.027.404-5.513 2.875-8.625 3.215-1.607 6.436-1.057 10-1Z"/><path fill="#CAE6FC" d="M211 197h9v10h-9v-10Z"/><path fill="#D6EBFE" d="M444 110h15v6h-15v-6Z"/><path fill="#8B604F" d="m566 147 3 1v20h-2v3h4v2l-11-1v-1h6l-1-3c-.3-7.04-.321-14.064 1-21Z"/><path fill="#71BCDE" d="M149 135h36v1h-6v6h19v1c-13.112.84-25.897 1.04-39 0v-1h18v-6h-28v-1Z"/><path fill="#82C0EB" d="M184 196h8v11h-8v-11Z"/><path fill="#E4E4E3" d="m491 129 1 4h3c1.589 3.178 1 6.494 1 10l1 2h-4l-1-3-1 4v-5h2l-1-5-2.313.188C487 136 487 136 485.188 134.625 484 133 484 133 484 131l-2-1c2.957-1.478 5.742-1.06 9-1Z"/><path fill="#6B433F" d="M114 83c2.377.238 4.753.476 7.129.719 1.86.182 3.722.35 5.586.5 4.434.373 8.24.758 12.285 2.781v3c-5.734.391-10.574-.792-16.11-2.266-3.3-.838-6.51-1.35-9.89-1.734l1-3Z"/><path fill="#F5941F" d="M72.438 118.563C75 119 75 119 76.811 121.25 78 124 78 124 78 128H67c.96-8.634.96-8.634 5.438-9.438Z"/><path fill="#9ACDF4" d="M503 203v8h-7v6h-3v-13c3.473-1.158 6.36-1.069 10-1Z"/><path fill="#A6CDEA" d="M423 79c2 2 2 2 2.195 5.258L425 95l27 1v6h-1v-5h-20v5h-2v-5h-6V79Z"/><path fill="#91C9F1" d="m273 200 3 1-1.438 1.125c-2.084 2.501-2.208 4.69-2.562 7.875h-9v-8c.957-.09.957-.09 1.934-.184l2.503-.254c.824-.08 1.648-.162 2.497-.246 2.053-.105 2.053-.105 3.066-1.316Z"/><path fill="#6DCE47" d="m530 193 2 4-3.375.25c-3.683.329-3.683.329-5.063 2.813L523 202l3 1-5 2v-2l-3-1c.322-2.897.614-5.319 2.063-7.875 3.198-1.857 6.292-1.304 9.937-1.125Z"/><path fill="#6F6F6B" d="M262 230h5l1 4h31v1l-2.722.06c-3.329.078-6.657.165-9.986.257-1.44.039-2.882.074-4.324.105-2.07.045-4.14.103-6.21.164l-3.777.095c-3.096.016-3.096.016-4.981 2.319-2.625.125-2.625.125-5 0l1-2-2-1 1-5Z"/><path fill="#E8E7E8" d="M565 177v1l-10 1-1 29h-1l-1-26h-8l-1-3c4.12-4.12 16.675-2.073 22-2Z"/><path fill="#311E12" d="m262 228 7 1v4h29l1-4c1-1 1-1 3.813-1.188 3.054.18 4.625.611 7.187 2.188v4l-3-1-1-2h-5l-2 4-31-1-2-4c-2.034-1.268-2.034-1.268-4-2Z"/><path fill="#C24049" d="m245 224 9 1v7h5v1c-2.146.027-4.292.046-6.438.063l-3.62.035C246 233 246 233 245 232c-.141-2.67-.042-5.324 0-8Z"/><path fill="#C6E5FD" d="M424 181h11v7h-11v-7Z"/><path fill="#C7E5FD" d="M424 165h11v7h-11v-7Z"/><path fill="#82C2EC" d="M208 124h14v11h-14v-11Zm1 2v7h11v-7h-11Z"/><path fill="#E0E4E4" d="m406 188 1 2 2.875.438c3.395.61 4.196.804 6.125 3.562.293 3.137.293 3.137.188 6.688l-.083 3.574L416 207l-3-1v-1h-3l-2-1 4-2c-.85-5.584-.85-5.584-4.125-9.813L406 191v-3Z"/><path fill="#368A24" d="M96 177c2.679 2.606 3.916 4.054 4.25 7.813L100 187h4l-1 2c-4.692-1.482-4.692-1.482-6.188-4L96 183c-1.839-2.287-1.839-2.287-4.625-2.125L89 181v2c-2 1.625-2 1.625-4 3-.366-5.494-.366-5.494 1.313-7.813 3.4-2.392 5.858-2.495 9.687-1.187Z"/><path fill="#F2F2F2" d="M97 170c3.024.588 6.018 1.227 9 2v5h-4v2l-6-3c-5.607-.214-5.607-.214-11 1l-1-3 2-2 1 2h9l1-4Z"/><path fill="#5B595A" d="M292 33c3.895 1.37 7.455 3.707 10 7v2c-3 0-3 0-5.5-2.438L294 37c-4.615-1.538-9.18-1.528-14-1-3.002 1.801-4.452 2.903-6 6h-3c3.702-9.424 12.19-9.834 21-9Z"/><path fill="#81C8DE" d="m571 216 29 1v2h-28l-1 4-4-2 3-1 1-4Z"/><path fill="#C6E8FE" d="m181 193 10 2v1h-7v11l3 1h-4v9h-2l-.076-1.804c-.116-2.69-.239-5.38-.362-8.071l-.119-2.84-.127-2.715-.11-2.507c-.088-2.125-.088-2.125-1.206-4.063h2v-2Z"/><path fill="#EAEAEA" d="M386 133h1c1.194 40.827 1.194 40.827 1 60h-2v-18l-4-1 3-2-1-2 1-2c.073-1.854.084-3.71.063-5.566l-.024-3.413-.078-7.085c-.044-6.412.171-12.582 1.039-18.936Z"/><path fill="#ECF4FB" d="M326 205v12h-4l-1-6-6-1c.5-1.938.5-1.938 2-4 2.955-.768 5.939-1 9-1Z"/><path fill="#D9EDFE" d="m329 111 4 1v17h-4v-18Z"/><path fill="#CBE6FD" d="M448 181h10v7h-10v-7Z"/><path fill="#F3F4F3" d="M305 176h3v3h12v2l-8 1 4 2-6.055 1.367c-2.152.538-2.152.538-3.945 2.633-1.625-2.063-1.625-2.063-3-5 .813-3.813.813-3.813 2-7Z"/><path fill="#CCE7FE" d="M448 165h10v7h-10v-7Z"/><path fill="#CDE8FD" d="M233 126h10v7h-10v-7Z"/><path fill="#7EBCE2" d="M231 125h14v10h-14v-10Zm2 1v7h10v-7h-10Z"/><path fill="#BDE3FD" d="M233 110h10v7h-10v-7Z"/><path fill="#524C2F" d="M198 53c2 2 2 2 2 11h26l-1 3c-4.312.029-8.625.047-12.938.063l-3.732.025-3.545.01-3.285.016C199 67 199 67 198 66a153.02 153.02 0 0 1-.063-6.563l.028-3.628L198 53Z"/><path fill="#3F3C3B" d="M376 176h2v17h6v-17h1v19h-9v-19Z"/><path fill="#F9E3E0" d="M249 213h4v12h-7c.508-4.318 1.197-8.033 3-12Z"/><path fill="#433D3E" d="m556.875 172.938 2.375.013c1.917.012 3.833.03 5.75.049l-1 3-12 1v1h-11l1-4c5.016-1.018 9.786-1.119 14.875-1.063Z"/><path fill="#CEECFF" d="M471 168c2 2 2 2 2.195 3.945L473 178h8v2h-8v16h-2v-28Z"/><path fill="#F0F0F3" d="m408 206-3 1 1 7 3 1-1 2h-8v-10c5.75-2.125 5.75-2.125 8-1Z"/><path fill="#18222F" d="m231 164-1.813.813c-3.498 1.899-4.92 3.387-6.187 7.187a78.954 78.954 0 0 0-.205 4.471l-.06 2.73-.051 2.936-.063 3.014c-.066 3.178-.125 6.357-.184 9.536l-.13 6.463c-.107 5.284-.21 10.567-.307 15.85h-1c-.101-6.905-.171-13.81-.22-20.715-.02-2.35-.047-4.699-.082-7.048-.048-3.376-.071-6.751-.089-10.128l-.062-3.185c-.002-7.254-.002-7.254 2.274-10.603 2.852-1.729 4.906-1.619 8.179-1.321Z"/><path fill="#F49227" d="M401 108h1c.323 6.053.523 10.78-3 16l-3 2v-5l-7-1 2-4h10v-8Z"/><path fill="#DBEBFE" d="M432 104h19v2l4 1h-29v-1h6v-2Z"/><path fill="#575556" d="M549 95c4.238 1.541 7.1 3.541 10 7v2h-2l-5-5c-4.652-1.55-9.153-1.75-14-1-2.243 1.362-3.861 2.787-5.66 4.688C531 104 531 104 529 104c3.583-9.12 11.442-9.678 20-9Z"/><path fill="#D4ECFE" d="m471 205 2 1c.625 2.063.625 2.063 1 4l6 1v6h-9v-12Z"/><path fill="#8EBDE9" d="M492 200c1.703 1.11 1.703 1.11 3 3 .293 3.137.293 3.137.188 6.688l-.083 3.574L495 216h-1v-12c-4.491-.602-4.491-.602-9-1-1.878 1.878-1.391 5.04-1.563 7.563l-.253 3.628L483 217h-2a295.772 295.772 0 0 1-.25-6.25l-.14-3.516c.39-3.234.39-3.234 2.183-5.629 3.173-2.307 5.385-2.091 9.207-1.605Z"/><path fill="#D1E8FD" d="M209 182h11v6h-11v-6Z"/><path fill="#CFE9FD" d="M209 166h11v6h-11v-6Z"/><path fill="#CFE9FE" d="M424 126h11v6h-11v-6Z"/><path fill="#F5F5F8" d="m516 205 7 4v8h-7v-12Z"/><path fill="#2C2324" d="m118 128 2 1c2.88.233 5.741.42 8.625.563l2.43.13c1.981.107 3.963.207 5.945.307v7l-2-1-1-4h-13l-1 14h-2v-18Z"/><path fill="#7FBEE6" d="M348 104c2.91 1.54 5.063 3.332 7 6 .702 3.541.357 6.81-.063 10.375l-.24 2.809c-.2 2.277-.432 4.545-.697 6.816h-1l-.148-3.797-.227-4.953c-.03-.825-.062-1.65-.094-2.5l-.117-2.422-.095-2.222c-.367-2.421-1.02-4.032-2.319-6.106-3.268-2.179-4.21-2.722-8-2-1.885 1.858-3.378 3.895-5 6h-2c2.245-6.923 5.673-9.118 13-8Z"/><path fill="#D4E9FE" d="M375 229h18l-1 4c-2.27.108-4.541.186-6.813.25l-3.832.14L378 233l-3-4Z"/><path fill="#7DC1E8" d="M208 141h14v10h-14v-10Zm1 2c-.04 2-.043 4 0 6h11v-7a757.916 757.916 0 0 0-4.938-.063l-2.777-.035c-2.25-.161-2.25-.161-3.285 1.098Z"/><path fill="#F8FAFE" d="M175 235h14l2 4h-18v-2h2v-2Z"/><path fill="#C2E1FE" d="m393.125 224 1.875 1v2h-19v-2c5.309-3.09 11.377-2.84 17.125-1Z"/><path fill="#C3E2FE" d="M188 223c3.188 1.438 3.188 1.438 5 3v1h-19l1-3c3.915-1.958 8.721-1.364 13-1Z"/><path fill="#83BEE9" d="M423 180h14v10h-14v-10Zm1 1v7h11v-7h-11Z"/><path fill="#80C1EA" d="M208 109h14v10h-14v-10Zm1 1v7h11v-7h-11Z"/><path fill="#F09537" d="m370 94 2 1-1.938 2.313c-2.204 2.57-2.204 2.57-3.062 5.687h-2v13h22v1h-23l-.188-7.688-.082-2.393c-.054-4.534.434-7.356 3.27-10.919l3-2Z"/><path fill="#D6E9FE" d="M173 229h18l-2 4h-14l-2-4Z"/><path fill="#392215" d="m139 147-2 5h2v2h-2v7l-1-4h-7v4l4 1h-10l3-1v-5l8-1 .375-3.438L135 148c2-1 2-1 4-1Z"/><path fill="#665051" d="M119 127c2.792-.027 5.583-.047 8.375-.063l2.406-.025c5.992-.025 5.992-.025 8.219 1.088v10h-1v-8h-17l-1-3Z"/><path fill="#FDF1CD" d="m381.5 88.875 3.531-.008C388 89 388 89 390 90v2l2-1v-2h5v5c-1.688.688-1.688.688-4 1l-2.156-1.469c-3.604-1.94-6.68-1.867-10.656-1.719l-2.1.042c-1.696.035-3.392.088-5.088.146v-2c2.852-1.426 5.325-1.132 8.5-1.125Z"/><path fill="#F8FBFE" d="M378 235c2.27-.108 4.541-.186 6.813-.25l3.832-.14L392 235l3 4h-18l1-4Z"/><path fill="#636771" d="M231 164c3.123 2.518 3.945 3.726 4.75 7.75L236 175l4 1c-2 1-2 1-8 1l-1 18h-1v-20h4c-.62-3.465-.62-3.465-2-7-2.496-1.518-2.496-1.518-5-2l4-2Z"/><path fill="#D4EAFE" d="M418 217h16l-1 4h-14l-1-4Z"/><path fill="#ECEDED" d="m51 200 2 1-1 6 2-1v-6c3 0 3 0 4.563 1.5L60 203h2l2 4c-1.813 1.063-1.813 1.063-4 2l-3-1c-2-.04-4-.044-6 0-.8-3.287-1.097-4.71 0-8Z"/><path fill="#CCE9FE" d="M233 143h10v6h-10v-6Z"/><path fill="#D4EAFE" d="M448 126h10v6h-10v-6Z"/><path fill="#D1E7FE" d="m558.063 212 1.937 1v2h-18v-2c5.147-2.941 10.498-2.817 16.063-1Z"/><path fill="#C2E0FF" d="M112 225v2H93c5.636-5.636 11.927-4.76 19-2Z"/><path fill="#F0F4F5" d="m300 202 1.563 1.375c3.014 2.01 5.947 2.72 9.437 3.625l2 1v2h-13v-8Z"/><path fill="#8CC3F0" d="m166 192 2 2-1.938 1.313c-2.434 1.992-2.933 3.488-3.267 6.588l-.111 2.11-.127 2.296-.12 2.38-.13 2.417c-.106 1.965-.207 3.93-.307 5.896h-2a616.786 616.786 0 0 1-.25-9.188l-.102-2.619c-.065-4.254-.046-6.55 2.243-10.244C164 193 164 193 166 192Z"/><path fill="#4A302A" d="M107 55h3v25h-1l-.586-6.055c-.278-2.172-.278-2.172-2.414-3.945a88.12 88.12 0 0 1 .375-7.625l.172-2.14c.141-1.746.296-3.49.453-5.235Z"/><path fill="#91C8F0" d="M485 180h7v8h-7v-8ZM496 180h7v8h-7v-8Z"/><path fill="#7CB9E7" d="M496 170h7v8h-7v-8Z"/><path fill="#79B9E6" d="M474 170h7v8h-7v-8Z"/><path fill="#45503E" d="m390 203 11 2v-2l5 2v1l-7 1v11h-2v-11l-7-1v-3Z"/><path fill="#89C6EE" d="M226 197c2.48-.027 4.958-.047 7.438-.063l2.142-.025c1.807-.009 3.614.036 5.42.088 1 1 1 1 1 10l-19-1v-1h17v-6l-14-1v-1Z"/><path fill="#C7E5FE" d="M83 229c2.208-.054 4.417-.093 6.625-.125l3.727-.07c3.591.192 6.315.892 9.648 2.195l-1 2c-3.375.125-3.375.125-7 0l-2-2c-2.394.278-2.394.278-5 1l-5 1v-4Z"/><path fill="#E6ECEE" d="M140 131h1v6h2v18l-2 1c-1.148-5.869-.773-11.089 0-17l-3-1 2-7Z"/><path fill="#8BC5E6" d="M155 136h2v5h20v1l-20 1v2h-2l-1-2h-11v-2h12v-5Z"/><path fill="#3A4934" d="m90 201 12 1v1l-8 2-1 12h-2l-.148-2.555-.227-3.32c-.07-1.09-.14-2.181-.21-3.305-.148-2.95-.148-2.95-2.415-4.82h2v-2Z"/><path fill="#BAE6FE" d="M262 182h2l-.496 3.871c-.564 5.079-.618 10.087-.567 15.191l.014 2.624c.012 2.104.03 4.21.049 6.314h-2c-.225-4.291-.427-8.583-.625-12.875l-.195-3.707-.157-3.535-.158-3.27C260 184 260 184 262 182Z"/><path fill="#DE8446" d="M214 61h2v2l8-1v3h-24v-2h14v-2Z"/><path fill="#83C4E8" d="M393 230c2.438.688 2.438.688 5 2 .875 2.563.875 2.563 1 5-1 1-1 1-3.563 1.063L393 238l-1-3-7-1v-1h7l1-3Z"/><path fill="#1F3F23" d="m324 194 3 2c.53 3.489.475 5.288-1.5 8.25-3.35 2.346-6.439 3.564-10.5 3.75-3.46-.695-6.706-1.745-10-3v-1c2.952-.069 5.566-.111 8.438.625 3.535.517 6.214-.509 9.562-1.625.723-4.481.723-4.481 1-9Z"/><path fill="#EDEBED" d="M535 197h1l1 7h8l-1 2c-2.521.316-5.016.38-7.555.46-3.145.694-3.696 1.935-5.445 4.54-2.688.75-2.688.75-5 1v-3l2.313-.688c3.32-1.62 4.144-2.995 5.687-6.312.707-2.693.707-2.693 1-5Z"/><path fill="#BCE5FD" d="M295 182h2c2.584 3.876 2.04 6.81 1.688 11.25l-.147 2.238c-.316 4.543-.845 9.013-1.541 13.512h-1v-7h-7v-1h8l-2-19Z"/><path fill="#D6ECFE" d="M338 145h13v3c-3.695 2.463-5.633 2.39-10 2-1.938-1.375-1.938-1.375-3-3v-2Z"/><path fill="#504F50" d="M548 100c2.61 1.1 4.64 2.393 7 4v3c-2 0-2 0-3.5-1.438L550 104c-3.196-1.598-6.531-1.513-10-1-2.85 1.878-2.85 1.878-5 4h-2c2.926-7.071 7.862-8.138 15-7Z"/><path fill="#E8E6E7" d="m543.438 96.75 2.87-.016c2.718.269 4.367.88 6.692 2.266l-1 3-1.684-.504c-3.348-.717-6.57-.464-9.976-.336C538 101 538 101 535 99c3.34-2.227 4.533-2.271 8.438-2.25Z"/><path fill="#1B75BD" d="M395 58h5v2h11c-3 3-3 3-6.313 3.125L401 63c-2.006.292-4.01.612-6 1v-6Z"/><path fill="#CEE7FE" d="M434 213v1h-18c5.303-5.303 11.566-4.86 18-1Z"/><path fill="#C8E9FE" d="M168 193c7.5.615 7.5.615 9.61 2.24 1.802 2.28 1.738 3.547 1.683 6.428l-.03 2.705c-.024.929-.05 1.858-.076 2.815l-.04 2.85A611.503 611.503 0 0 1 179 217h-1l-1-18-7-3v-2l-2-1Z"/><path fill="#82BCE6" d="M240 180h5v10h-5v-10Z"/><path fill="#686667" d="M290 38c3.5 1.25 3.5 1.25 6 3 .875 2.188.875 2.188 1 4l-2.438-2c-3.988-2.646-7.913-2.892-12.562-2-2.908 1.857-2.908 1.857-5 4h-2c2.973-7.184 7.817-7.92 15-7Z"/><path fill="#FDFCFD" d="M513 198c3.609 6.702 4.219 11.588 3 19h-3c-.695-6.512-1.32-12.551 0-19Z"/><path fill="#72BCE5" d="m409 214 26 1v1l-25 1-2 4-1-2a108.817 108.817 0 0 0-7-1v-1h8l1-3Z"/><path fill="#8CC8F0" d="M474 203h6v8h-6v-8Z"/><path fill="#69B34D" d="M533 196c.366 6.35.366 6.35-1.375 9.438C530 207 530 207 528 207v-2h2l-2-6-5 2c.563-1.938.563-1.938 2-4 2.737-.576 5.196-1 8-1Z"/><path fill="#B7E2FF" d="M184 149h6v8h-6v-8Z"/><path fill="#C9E6FD" d="M168 149h6v8h-6v-8Z"/><path fill="#C6E6FD" d="M152 149h6v8h-6v-8Z"/><path fill="#E0E0E0" d="M281 105c2.542-.054 5.083-.094 7.625-.125l2.16-.05c4.476-.042 7.994.484 12.215 2.175l-2 3-1.98-.96c-3.813-1.313-7.329-1.493-11.332-1.665l-2.245-.117A784.84 784.84 0 0 0 280 107l1-2Z"/><path fill="#6AB8E4" d="m362 93 4 2-5 4v-3h-34v-1h35v-2Z"/><path fill="#2BA6C7" d="M397 52h16c-6.25 5-6.25 5-10 5-3.313-1.875-3.313-1.875-6-4v-1Z"/><path fill="#3B5330" d="m520 190 2 1-2 3.188c-1.766 3.105-2.588 5.183-2 8.812.916 2.251.916 2.251 2 4h2v2c-5.23-2.344-5.23-2.344-7-5-.863-6.577-.863-6.577 1.125-9.855C517.5 192.5 517.5 192.5 520 190Z"/><path fill="#6A5847" d="M284 48h5l1 5-2 1c-.656 2.527-.656 2.527-1 5h-2c-1.63-4.122-2.263-6.707-1-11Z"/><path fill="#2E9215" d="M323 196v6l-4 1-2-3h3l-1-3h-4v2h-2c.375-1.938.375-1.938 1-4 3.2-1.6 5.723-.032 9 1Z"/><path fill="#388B25" d="m309 187 2 1-.656 1.68-.844 2.195-.844 2.18c-.763 1.919-.763 1.919-.656 3.945l-2 1-1 3 4 2c-2.375-.188-2.375-.188-5-1-1.438-2.313-1.438-2.313-2-5 .625-2.25.625-2.25 2-4 2.125-.75 2.125-.75 4-1l1-6Z"/><path fill="#D7EAFC" d="M235 166h8v6h-7l-1-6Z"/><path fill="#BDE0F4" d="M545 223h14v1l-11 1v4h-8l-1-3 2.438-.375L544 225l1-2Z"/><path fill="#FDFCFA" d="M263 214h9v5h-9v-5Z"/><path fill="#F5F5F7" d="M373 173h6v2h-3l-1 10h-3c-.027-1.625-.046-3.25-.063-4.875l-.035-2.742C372 175 372 175 373 173Z"/><path fill="#ECECEB" d="M553 145h1l1 28h-6l-1-3h5v-25Z"/><path fill="#604D39" d="M488 135c1.675.286 3.344.618 5 1v5h-2v5h-2c-1.596-3.49-2.32-6.154-2-10l1-1Z"/><path fill="#EEE" d="M280 126h9v2h-7l1 6 5 1v1h-8v-10Z"/><path fill="#A3A2A2" d="M404 95h2v15h-2l-1-8h-2c.613-2.962 1.254-4.38 3-7Z"/><path fill="#F9FCFE" d="M95 236h14v3H94l1-3Z"/><path fill="#2B1E1A" d="M285 226h11v4h-11v-4Z"/><path fill="#2B1E18" d="M272 226h11v4h-11v-4Z"/><path fill="#7CBFDF" d="M189.348 221.906c1.926.951 3.795 2.014 5.652 3.094-3 1-3 1-4.844.082L188 224c-2.682-.352-2.682-.352-5.5-.313l-2.844-.05c-3.039.415-4.397 1.343-6.656 3.363l-3-2c6.45-3.753 12.06-5.907 19.348-3.094Z"/><path fill="#C5E7FF" d="m165 195 2 1-2 3c-.364 2.025-.364 2.025-.414 4.23l-.117 2.432-.094 2.525-.117 2.561A970.068 970.068 0 0 0 164 217h-2c-.081-2.73-.14-5.457-.188-8.188l-.076-2.33c-.06-4.702.3-7.6 3.264-11.482Z"/><path fill="#EBEBE9" d="M391 172h1l1 9 3-4 3 1-2 4 3 1-3.375.875c-3.628.817-3.628.817-5.625 3.125v-15Z"/><path fill="#934A42" d="M574 170c12.67-.369 12.67-.369 18 2v3l-8.79-1.465L580 173l-6-1v-2Z"/><path fill="#613B2B" d="M129 157h7c.688 2.313.688 2.313 1 5-1.25 1.625-1.25 1.625-3 3l-1.688 1.688L131 168l-2-2 3-2 1-3h-4v-4Z"/><path fill="#5C4E47" d="m139 143 2 1v13l-3 1-1 3v-7h2v-2h-2l2-5h-2v-2h2v-2Z"/><path fill="#525151" d="M482 131h2v2l2 1-1 1c-.146 3.366-.072 5.784 1 9l-3-1-1-7c-.18 3.947-.094 6.598 2 10l-3-1c-1.17-2.34-1.166-3.834-1.188-6.438l-.042-2.37C480 134 480 134 482 131Z"/><path fill="#41555C" d="M542 110h5v6h-2v5h-2c-1.63-4.122-2.263-6.707-1-11Z"/><path fill="#DAD8D8" d="M81 202h7v2l2 1c-1.894 1.894-3.845 3.42-6 5v-7h-2l-1 5-6 1 2.438-2.375C79.987 204.28 79.987 204.28 81 202Z"/><path fill="#7CBDE3" d="m414 218 5 1v2h13v1h-13l-1 3-5 1-3-5h2l1 2c2.025.652 2.025.652 4 1-.573-2.867-.861-3.861-3-6Z"/><path fill="#F9F4F1" d="M304 213h7v6h-7v-6Z"/><path fill="#F9F1EC" d="M289 213h7v6h-7v-6Z"/><path fill="#CAE9FE" d="M488 201.75c3 .25 3 .25 5 2.25.125 2.625.125 2.625 0 5l-1-4-6-1-2 13h-1c-.054-2.125-.093-4.25-.125-6.375l-.07-3.586c.267-4.165 1.038-4.943 5.195-5.289Z"/><path fill="#F8F8F8" d="M112 201c0 2 0 2-1.563 4.188C108 207 108 207 104.25 206.75L101 206l1-4c3.38-1.04 6.478-1.08 10-1Z"/><path fill="#F9F8F7" d="M406 186h9v7c-1.319-.397-2.63-.818-3.938-1.25l-2.214-.703L407 190l-1-4Z"/><path fill="#D1EAFD" d="M184 164h6v7h-6v-7Z"/><path fill="#C2E6FF" d="M152 164h6v7h-6v-7Z"/><path fill="#CFEAFD" d="M168 164h6v7h-6v-7Z"/><path fill="#331F1B" d="M567 143h3v26l-3-1h2l-1-16h-1v-9Z"/><path fill="#F9F4F0" d="M281 214h7v6c-2 .043-4 .04-6 0-1-1-1-1-1.063-3.563L281 214Z"/><path fill="#83C0E5" d="M211 197h9v2h-7v7h7v1h-9v-10Z"/><path fill="#694036" d="m566 147 3 1v20l-2-1v-5h-1v-15Z"/><path fill="#A4D3F5" d="M190 230c2.438.688 2.438.688 5 2 .875 2.563.875 2.563 1 5-1 1-1 1-3.563 1.063L190 238c-1.097-3.29-.8-4.713 0-8Z"/><path fill="#ECEDEC" d="M104 204v2l7 1v1c-1.916.054-3.833.093-5.75.125l-3.234.07c-2.966-.192-4.568-.56-7.016-2.195l-1-2c3.283-1.642 6.425-.519 10 0Z"/><path fill="#E9E9E8" d="M375 178h1v16h-1v-7h-3l1 6h-3v-8h5v-7Z"/><path fill="#266111" d="m84 180 2 4 3-1v-2l5-1 2 4-5-2v2l-3 1-2 3-5-1 3-7Z"/><path fill="#D8873B" d="M72.5 118.688 75 119l2 3h-7l-1 5h8l1-3v4H67c.972-8.746.972-8.746 5.5-9.313Z"/><path fill="#655954" d="m260 228 6 1-1.938.75c-2.25 1.066-2.25 1.066-2.812 3.375L261 235l3 1-3 1-1-1a199.878 199.878 0 0 0-7.563-.563l-2.154-.13c-1.76-.107-3.522-.207-5.283-.307v-1l14-1 1-5Z"/><path fill="#89C6E7" d="M179 199h1l1 17 8 1-1 2h-10l1-20Z"/><path fill="#594A30" d="m72 113 1 4 1.875.25C77 118 77 118 78.25 120.063L79 122l-2 2-2-4c-3.717-.349-3.717-.349-6.813 1.5L67 123c0-4 0-4 2-6h3v-4Z"/><path fill="#E8E9E9" d="m377 167 2 1v5h-6l-1 7h-2v-9h7v-4Z"/><path fill="#93C9F3" d="M413 217c2.313.188 2.313.188 4 1v6c-4.875-.875-4.875-.875-6-2h-3c2.25-2.563 2.25-2.563 5-5Z"/><path fill="#6E4743" d="M121 149h1v6h12v1h-8v4l-5-1v-10Z"/><path fill="#4E4D4E" d="M496 131h2c2.6 3.9 2.15 7.474 2 12l-2 1v-3l-3 3a888.223 888.223 0 0 1-.063-5.375l-.035-3.023C495 133 495 133 496 131Z"/><path fill="#83C0E4" d="M198 227h7v2h-5v5l-5 2-.375-1.875c-.497-2.316-.497-2.316-2.625-4.125 2.169.506 4 1 6 2v-5Z"/><path fill="#C53A3E" d="M309.313 224.25 311 225v2h6v1c-6 1.811-9.213 2.502-15 0 4.43-4.062 4.43-4.062 7.313-3.75Z"/><path fill="#FCF5F2" d="M297 213h6v6h-6v-6Z"/><path fill="#A7D4F5" d="m372 232 5 1 1 4-6 1-2-3 2-3Z"/><path fill="#FEFEFD" d="M90 205v12l-4-1a195.61 195.61 0 0 1-.188-4.375l-.105-2.46L86 207c3-2 3-2 4-2Z"/><path fill="#C2E4FE" d="M152 198h5v7h-5v-7Z"/><path fill="#C2E2FE" d="M185 198h5v7h-5v-7Z"/><path fill="#E1E2DF" d="M76 184h4l-2 4H65l1-2c2.285-.414 2.285-.414 5.063-.625l2.785-.227L76 185v-1Z"/><path fill="#E7E7E6" d="m477 143 3 3c-.245 2.013-.602 4.012-1 6-.1 3.335-.06 6.664 0 10h-2v-19Z"/><path fill="#EEE" d="M280 111h12l-1 5-1-3h-8l-1 4h-1v-6Z"/><path fill="#C1E3F1" d="m432 223 2 1v2l6-1v-2h2l-2 6h-8v-6Z"/><path fill="#492C36" d="m246 211 4 1-4 12h-2l2-13Z"/><path fill="#EAE9E9" d="M317 206h5v2h2v4l-9-2 2-4Z"/><path fill="#EEEEED" d="M107 170h1v10l-7 1 1-4h4l-.063-2.938C106 171 106 171 107 170Z"/><path fill="#F9F7FB" d="M164 137h11v3h-12l1-3Z"/><path fill="#F8931B" d="m390 119 8 1-2 1v5h-2l-1-3-4 1 1-5Z"/><path fill="#F59743" d="M376 91c7.562-.447 12.763-.536 19 4-3.178 1.057-4.767.977-7.813-.375-3.77-1.55-7.14-2.203-11.187-2.625v-1Z"/><path fill="#A6D6F4" d="M112.625 230.875 115 231c.043 1.666.04 3.334 0 5-1 1-1 1-3.563 1.063L109 237l1-3-2-1c2-2 2-2 4.625-2.125Z"/><path fill="#C6E4FE" d="M556 217h15l-1 4h-4v-2l-6-1-1 2v-2l-3-1Z"/><path fill="#415234" d="m72.25 187.75 3.266.11L78 188c-3.572 1.96-6.898 2.648-10.879 3.34-2.429.756-3.489 1.746-5.121 3.66 0-3 0-3 1.61-5.172 3.078-2.354 4.813-2.244 8.64-2.078Z"/><path fill="#515151" d="M498 129c3 1 3 1 4.168 2.785 1.803 4.8 1.537 9.645-.543 14.278L500 148h-2l.938-1.5c1.464-3.445 2.152-6.747 2.062-10.5-1.317-2.837-1.317-2.837-3-5v-2Z"/><path fill="#434242" d="M541 95c6.856-.355 11.012.405 16.375 5.063C559 102 559 102 559 104h-2l-1.938-2.313C551.365 97.743 546.102 97.1 541 96v-1Z"/><path fill="#5A595A" d="m290 43 3 2v3h-2v-2c-5.797-.244-5.797-.244-11 2 .375-1.938.375-1.938 1-4 3.019-1.51 5.673-1.175 9-1Z"/><path fill="#E6E5E6" d="M301 230h5v5c-3.75 1.125-3.75 1.125-6 0l1-5Z"/><path fill="#E4E5E4" d="M262 230h5v5c-3.75 1.125-3.75 1.125-6 0l1-5Z"/><path fill="#E7E7E7" d="m312 230 5 1-1 5-5-1 1-5Z"/><path fill="#512F2B" d="M302.813 227.813c3.054.18 4.625.61 7.187 2.187v4l-3-1-1-2h-5l-1 2h-2c1.116-4.941 1.116-4.941 4.813-5.188Z"/><path fill="#E9EEF4" d="m534.723 208.902 3.34.036 3.347.027L544 209v2c-2.5 1.625-2.5 1.625-5 3v-3l-2.875.625L533 212l-2-2c1-1 1-1 3.723-1.098Z"/><path fill="#2F7217" d="M396 187c4.75.875 4.75.875 7 2l-1 4-7-2 1-4Z"/><path fill="#80BCEC" d="M474 180h7v6l-1-4h-4v5l2 1h-4v-8Z"/><path fill="#7CBAE7" d="M485 170h6l-1 2-3-1v5h3l1-3v5h-6v-8Z"/><path fill="#F5F6FE" d="M180 137h5v2h7c-2 2-2 2-4.383 2.195l-2.742-.07-2.758-.055L180 141v-4Z"/><path fill="#7DBCE7" d="M486 200c5.44-.363 5.44-.363 7.688 1.094 1.957 2.843 1.6 5.19 1.5 8.594l-.083 3.574L495 216h-1v-12l-8-2v-2Z"/><path fill="#ADD9F9" d="M485 169h7v9l-2-2h-3v-5l4-1h-6v-1Z"/><path fill="#F8F8F8" d="m511 127-1 4-1-2h-3l-1 3-3-1v-4c3.069-1.534 5.7-.55 9 0Z"/><path fill="#6EA2C4" d="M571 216c2.875-.125 2.875-.125 6 0l2 2c-1 1-1 1-4.063 1.063L572 219l-1 4-4-2 3-1c.733-2.015.733-2.015 1-4Z"/><path fill="#FDF1EC" d="M312 213h5v6h-5v-6Z"/><path fill="#FEFEFC" d="M274 214h6v5h-6v-5Z"/><path fill="#C6E3FD" d="M280 200v2l2 1-9 2v5h-1c-.329-3.619-.446-5.395 1.75-8.375C276 200 276 200 280 200Z"/><path fill="#77B8F0" d="M271 180c1.984 2.917 1.988 4.124 1.625 7.75L272 191h-3c-.286-7.429-.286-7.429 2-11Z"/><path fill="#261A13" d="m139 147-2 5h2v2h-2v7h-1v-5l-2-1c.256-2.343.593-4.678 1-7 2-1 2-1 4-1Z"/><path fill="#BFE1F0" d="m419 223 1 2 3 1v3h-7v-2l-2-1 5-3Z"/><path fill="#4CA633" d="m391 193 1 2-2 2c.014 2.057.014 2.057 1 4 1.984 1.284 1.984 1.284 4 2-2.875.188-2.875.188-6 0-2-3-2-3-1.813-5.563C388 195 388 195 391 193Z"/><path fill="#B8E3FE" d="M289 181c3 1 3 1 4 3 .04 2.333.043 4.667 0 7h-3l-1-10Z"/><path fill="#4C9C3E" d="M402 185c2 3 2 3 1.625 5.188L403 192v-3c-3.355-.765-3.355-.765-7-1-1.964 1.293-1.964 1.293-3 3v-4c3.45-2.3 4.946-2.431 9-2Z"/><path fill="#FAFAF9" d="M482 127h12l-1 3h-11v-3Z"/><path fill="#93C1EC" d="m353 109 2 1-1 20h-1c-.196-3.312-.38-6.625-.563-9.938l-.17-2.865-.146-2.724-.143-2.524C352 110 352 110 353 109Z"/><path fill="#D8EDFE" d="M237 111h6v5h-8l3-1-1-4Z"/><path fill="#545152" d="M547 105c2.375 1.375 2.375 1.375 4 3v2l-1.625-1c-3.972-1.672-7.346-1.343-11.375 0l1-3c2.81-1.405 4.888-1.249 8-1Z"/><path fill="#C9E5FD" d="M344.688 104.75 347 105v3h-3l1 3-6-2c2.338-3.938 2.338-3.938 5.688-4.25Z"/><path fill="#D0E8FF" d="M99 223c6.125-.438 6.125-.438 9 1v2H97l2-3Z"/><path fill="#47553D" d="m95 175-1.688.813c-2.401 1.194-2.401 1.194-4.937 2.812C86 180 86 180 84 180l-1 5c-.75-1.688-.75-1.688-1-4 3.914-5.804 6.17-6.126 13-6Z"/><path fill="#B14739" d="m565 173-1 3h-14c5.065-2.532 9.313-3 15-3Z"/><path fill="#8CC2E8" d="M245 141v9h-2v-7h-10v-1c1.625-.168 3.25-.334 4.875-.5l2.742-.281C243 141 243 141 245 141Z"/><path fill="#332B25" d="M82 87h8v1l5 1v1H81l1-3Z"/><path fill="#E2E1DE" d="M521 186c3.375.25 3.375.25 7 1l2 4-10-2 1-3Z"/><path fill="#7BBCF2" d="M263 181h2v2l2 1-1 7h-3v-10Z"/><path fill="#E3F5FD" d="M182 121h1v13l-1-2h-3l.563-1.875c.674-2.167.674-2.167-.563-4.125h2l1-5Z"/><path fill="#ADADAB" d="m403 119 3 1v8h-3c-1.125-6.75-1.125-6.75 0-9Z"/><path fill="#DAD0C1" d="M392 89h5v5c-1.75.688-1.75.688-4 1-2.25-1.438-2.25-1.438-4-3l3-1v-2Z"/><path fill="#5E5B5C" d="m306 231 4 4c-2.253 2.002-3.606 2.944-6.625 3.375L301 238l-2-3h6l1-4Z"/><path fill="#BDDFFE" d="M546 212v2l14-1v2h-18v-2c2-1 2-1 4-1Z"/><path fill="#E4E3E6" d="m386 202 3 3-1 2a121.305 121.305 0 0 0-.563 5.125l-.253 2.758L387 217h-2c-.027-2.312-.046-4.625-.063-6.938l-.035-3.902C385 203 385 203 386 202Z"/><path fill="#DBDDDD" d="m319 185 5 1 1 7-4-1-2-7Z"/><path fill="#DCDCDA" d="m315.688 178.938 2.449.027L320 179v2l-8 1 4 2-7 1-1-5c2.882-.96 4.699-1.106 7.688-1.063Z"/><path fill="#C6EAFE" d="M460 143h2v3h2v7l-3 1-1-11Z"/><path fill="#256EA1" d="M393 54c2.02.602 4.021 1.273 6 2l1 2h-6v7h-1V54Z"/><path fill="#DC393F" d="M299 224h6v2l2 1-3.875.438c-2.382.268-3.97.484-6.125 1.562l2-5Z"/><path fill="#EFF0F0" d="M539 192h6l-1.438 1.188c-1.914 2.22-2.175 3.946-2.562 6.812h-2v-8Z"/><path fill="#BBE6FE" d="M273 182h2v9h-3c-.125-6.75-.125-6.75 1-9Z"/><path fill="#443A3C" d="M590 173c5.75-.125 5.75-.125 8 1v3h-7l1-3-2-1Z"/><path fill="#B5DCFB" d="M475 171h5v5h-5v-5Z"/><path fill="#2E3B4D" d="m231 164-1.813.813c-3.646 1.979-4.904 3.427-6.375 7.375L222 175h-1c-.483-6.276-.483-6.276 1.625-9.438 2.978-1.958 4.879-1.88 8.375-1.562Z"/><path fill="#F2F2F0" d="M365 163h4c-.672 3.806-1.727 7.352-3 11h-1v-11Z"/><path fill="#EEE" d="M311 152h2v12h-2c-1.032-3.095-.975-4.526-.563-7.688l.31-2.449L311 152Z"/><path fill="#9F9F9F" d="M486 148c2.625.375 2.625.375 5 1v6h-3l-.875-1.938c-.953-2.214-.953-2.214-3.125-3.062l2-2Z"/><path fill="#4C4846" d="M311 207h4v3h6v1c-4.053.982-7.839 1.082-12 1l4-4-2-1Z"/><path fill="#E6E5E6" d="m516 205 4 3-2 8h-2v-11Z"/><path fill="#3A8C2A" d="m104 189 2 1c.25 6.625.25 6.625-2 10-1.945.293-1.945.293-4.125.188L96 200v-1l7-2c.597-2.763 1-5.16 1-8Z"/><path fill="#B1B478" d="M234 184h3v8h-3v-8Z"/><path fill="#AAD7F7" d="M476 182h4l1 6-5-1v-5Z"/><path fill="#D8ECFC" d="M185 150h4v6h-4v-6Z"/><path fill="#A7A7A7" d="M403 131h4v6h-4v-6Z"/><path fill="#D8EDFD" d="M211 127h5l2 4h-7v-4Z"/><path fill="#D18E35" d="M401 108h1v9c-4 2-4 2-6.25 1.625L394 118v-2h7v-8Z"/><path fill="#403F3F" d="M283 38c5.199-.312 8.616.077 13 3 .664 2.11.664 2.11 1 4l-1.54-1.059c-4.154-2.746-7.369-4.56-12.46-4.941v-1Z"/><path fill="#7FB9E2" d="M119 229h1c.313 2.25.313 2.25 0 5-2.57 2.717-4.053 3.916-7.813 4.25L110 238l1.875-.75c2.476-1.456 3.076-2.628 4.125-5.25l3 1v-4Z"/><path fill="#D3D3D2" d="M534 202c.75 1.688.75 1.688 1 4-1.945 3.218-3.102 4.735-6.75 5.813L526 212v-3l2.313-.688c3.234-1.58 4.103-3.145 5.687-6.312Z"/><path fill="#84C3ED" d="M429 209c3.916.783 7.364 2.392 11 4-1.375 1.5-1.375 1.5-3 3h-2v-3l-7-2 1-2Z"/><path fill="#DCEDFB" d="M223 190c3 0 3 0 4.688 1.375C229 193 229 193 229 195l-6 1v-6Z"/><path fill="#E0DEDF" d="m102 182 1 2c2.322.407 4.657.744 7 1l-1 3c-3.528 0-4.468-.643-7-3v-3Z"/><path fill="#C2E6FF" d="M420 163h3v10c-2-3-2-3-2-6h-2l1-4Z"/><path fill="#DAEBFF" d="M234 143h6l-3 1v3h5v1h-8v-5Z"/><path fill="#D9D8D9" d="m296 37-1 3-12-2v-1c8.429-1.286 8.429-1.286 13 0Z"/><path fill="#A74144" d="M319 223h2v9l-2 1-2-5h2v-5Z"/><path fill="#88C6EA" d="M184 222v1l-1.898.367-2.477.508-2.46.492c-2.352.5-2.352.5-4.165 2.633l-3-2c4.945-2.924 8.183-4.745 14-3Z"/><path fill="#E8F2FC" d="M416 207c.188 2.375.188 2.375 0 5-3 2-3 2-5.188 1.625L409 213h3l.375-2.438L413 208c2-1 2-1 3-1Z"/><path fill="#46B31F" d="M72 199h5l1 5-7-2 1-3Z"/><path fill="#1E4D06" d="M316 194c2.063.75 2.063.75 4 2l1 3h-2v-2h-4v2h-2c.375-1.938.375-1.938 1-4l2-1Z"/><path fill="#CAE4FA" d="M173 189h8c-3.856 3.977-3.856 3.977-7.113 4.043-1.976-.263-3.934-.646-5.887-1.043v-1l5-1v-1Z"/><path fill="#273C1B" d="M312 184c5.418-.361 5.418-.361 7.813 1.125 1.61 2.542 1.858 4.915 2.187 7.875h-2l-.875-2.375c-1.607-3.75-3.543-4.954-7.125-6.625Z"/><path fill="#D2D0D3" d="m407 102 5 1-1 3h-4l-1 4c-.125-5.75-.125-5.75 1-8Z"/><path fill="#88C0E5" d="M365 227c2 2 2 2 2 5l3 1v2l-5-1a128.624 128.624 0 0 1-1-6l1-1Z"/><path fill="#D7EBFE" d="M96 230h6v3h-7l1-3Z"/><path fill="#B9DEFE" d="M110 229h8v4l-8-2v-2Z"/><path fill="#CACCC8" d="M108 190h1l.184 1.898.254 2.477.246 2.46c.207 2.208.207 2.208 1.316 4.165l-7 1 1-2h2l1-10Z"/><path fill="#22570A" d="m73 193 2 4-2.313-.063c-2.789-.066-2.789-.066-5.687 1.063v-3c3-2 3-2 6-2Z"/><path fill="#C5C5C4" d="m85 172 2 2c2.44.243 2.44.243 5.125.125l2.758-.055L97 174l1 2-2.082-.035-2.73-.028-2.708-.035c-2.614-.012-2.614-.012-5.48 1.098l-1-3 1-2Z"/><path fill="#D64044" d="M129 157h7v3h-7v-3Z"/><path fill="#9DCEEC" d="M336 145h2c4 4.47 4 4.47 4 7h-4c-1.46-2.647-2-3.894-2-7Z"/><path fill="#E8E8E6" d="M104 76c1.765 3.088 2 4.233 2 8l-4-1v-3h2v-4Z"/><path fill="#C6474E" d="M317 212h3v8h-2l-1-8Z"/><path fill="#E68083" d="M381 177h3v4l-5 1c.875-3.875.875-3.875 2-5Z"/><path fill="#5D473D" d="M554 174c-3.996 2.83-7.427 1.762-12 1v-1c4.333-.928 7.667-.928 12 0Z"/><path fill="#BBE5FF" d="M497 171h4v5h-4v-5Z"/><path fill="#8BB6D6" d="M231 167c1.5 1.188 1.5 1.188 3 3 .188 2.688.188 2.688 0 5h-3v-8Z"/><path fill="#3E4F64" d="M233.25 165.563c2.17 3.022 2.081 4.796 1.75 8.437l-.875-1.813c-1.909-3.711-3.32-5.538-7.125-7.187 2.885-1.236 3.606-1.274 6.25.563Z"/><path fill="#ED9A3D" d="m399 117 3 1c-2.625 5.75-2.625 5.75-6 8v-5l3-1v-3Z"/><path fill="#C1E5FE" d="m89 232 5 1v3h-5v-4Z"/><path fill="#D0EAFF" d="M366 229h6l-2 4-4-1v-3Z"/><path fill="#CDE9FF" d="M163 229h6l-2 4-4-1v-3Z"/><path fill="#E14C54" d="M246 225h7v3h-2l-1 2v-2h-2v-2l-2-1Z"/><path fill="#B1DCFB" d="M291 203h3v5h-4l1-5Z"/><path fill="#B0DEFE" d="M268 181h2l-1 10h-1v-5h-2l2-5Z"/><path fill="#1D4608" d="M93.125 180.125 95 181l1 3-5-2v2l-3-1c2.427-3.034 2.427-3.034 5.125-2.875Z"/><path fill="#DA3A39" d="m247 226 1 2h5v3h-6v-5Z"/><path fill="#C4E7FE" d="m414 219 3 1v4h-4l1-5ZM434 220h5l-1 4-4-1v-3Z"/><path fill="#DEE3E9" d="M306 190v2a125.024 125.024 0 0 1-6 4v-5c2.076-.553 3.844-1 6-1Z"/><path fill="#D4ECFD" d="M240 182h3v6h-3v-6Z"/><path fill="#DEECFC" d="M154 165h3v6h-3v-6Z"/><path fill="#FAFAFA" d="M486 145c2.125.938 2.125.938 4 2l-1 2c-2.563.625-2.563.625-5 1v-4l2-1Z"/><path fill="#F7F9FD" d="M148 137h6v3h-6v-3Z"/><path fill="#CDE2EF" d="M175 126c2.438.375 2.438.375 5 1l1 2c-3.29 1.097-4.713.8-8 0l2-1v-2Z"/><path fill="#C98C35" d="M376 105h5l-1 4-4-1v-3Z"/><path fill="#EDA34F" d="M397 98c3.015 2.01 3.838 2.707 5 6-.375 2.25-.375 2.25-1 4-2.952-2.952-3.087-5.955-4-10Z"/><path fill="#C9E7FD" d="M394 232h4v4l-5-1 1-3Z"/><path fill="#C8E8FE" d="m561 220 4 1v3l-5-1 1-3Z"/><path fill="#6C4B4F" d="m246 211 4 1-2 6c-2-3-2-3-2-7Z"/><path fill="#DFDEDE" d="M306 206c4.75.875 4.75.875 7 2v2l-6-1-1-3Z"/><path fill="#2A411B" d="M305 204c4.468-.213 7.823.409 12 2l-2 2-10-3v-1Z"/><path fill="#6ACF41" d="m522 200 1 2 3 1-5 2v-2h-2v-2l3-1Z"/><path fill="#F8F7FA" d="M412 193c2.378 2.378 2.59 3.72 3 7l-1 2h-2v-9Z"/><path fill="#2B540E" d="M525 197c1.938.313 1.938.313 4 1l1 3h-2v-2l-5 2 2-4Z"/><path fill="#4A613D" d="m520 190 2 1-4 7-2-4 4-4Z"/><path fill="#E8E8E7" d="m56 190 7 1c-2 2-2 2-5 3v-2h-2v-2Z"/><path fill="#69B3F2" d="M299 184h3l1 6h-3l-1-6Z"/><path fill="#3B542D" d="M316 185v1l-3.438.375L309 187l-1 2v-4c2.862-1.43 4.934-.6 8 0Z"/><path fill="#C6D8E3" d="M233 163c-1 1-1 1-4.563 1.063L225 164v-2c3.403-1.215 4.933-.862 8 1Z"/><path fill="#FAFAFB" d="M501 158h5v4h-4l-1-4Z"/><path fill="#A1A1A2" d="M478 138c2.236 2.236 2.838 4.096 4 7l2 2-4 1-2-10Z"/><path fill="#98C8E8" d="M341 136c-1.372 2.954-2.989 5.44-5 8 .256-2.343.593-4.678 1-7 2-1 2-1 4-1Z"/><path fill="#E4E4E3" d="M477 125h2l1 6-3 2v-8Z"/></svg>