<?xml version="1.0" encoding="UTF-8"?>
<svg version="1.1" xmlns="http://www.w3.org/2000/svg" width="159" height="72">
<path d="M0 0 C0.74991211 0.23323975 1.49982422 0.46647949 2.27246094 0.70678711 C5.41055743 2.10692479 6.93327482 3.21425451 9 6 C10.60353029 12.74753457 9.83778858 20.00721372 9.5625 26.875 C9.51733352 28.82282484 9.47627269 30.7707495 9.43945312 32.71875 C9.34048618 37.48163458 9.18532948 42.23972529 9 47 C10.32 47 11.64 47 13 47 C13 33.47 13 19.94 13 6 C27 8 27 8 30.921875 12.02734375 C31.91149554 13.63613164 32.85444536 15.27451198 33.75 16.9375 C34.24242188 17.76185547 34.73484375 18.58621094 35.2421875 19.43554688 C36.14722132 20.95753681 37.03359007 22.49091641 37.89355469 24.03881836 C38.85229283 25.73818806 39.91768962 27.37653443 41 29 C41.22705078 31.63549805 41.22705078 31.63549805 41.1953125 34.76171875 C41.18886719 35.87998047 41.18242188 36.99824219 41.17578125 38.15039062 C41.15064453 39.90125977 41.15064453 39.90125977 41.125 41.6875 C41.11597656 42.86634766 41.10695313 44.04519531 41.09765625 45.25976562 C41.07406423 48.17338026 41.0411454 51.08658892 41 54 C41.60730957 54.15927979 42.21461914 54.31855957 42.84033203 54.48266602 C49.29709744 56.28254983 54.98555087 58.76153905 60.875 61.9375 C61.70257813 62.36740234 62.53015625 62.79730469 63.3828125 63.24023438 C67.55548009 65.45780529 70.73268025 67.53025147 74 71 C64.40882011 70.37462822 54.87105413 69.50652308 45.3125 68.5 C6.87739439 64.5752178 -31.80296541 64.9107977 -70.12475586 70.03442383 C-75.13979322 70.70295217 -79.93972153 71.15440517 -85 71 C-77.31167559 62.55976122 -64.77157711 57.3094358 -54 54 C-53.01 54 -52.02 54 -51 54 C-51.10211792 53.01326294 -51.10211792 53.01326294 -51.20629883 52.0065918 C-52.62924376 36.07431937 -51.16469248 26.07740207 -41.0390625 13.47265625 C-35.0237256 6.41847158 -35.32128357 7.89558209 -23 6 C-23 19.53 -23 33.06 -23 47 C-21.68 47 -20.36 47 -19 47 C-19.0628418 45.794646 -19.12568359 44.58929199 -19.19042969 43.34741211 C-19.40839757 38.85518242 -19.54563526 34.36341261 -19.65917969 29.86743164 C-19.71936289 27.92587611 -19.80114193 25.98486097 -19.90527344 24.04516602 C-20.5818819 11.11332103 -20.5818819 11.11332103 -19 6 C-14.09155503 0.59096661 -7.10806123 -2.81640162 0 0 Z " fill="#000000" transform="translate(85,1)"/>
</svg>
