<svg xmlns="http://www.w3.org/2000/svg" width="400" height="260"><path fill="#487CC7" d="M0 0h400v260H0V0Z"/><path fill="#F9FBFD" d="M258 15c3.507 2.046 5.74 4.104 7 8 .335 4.099.325 5.512-2 9-2.313.688-2.313.688-5 0-2.031-2.466-3.49-5.194-5-8l-1.813-3L250 19l-4 1-1 5 5 1v2c3.588 1.866 7.278 3.425 11 5-1 3-1 3-2.688 4.188-3.033 1.065-5.107 1.197-8.312.812-4.989-2.543-6.687-5.018-9-10-2.771-.054-5.541-.094-8.313-.125-.785-.017-1.57-.034-2.38-.05l-2.295-.02-2.11-.032c-2.233.121-2.233.121-4.902 2.227l-1 13h60V29h1v14l6.824-.14c2.191-.032 4.382-.056 6.573-.08 1.518-.02 3.036-.047 4.554-.082 2.187-.049 4.373-.071 6.56-.089l3.984-.063c4.017.52 5.64 1.668 8.505 4.454l-1 3-.94-1.966c-3.192-3.152-6.784-2.604-11.03-2.58l-2.78-.031c-3.035-.03-6.07-.031-9.105-.032a3204.4 3204.4 0 0 0-22.925-.129c-5.651-.02-11.302-.062-16.952-.102-11.09-.075-22.179-.123-33.268-.16v37l9 1 4 2 3-3 2 1-2 2c.201 2.92 1.069 4.08 3 6.313 2.42 3.252 2.687 5.697 3 9.687l1.688.227c6.947 1.197 12.365 3.83 16.664 9.582 2.67 4.465 3.79 8.422 3.836 13.566l.042 2.21C264 129 264 129 262 135h32v1h-15c.084 12.856.18 25.712.288 38.569.05 5.969.096 11.938.134 17.907.037 5.758.083 11.516.136 17.273.019 2.2.034 4.4.045 6.6.017 3.074.046 6.148.078 9.223l.007 2.772c.01.837.022 1.674.034 2.537l.016 2.204c.165 2.242.165 2.242 2.262 4.915l-4-2V136h-18l-2 4c-1.586 1.668-1.586 1.668-3.375 3.188l-1.773 1.542c-4.246 2.911-9.234 2.44-14.2 2.475l-2.544.03c-2.77.032-5.54.057-8.311.081l-5.767.063c-5.057.056-10.114.105-15.171.153-5.161.05-10.323.106-15.484.161-10.125.108-20.25.21-30.375.307l-.375 2.375C160 153 160 153 158 155c-2.139.24-2.139.24-4.817.227h-3.033l-3.283-.032-3.354-.008c-3.546-.011-7.092-.037-10.638-.062-2.4-.01-4.8-.02-7.2-.027-5.891-.022-11.783-.056-17.675-.098l.105 3.785c.124 4.448-1.078 6.861-4.105 10.215-2.75.875-2.75.875-5 1l.063-2.813c.095-3.21.095-3.21-1.063-6.187h-2l-1 2h-1l1 7h-3v18l6 1c3.386 3.16 4.698 5.023 6.063 9.438-.085 4.795-1.252 6.688-4.063 10.562-2.973 2.442-6.254 2.36-10.035 2.254-2.921-.378-4.708-1.395-6.965-3.254-2.536-4.211-2.814-8.2-2-13 1.37-2.728 2.638-3.9 5-6 2.676-.656 2.676-.656 5-1-.06-3.065-.147-6.124-.25-9.188l-.043-2.619c-.205-5.358-.755-8.248-4.707-12.193-1.433-2.866-1.306-4.813-1-8 2.268-4.283 4.42-7.23 9-9 5.462 0 5.462 0 8 1l1.915 2.52c4.618 3.712 8.756 3.107 14.51 2.968l3.342-.021c3.516-.028 7.03-.09 10.546-.155 2.386-.025 4.772-.047 7.158-.068A2034 2034 0 0 0 157 153l3-6-3.5-.125c-6.508-.818-11.053-5.068-15.313-9.813-5.393-7.55-6.088-13.851-5.187-23.062.75-2.64 1.654-4.59 3-7-1.438.115-2.876.242-4.313.375l-2.425.21c-2.534.31-2.534.31-5.262 2.415l2-4h12l2-4c4.808-4.436 9.811-8 16.5-8 3.558-.592 3.558-.592 4.742-3.004a726.18 726.18 0 0 0 2.313-5.281c2.795-5.252 7.524-9.235 12.804-11.91 7.79-2.374 16.606-1.737 23.797 2.047 2.484 1.547 4.738 3.11 6.844 5.148v2h6l-1-14 2 1 .012-3.5c.022-4.297.077-8.592.14-12.888.024-1.857.038-3.715.044-5.572.009-2.674.05-5.347.097-8.02l-.012-2.507c.107-4.247.367-6.043 2.987-9.546 2.778-2 3.82-2.575 7.158-2.455l2.412.049 2.475.127 2.533.068c2.052.058 4.103.148 6.154.244l.875-3.348C243 19 243 19 245 16.562c4.34-2.26 8.204-2.35 13-1.562Z"/><path fill="#EDF0F5" d="M71 96h2c1.224 2.449 1.173 4.166 1.246 6.902l.1 2.948c.06 2.054.118 4.109.172 6.164l.103 2.95.076 2.708c.163 2.598.163 2.598 2.303 5.328 3.116.586 3.116.586 6.625.688l3.602.199L90 124l.871-1.855c1.625-3.087 3.09-4.4 6.129-6.145 3.192-.301 5.948.021 9 1 3 2.5 3 2.5 5 5l1 1c.168 1.926.168 1.926.188 4.313l.042 2.363c-.25 2.527-.966 4.141-2.23 6.324 1.938-.141 3.875-.288 5.813-.438 1.078-.08 2.157-.162 3.269-.246 2.978-.218 2.978-.218 5.918-1.316v2c-3.662 1.831-8.177 1.414-12.234 1.605-4.014.132-4.014.132-7.766 1.395-1.498.095-3 .13-4.5.125l-2.406.008C96 139 96 139 94 138a83.436 83.436 0 0 0-4.57-.316l-2.715-.127-2.84-.12-2.863-.13c-2.337-.107-4.675-.209-7.012-.307l-.379 2.36c-.772 3.28-2.084 4.487-4.621 6.64-3.463 1.731-7.214 1.478-11 1-3.47-2.068-5.777-4.11-7-8-.533-3.533-.707-5.904 1.273-8.973 3.874-4.6 3.874-4.6 6.727-6.027 4.933-.136 8.153.294 12 3.5l2 2.5 1 1v5l17-1-2-4c-.125-2.75-.125-2.75 0-5l-2.23.176-2.957.136-2.918.176C78 126 78 126 75.184 124.176c-3.19-4.64-2.927-8.792-2.934-14.301-.033-1.982-.07-3.964-.11-5.945l-.014-2.65c-.035-2.445-.035-2.445-1.126-5.28Z"/><path fill="#E7E9EB" d="M99 147v2l1.938.688c2.062 1.312 2.062 1.312 3 3.5.086 3.886-1.11 6.419-2.938 9.812l-3 1v-3h-2l-1 2h-1l1 7h-3v18l6 1c3.386 3.16 4.698 5.023 6.063 9.438-.085 4.795-1.252 6.688-4.063 10.562-2.973 2.442-6.254 2.36-10.035 2.254-2.921-.378-4.708-1.395-6.965-3.254-2.536-4.211-2.814-8.2-2-13 1.37-2.728 2.638-3.9 5-6 2.676-.656 2.676-.656 5-1-.06-3.065-.147-6.124-.25-9.188l-.043-2.619c-.205-5.358-.755-8.248-4.707-12.193-1.433-2.866-1.306-4.813-1-8 3.234-6.11 6.862-9.612 14-9Z"/><path fill="#8DADDC" d="M258 15c3.507 2.046 5.74 4.104 7 8 .335 4.099.325 5.512-2 9-2.313.688-2.313.688-5 0-2.031-2.466-3.49-5.194-5-8l-1.813-3L250 19l-4 1-1 5 5 1v2c3.588 1.866 7.278 3.425 11 5-1 3-1 3-2.688 4.188-3.033 1.065-5.107 1.197-8.312.812-4.989-2.543-6.687-5.018-9-10-2.771-.054-5.541-.094-8.313-.125-.785-.017-1.57-.034-2.38-.05l-2.295-.02-2.11-.032c-2.233.121-2.233.121-4.902 2.227l-1 13h60V29h1v14l6.824-.14c2.191-.032 4.382-.056 6.573-.08 1.518-.02 3.036-.047 4.554-.082 2.187-.049 4.373-.071 6.56-.089l3.984-.063c4.017.52 5.64 1.668 8.505 4.454l-1 3-.94-1.966c-3.192-3.152-6.784-2.604-11.03-2.58l-2.78-.031c-3.035-.03-6.07-.031-9.105-.032a3204.4 3204.4 0 0 0-22.925-.129c-5.651-.02-11.302-.062-16.952-.102-11.09-.075-22.179-.123-33.268-.16v37h-2a2319.4 2319.4 0 0 1-.275-21.515c-.025-2.44-.059-4.879-.102-7.318-.06-3.508-.09-7.014-.111-10.522l-.078-3.303c-.003-7.534-.003-7.534 2.82-11.54 2.765-1.814 3.932-2.407 7.172-2.29l2.412.049 2.475.127 2.533.068c2.052.058 4.103.148 6.154.244l.875-3.348C243 19 243 19 245 16.562c4.34-2.26 8.204-2.35 13-1.562Z"/><path fill="#F8FAFD" d="M322 82c0 3.576-.254 7.122-.5 10.688l-.145 2.126c-.117 1.729-.236 3.458-.355 5.186h4l.125-2.188c1.197-3.848 3.411-5.93 6.875-7.812 3.916-.55 6.155-.384 9.75 1.25 3.048 2.37 4.921 3.857 5.605 7.797.263 4.223.024 7.087-2.668 10.453-3.186 2.964-4.761 3.431-9.062 3.75-3.948-.272-5.607-.735-8.625-3.25-1.965-3.252-3-5.187-3-9h-12l.375 4.75c.07.882.14 1.763.21 2.672.414 2.569 1.127 4.336 2.415 6.578l-3-1c-1.926-3.851-1.049-8.8-1-13h-15v24h-1v-24l-10 4c-4.05.45-6.524.139-10-2v-2l2.992-.184 3.883-.254c1.276-.08 2.552-.162 3.867-.246 3.141-.108 3.141-.108 5.258-1.316-.344-2.473-.344-2.473-1-5l-2-1 1-9c4.786 3.829 4.786 3.829 5.367 7.008.012 3.221-.348 5.935-1.367 8.992h26V87l3-5Z"/><path fill="#D4DAE3" d="M315 115c7.606-.116 15.212-.205 22.819-.26a1220.2 1220.2 0 0 0 10.596-.117c4.064-.065 8.127-.09 12.19-.111l3.833-.078c9.771-.004 9.771-.004 12.869 2.86 2.213 3.536 2.256 6.49 2.005 10.519l-.068 2.1A230.767 230.767 0 0 1 379 135l2.324.379c3.947.916 5.327 2.332 7.676 5.621.868 4.168.996 8.114-1.027 11.945-2.115 2.66-3.738 3.977-6.973 5.055-5.884.666-5.884.666-8.754-1.047-2.999-2.457-5.035-4.252-5.52-8.16-.177-4.565-.269-7.01 2.399-10.856 3.114-2.098 5.21-2.445 8.875-2.937-.06-2.25-.149-4.5-.25-6.75l-.14-3.797c-.71-4.017-1.45-4.98-4.61-7.453-2.734-.613-2.734-.613-5.778-.546l-3.518-.06-3.782-.003-3.884-.05c-3.4-.044-6.8-.064-10.2-.08-3.472-.019-6.944-.06-10.416-.1-6.807-.076-13.614-.126-20.422-.161v-1Z"/><path fill="#ECF0F6" d="M236 179h1v46l6 1c2.88 2.567 4.63 4.214 5.414 8 .186 4.473-.573 7.571-3.414 11-2.902 2.338-4.723 2.965-8.438 3.438-4.272-.525-6.312-1.642-9.562-4.438-2.109-3.642-2.51-6.838-2-11 2.04-3.658 3.504-5.67 7-8h4v-46Z"/><path fill="#EDF1F7" d="M174 148h1v19l5 2c3.426 3.045 4.9 4.674 5.25 9.313-.33 4.858-1.676 7.26-5.25 10.5-2 1.187-2 1.187-5 1.187l.07 2.082.055 2.73.07 2.708C175 200 175 200 173 203l-2-1 2-3c.454-2.28.454-2.28.625-4.688l.227-2.449L174 190l-3.25-.25c-4.064-.813-5.28-1.52-7.75-4.75-1.206-3.62-1.323-6.192-1-10 2.03-3.843 3.742-6.67 8-8h4v-19Z"/><path fill="#ECF0F6" d="M304 156c3.075 1.703 5.406 3.812 7 7 .344 5.253.577 8.826-3 13-3.252 1.965-5.187 3-9 3 .081 3.23.194 6.458.313 9.688l.068 2.763c.198 4.965.432 8.49 3.619 12.549-3.875-1.75-3.875-1.75-5-4a89.096 89.096 0 0 1-.098-5.008l.01-2.988.026-3.129.013-3.152c.012-2.575.028-5.149.049-7.723l-2.36-.383c-3.302-.772-4.507-2.027-6.64-4.617-1.218-3.653-1.39-6.158-1-10 3.956-6.628 8.623-8.139 16-7Z"/><path fill="#DFE3E8" d="M37.75 81.688c3.628.036 5.04.19 8.25 2.062 3.237 3.641 4 5.3 4 10.25h20l1 2-22-1-1 5c-3.11 2.871-5.51 4.83-9.75 5.313-4.083-.393-6.068-1.782-9.25-4.313-2.815-4.222-2.807-8.04-2-13 2.438-3.063 2.438-3.063 5-5 1.64-1.64 3.495-1.25 5.75-1.313Z"/><path fill="#EDF1F7" d="M140 191c4.334 2.295 6.975 4.501 9 9v4l22-1c-2 2-2 2-4.155 2.227-.87-.01-1.738-.02-2.634-.032l-2.852-.02-2.984-.05-3.008-.027c-2.456-.024-4.911-.057-7.367-.098l-.34 2.355C147 210 147 210 144.438 212.313c-4.413 2.166-6.564 2.229-11.438 1.687-3.867-1.681-5.42-3.152-7-7-.696-4.525-.614-7.97 1.75-11.938 3.974-3.642 6.794-4.717 12.25-4.062Z"/><path fill="#E3E6EA" d="M150 12c3.658 2.04 5.67 3.504 8 7a30.721 30.721 0 0 1 0 10c-2.19 2.824-3.83 4.415-7 6-4.534.543-7.97.579-12-1.688C137 31 137 31 136 26h-19v-1h18l1-6c3.73-5.66 7.164-7.82 14-7Z"/><path fill="#C1C2C3" d="M368 179h1v16l6 1c4.951 5.219 4.951 5.219 5.055 8.988-.317 4.092-.739 6.538-3.055 10.012-3.958 2.639-7.258 3.434-12 3-3.216-1.579-5.172-2.947-7.375-5.75-1.158-4.17-1.684-8.136.285-12.066 3.187-4.253 4.56-4.262 10.09-5.184v-16Z"/><path fill="#D7E2F1" d="M113 29c.993 2.979 1.055 4.592.879 7.668l-.147 2.705-.17 2.815-.158 2.85c-.13 2.32-.266 4.641-.404 6.962h15v1H97l-2 5c-4.375 2.95-7.793 3.312-13 3l-1-3h2c-.77-3.488-.77-3.488-2-7l-3-1 1 8c-2.404-1.728-3.81-3.113-4.441-6.059-.223-4.25.083-7.084 2.816-10.441 3.623-3.45 5.576-3.797 10.594-3.715 3.004.318 4.72 1.3 7.031 3.215 3.219 4.107 3 5.367 3 11h14l-.035-4.523-.028-5.852-.025-2.984-.01-2.852-.016-2.634C112 31 112 31 113 29Z"/><path fill="#EDF0F5" d="M331 133h1v10c1.547.03 1.547.03 3.125.063 4.507 1.09 6.022 2.378 8.773 5.968 1.764 3.153 1.687 5.459 1.102 8.969-1.652 3.634-3.496 6.042-7 8-2.75.188-2.75.188-5 0v5h-1v-5l-2.25-.25c-3.316-.904-4.585-2.121-6.75-4.75-1.206-3.62-1.323-6.192-1-10 1.688-3.375 1.688-3.375 4-6l5-1v-11Z"/><path fill="#E6EAF1" d="M30 145c2.706 2.198 4.448 3.896 6 7 .378 5.004.112 7.999-3 12-2.525 2.817-4.719 3.273-8.375 3.5-3.44-.108-5.43-.658-8.125-2.813-2.964-3.186-3.431-4.761-3.75-9.062.341-4.946 1.696-7.254 5.375-10.5 4.147-1.623 7.629-1.41 11.875-.125Z"/><path fill="#8D8D8E" d="m309.94 59.612 2.341-.01 2.551-.012 2.668.035 2.668-.035 2.55.012 2.343.01C327 60 327 60 329 63c.47 4.776.47 7.059-1.687 11.375-3.218 3.652-5.51 4.395-10.25 5-4.527-.554-7.62-2.539-10.438-6.125-.982-3.536-.858-6.575-.625-10.25 2-3 2-3 3.94-3.388Z"/><path fill="#F4F6F9" d="M252.75 14.688c3.628.036 5.04.19 8.25 2.062 2.858 3.215 3.897 4.99 4.25 9.313C265 29 265 29 263 32c-2.313.688-2.313.688-5 0-2.031-2.466-3.49-5.194-5-8l-1.813-3L250 19l-4 1-1 5 5 1v2c3.588 1.866 7.278 3.425 11 5-1 3-1 3-2.688 4.188-3.033 1.065-5.107 1.197-8.312.812-3.658-2.04-5.67-3.504-8-7-.546-3.39-.552-6.61 0-10 2.438-3.063 2.438-3.063 5-5 1.64-1.64 3.495-1.25 5.75-1.313Z"/><path fill="#DAE3F1" d="M71 96h2c1.224 2.449 1.173 4.166 1.246 6.902l.1 2.948c.06 2.054.118 4.109.172 6.164l.103 2.95.076 2.708c.163 2.598.163 2.598 2.303 5.328 3.116.586 3.116.586 6.625.688l3.602.199L90 124l.871-1.855c1.625-3.087 3.09-4.4 6.129-6.145 3.998-.239 7.684-.157 10.773 2.559L109 120l-2 6-.75-1.938c-1.066-2.25-1.066-2.25-3.375-2.812L101 121l-2 5 6 2c-.645 3.485-2.101 6.028-4 9a209.563 209.563 0 0 1-4.875-.75l-2.742-.422C91 135 91 135 89.68 133.234c-.766-2.517-.825-4.617-.68-7.234l-2.23.176-2.957.136-2.918.176C78 126 78 126 75.184 124.176c-3.19-4.64-2.927-8.792-2.934-14.301-.033-1.982-.07-3.964-.11-5.945l-.014-2.65c-.035-2.445-.035-2.445-1.126-5.28Z"/><path fill="#EEEFF1" d="M208.73 188.46c2.727.649 3.698 1.222 5.27 3.54.293 2.48.293 2.48.188 5.188l-.083 2.73L214 202c-6.625 1.125-6.625 1.125-10 0v2h11v-11c3 3 3 3 3.375 6.375-.485 4.684-1.913 6.994-5 10.438-3.612 1.806-7.417 1.93-11.375 1.187-1.777-1.523-1.777-1.523-3-3h4v-14h-5v13c-2-1-2-1-3-4-.605-4.493-.25-7.291 2.375-10.938 3.437-3.65 6.514-3.765 11.355-3.601Z"/><path fill="#F6F8FB" d="M99 78c3.704 2.027 5.654 3.48 8 7 .683 3.777.851 7.472-1.05 10.887-2.324 2.83-4.232 4.907-7.938 5.351-4.187.134-6.414.128-10.075-2.113C86 97 86 97 86 95h16l1-5c-1.968-1.968-5.348-1.662-8-2v-2l-1 2-3.438.875c-3.62.738-3.62.738-5 3.25L85 94c-1-1-1-1-1.438-4.125C84.136 84.798 86.31 82.385 90 79c3.11-1.555 5.563-1.286 9-1Z"/><path fill="#F0F3F8" d="M244 178h2v2l3 1-2 14h12v-4l-3 2c-2.5.375-2.5.375-5 0-1.875-1.75-1.875-1.75-3-4 .313-2.25.313-2.25 1-4h2v-3h5l1 2 1-4 5-1c2.109 3.427 2.479 6.009 2 10-2.287 4.32-4.47 7.059-9 9-4.02.599-5.669.185-9.25-1.813C244 194 244 194 242 191c-.266-2.375-.266-2.375-.25-5l-.016-2.625C242 181 242 181 244 178Z"/><path fill="#DBE2EE" d="M331 191c3.503 1.401 4.747 2.63 6.875 5.75 1.363 3.936 1.183 6.244.125 10.25-1.563 1.938-1.563 1.938-3 3-1.623-3.67-3.107-7.081-4-11-5.462.91-5.462.91-9.938 3.813-1.164 2.397-1.696 4.553-2.062 7.187-1.5-1.375-1.5-1.375-3-3v-2h-13v-1h12l.188-3.188c.953-4.475 2.342-5.935 5.812-8.812 3.199-1.6 6.521-1.361 10-1Z"/><path fill="#F9FBFD" d="M48 38h1c1.153 6.342 1.095 12.567 1 19h7V47l2-1c1.088-4.094 1.088-4.094 0-8 3.161 1.37 3.993 1.99 6 5 .462 4.696.427 7.077-1.563 11.375C60.483 57.557 58.21 58.19 54 59v10c-2-2-2-2-2.195-3.945L52 59l-2.25-.75C46.572 56.805 45.045 55.848 43 53c-.945-3.06-1.358-5.808-1-9 2.375-3 2.375-3 5-5l1-1Z"/><path fill="#737373" d="M118 230h16v14h-16v-14Z"/><path fill="#3D3D3D" d="M263 56h13v17h-13V56Z"/><path fill="#F9FAFC" d="M325 11c3.088 1.466 5.13 3.13 7 6 .807 3.49.784 6.506 0 10-2 2.625-2 2.625-4 4l-.875-2.938c-.767-3.169-.767-3.169-3.125-4.062-.414-2.285-.414-2.285-.625-5.063l-.227-2.785L323 14c-3.05-1.011-3.05-1.011-6 0-.312 2.714-.513 5.34-.625 8.063l-.117 2.298c-.095 1.88-.177 3.76-.258 5.639l-3 1c-3.347-3.855-3.562-6.614-3.43-11.586.654-3.67 2.506-5.255 5.43-7.414 3.28-1.64 6.47-1.64 10-1Z"/><path fill="#A9C1E5" d="M322 82c0 3.576-.254 7.122-.5 10.688l-.145 2.126c-.117 1.729-.236 3.458-.355 5.186l3 1h-12l.375 4.75c.07.882.14 1.763.21 2.672.414 2.569 1.127 4.336 2.415 6.578l-3-1c-1.926-3.851-1.049-8.8-1-13h-15v24h-1v-24l-10 4c-4.05.45-6.524.139-10-2v-2l2.992-.184 3.883-.254c1.276-.08 2.552-.162 3.867-.246 3.141-.108 3.141-.108 5.258-1.316-.344-2.473-.344-2.473-1-5l-2-1 1-9c4.786 3.829 4.786 3.829 5.367 7.008.012 3.221-.348 5.935-1.367 8.992h26V87l3-5Z"/><path fill="#2A2929" d="M56 129h3v2h12v12c-2.646.027-5.292.047-7.938.063l-2.287.025A182.68 182.68 0 0 1 55 143c-1-1-1-1-1.098-3.504l.035-3.059.028-3.066L54 131h2v-2Z"/><path fill="#B2B4B8" d="M275 54c2.706 2.198 4.448 3.896 6 7 .398 4.136.248 6.504-1.625 10.25-2.592 3.001-4.773 4.184-8.375 5.75l-2 2v-3l-2.688-.125c-3.524-.931-5.21-2.062-7.394-4.996-1.743-3.568-1.69-7.038-.918-10.879 4.144-6.955 9.516-8.108 17-6Zm-12 2v17h13V56h-13Z"/><path fill="#EFF4FA" d="M130 226c3.752 2.015 5.636 3.455 8 7 .47 4.776.47 7.059-1.688 11.375-3.217 3.652-5.509 4.395-10.25 5-4.019-.492-6.007-1.737-9.062-4.375-1.375-3.25-1.375-3.25-2-6h-6v-1h6l.125-3.188c.895-3.899 1.815-5.575 5.066-7.93 3.292-1.606 6.264-1.659 9.809-.882Zm-12 4v14h16v-14h-16Z"/><path fill="#F9F9F9" d="M319 12c2.688.875 2.688.875 5 2v10l3 1 1 7c-3.641 2.33-6.752 2.309-11 2l-3-2v-2h2l-.105-3.43c-.029-1.481-.056-2.963-.082-4.445l-.077-2.262c-.029-2.168-.029-2.168.264-5.863l3-2Z"/><path fill="#DBDBDB" d="m53.563 35.75 2.378-.016C58 36 58 36 60 38c.931 2.948 1.237 4.415.063 7.313L59 47h-2v10h-7l-2-18-4 3c2.06-4.754 4.403-6.284 9.563-6.25Z"/><path fill="#7A7A7A" d="M331 92h10v19h-10V92Z"/><path fill="#EAEDF3" d="M183 31c3.658 2.04 5.67 3.504 8 7 .815 5.062.833 8.834-2.188 13.063C186 53 186 53 181 54l2 11h-2c-1.203-2.405-1.1-3.95-1.063-6.625l.028-2.477L180 54l-3.313-.313C173 53 173 53 171.063 51.626 170 50 170 50 170 47h5v3h10v-3h4v-8h-4l-1-3h-8l-1 2-4-1c3.851-5.007 5.53-6.622 12-6Z"/><path fill="#F1F0F0" d="M27 148c2.875 1.563 2.875 1.563 5 4 .52 3.635.379 6.015-.938 9.438-2.927 2.218-5.363 2.122-8.964 1.94C20 163 20 163 17.938 161.439c-1.303-3.386-1.388-5.841-.938-9.438 2.743-4.115 5.186-4.786 10-4Z"/><path fill="#4B4A4B" d="M361 72c3.38-.285 6.628-.413 10 0 2.563 2.337 2.926 3.926 3.16 7.336A95.115 95.115 0 0 1 374 86h-3v-2h-10v2h-3c-.293-5.673-.006-8.99 3-14Z"/><path fill="#FAFAFA" d="m89 42 2 1-.125 3.188c.116 3.552.597 5.66 2.125 8.812l-4 4 2 1c-2.957 1.478-5.742 1.06-9 1l-1-3h2c-.77-3.488-.77-3.488-2-7l-3-1c.35-2.59.738-4.577 2.125-6.813C83.043 41.34 85.635 41.755 89 42Z"/><path fill="#D9E3F3" d="M160 147h14v1h-13l-1 5c-2 2-2 2-4.139 2.24l-2.678-.013h-3.033l-3.283-.032-3.354-.008c-3.546-.011-7.092-.037-10.638-.062-2.4-.01-4.8-.02-7.2-.027-5.891-.022-11.783-.056-17.675-.098l.105 3.785c.124 4.448-1.078 6.861-4.105 10.215-2.75.875-2.75.875-5 1 1.702-8.31 1.702-8.31 3.188-11.75 1.033-2.863.79-4.39-.188-7.25-1.458-1.794-1.458-1.794-3-3 2.848.407 3.854.839 5.825 3.018 2.637 2.403 3.712 2.472 7.219 2.436h3.032l3.252-.063 3.346-.018c3.526-.022 7.05-.072 10.576-.123 2.39-.02 4.781-.038 7.172-.055 5.86-.044 11.719-.11 17.578-.195l3-6Z"/><path fill="#F8FAFB" d="M34.848 81.902 41 82l-1.75.75C36.7 84.167 34.982 85.876 33 88h4l-.07 2.992-.055 3.883-.07 3.867c-.161 3.344-.161 3.344 2.195 5.258-3.835.357-5.553.298-8.813-1.875-3.071-2.984-3.399-4.757-3.562-8.938.018-4.08.153-4.908 2.813-8.25L32 83c1-1 1-1 2.848-1.098Z"/><path fill="#030303" d="M171 39h18v8h-4v3h-10v-3h-4v-8Z"/><path fill="#E8EEF6" d="M369 68c3.446 1.26 5.469 2.417 7.938 5.125 1.486 4.023 1.196 7.75.062 11.875l-2 1-.367-1.828-.508-2.422-.492-2.39c-.656-2.444-1.158-4.294-2.633-6.36-2.417-.702-2.417-.702-5.125-.75l-2.758-.172L361 72l-.938 2.938C359 78 359 78 358 79a235.648 235.648 0 0 0-1 7l-2-2v-3l-32 1 1-2h30l1-5c3.815-6.008 6.961-7.47 14-7Z"/><path fill="#E6E6E6" d="M305 232h12v14c-4.585.81-7.33.934-12 0v-14Z"/><path fill="#F6F8FB" d="m282.563 81.75 2.378-.016C287 82 287 82 289 84l-3 9-12 1-1 5c-2-2-2-2-2.375-5.25.438-4.379 1.621-6.367 4.375-9.75 3.134-2.09 3.975-2.274 7.563-2.25Z"/><path fill="#F9FAFB" d="M126 200c1.584.088 3.168.196 4.75.313l2.672.175c2.954.587 4.438 1.407 6.578 3.512v3h-2v4h6c-1 1.5-1 1.5-3 3-5.293.512-8.742.507-13-3-2.565-3.42-2.16-6.856-2-11Z"/><path fill="#FBFBFC" d="m324 147 7 5 1-2 6 5c-3.516 4.663-6.036 7.722-12 9-3.224-2.944-3.946-5.004-4.188-9.438.172-3.257.467-4.873 2.188-7.562Z"/><path fill="#050505" d="M151 17c.967 3.122.99 5.52.563 8.75l-.31 2.422L151 30c-1.812.027-3.625.046-5.438.063l-3.058.035C140 30 140 30 139 29c.09-1.858.246-3.712.438-5.563l.308-3.066L140 18c4.122-1.63 6.707-2.263 11-1Z"/><path fill="#131313" d="M240 228c1.938 1.688 1.938 1.688 3 4-.25 2.438-.25 2.438-1 5-.75 3.474-.75 3.474-1 7l-8 1c-1-3-1-3-.438-5.063L233 238l-2-2c.25-3.563.25-3.563 1-7 2.829-1.414 4.874-1.319 8-1Z"/><path fill="#EFF2F7" d="M100 192c2.54 1.878 3.045 3.157 3.938 6.25.083 4.981-1.029 6.74-3.938 10.75-3.478 2.857-7.708 2.143-12 2l-1-2h2l-1-5c3.75-3 3.75-3 6-3l2 6h2l1-6-2-1c.547-3.375 1.055-5.082 3-8Z"/><path fill="#858585" d="M297 157h5c2.465 6.008 3.022 11.87 1 18.063L302 177h-5c-2.939-5.693-2.695-11.525-1-17.563l1-2.437Z"/><path fill="#DDDEDF" d="M215 193c3 3 3 3 3.375 6.375-.485 4.684-1.913 6.994-5 10.438-3.612 1.806-7.417 1.93-11.375 1.187-1.777-1.523-1.777-1.523-3-3h4v-13h1v6h10v1c-6.625 1.125-6.625 1.125-10 0v2h11v-11Z"/><path fill="#464646" d="M288 84c.959 3.836.919 5.324 0 9l4 2-1 5c-2.813.027-5.625.047-8.438.063l-2.431.025c-2.044.009-4.088-.036-6.131-.088-1-1-1-1-1.125-3.5C273 94 273 94 274 93c2.02-.072 4.042-.084 6.063-.063l3.347.028L286 93l2-9Z"/><path fill="#EFF7FC" d="M205 94h13v10c-3.797 1.898-4.99 2.401-9 2l-4-2V94Z"/><path fill="#272526" d="M331 199c4 6.5 4 6.5 4 11h-16c0-5 0-5 1.625-7.75 3.257-3.086 6.018-3.25 10.375-3.25Z"/><path fill="#B8DAF2" d="m252.875 116.734 2.125.016 2.125-.016C259 117 259 117 261 119c.23 2.129.23 2.129.188 4.563l-.02 2.44C261 128 261 128 260 129c-1.853.072-3.708.084-5.563.063l-3.066-.028L249 129a364.73 364.73 0 0 1-.125-4.875l-.07-2.742c.245-2.997.996-4.213 4.07-4.649Z"/><path fill="#F2F4F8" d="M307 61h1v11h7v1h5v-1h7V62l2 1c.322 4.672.43 7.139-1.688 11.375-3.217 3.652-5.509 4.395-10.25 5-4.526-.554-7.62-2.539-10.437-6.125-1.094-3.94-1.483-8.533.375-12.25Z"/><path fill="#F9FAFC" d="m296 157-.07 3.07c-.02 1.352-.037 2.703-.055 4.055-.017.665-.034 1.33-.05 2.016-.043 4.354.575 7.815 2.175 11.859-4.306-.478-6.249-1.66-9-5-1.218-3.653-1.39-6.158-1-10 2-3.536 3.697-6 8-6Z"/><path fill="#FEFEFE" d="M310 62h15v8h-15v-8Z"/><path fill="#E9EFF6" d="M368 179h1v16l6 1-1 3h-12l.813 3.688c.296 2.199.296 2.199.187 4.312-2.438 3-2.438 3-5 5-1.619-3.238-1.571-6.5-1-10 1.36-2.737 2.627-3.885 5-6l6-1v-16Z"/><path fill="#C3E0F4" d="m171 97 2 1c.027 1.48.046 2.958.063 4.438l.035 2.496C173 107 173 107 172 108c-1.497.098-3 .13-4.5.125l-2.469.008C163 108 163 108 162 107a74.456 74.456 0 0 1-.063-4.563l.028-2.503L162 98c2.986-1.493 5.709-1.118 9-1Z"/><path fill="#F2F8FC" d="M171 131h12v9c-7.5 1.125-7.5 1.125-12 0v-9Z"/><path fill="#D1E7F6" d="M225 130c3-.313 3-.313 6 0 2 2 2 2 2.195 4.383L233 142h-10c-.25-8.625-.25-8.625 2-12Z"/><path fill="#454545" d="M101 118c2.938.75 2.938.75 6 2 1 2 1 2 1 4l-2 2-1-4-4-1-2 5 6 2c-.645 3.485-2.101 6.028-4 9-4.75-.875-4.75-.875-7-2 .394-6.179 2.502-12.502 7-17Z"/><path fill="#2B2A2A" d="m100 192-.938 1.75c-.988 2.093-1.579 3.995-2.062 6.25l3 1-2 6h-2l-2-6c-2.573 1.21-2.573 1.21-5 3v4c-2 0-2 0-3.625-1.375C84 205 84 205 84 203l1.813-.25c2.784-.955 3.62-2.321 5.187-4.75l-6-2 1-2c3.063-.625 3.063-.625 6-1v2l2.875-1.5C98 192 98 192 100 192Z"/><path fill="#DEE5EE" d="M166 172v14l4.688-.063c3.574-.005 6.837.136 10.312 1.063-1.313 1.5-1.313 1.5-3 3h-3l.07 2.082.055 2.73.07 2.708C175 200 175 200 173 203l-2-1 2-3c.454-2.28.454-2.28.625-4.688l.227-2.449L174 190l-3.25-.25c-4.064-.813-5.28-1.52-7.75-4.75-1.185-3.554-1.266-6.27-1-10 2.226-3 2.226-3 4-3Z"/><path fill="#E2F0F9" d="M190 125h7v3l3 1v6h-3v2c-2.813.25-2.813.25-6 0-2.467-2.22-2.962-3.436-3.188-6.75L188 128h2v-3Z"/><path fill="#F2F5FA" d="M65 221h1l.148 1.934.227 2.504c.07.823.14 1.647.21 2.496L67 230c3.31 1.655 6.991 1.1 10.625 1.063l2.43-.014c1.981-.012 3.963-.03 5.945-.049-.973 2.432-1.638 3.76-3.848 5.227-3.717 1.335-7.264 1.335-11.152.773-3.12-1.793-4.55-3.243-6.375-6.313-.805-3.46-.303-6.228.375-9.687Z"/><path fill="#858585" d="M246 178h14v2l-2 1v5l-2-1v-3h-5c-.597 2.763-1 5.16-1 8l2 2c3.597-.323 3.597-.323 7-1v4h-12c-.143-9.571-.143-9.571 1-14l-2-1v-2Z"/><path fill="#F6F8FB" d="M89 150h2l-.188 3.125c.204 4.197 1.275 6.203 3.188 9.875.688 3.875.688 3.875 1 7-3.578-.298-4.762-.742-7.25-3.438-2.618-3.833-3.2-5.882-2.75-10.562 1.875-3.375 1.875-3.375 4-6Z"/><path fill="#B9DBF2" d="M226.063 115.188C229 116 229 116 231 118c.313 3 .313 3 0 6-2.9 1.934-3.897 2.301-7.188 2.625L220 127c-.081-1.437-.14-2.874-.188-4.313l-.105-2.425C220 118 220 118 221.32 116.195 223 115 223 115 226.063 115.188Z"/><path fill="#91AFDD" d="m45 182 46 1v2H55l1 13-2-1v-12h-6l-3-3Z"/><path fill="#F6F8FB" d="M117 230h1v14l6.875-.063c6.875-.062 6.875-.062 9.125 1.063v2c-3.838 1.806-6.764 2.519-11 2-3.965-1.983-5.633-3.133-7.375-7.25L115 239h-6v-1h6l.438-3.438C116 231 116 231 117 230Z"/><path fill="#B9DBF2" d="M200.125 79.063C202.3 80.15 203.593 81 205 83c-.25 2-.25 2-1 4l-1 3h-2l-1 3c-1.938-.813-1.938-.813-4-2l-1-3 1-1h-4c.332-3.1 1.055-4.055 3.313-6.313C198 79 198 79 200.125 79.064Z"/><path fill="#323232" d="m139.75 196.938 2.422.027L144 197c.625 1.875.625 1.875 1 4l-2 2v4h2v3h-7v-3h2c-.752-3.278-.752-3.278-4-5-2.275-.666-2.275-.666-4.688-1.125l-2.449-.508L127 200c4.335-2.322 7.84-3.135 12.75-3.063Z"/><path fill="#3C3C3C" d="M67 220h18v11c-3.065 1.533-6.268 1.103-9.625 1.063l-2.14-.014c-1.745-.012-3.49-.03-5.235-.049l-1-5 1 2 11-1 1-7-13 1v-2Z"/><path fill="#414041" d="M29 147c3.275 2.672 4.842 4.582 5.313 8.813-.385 3.918-1.606 5.4-4.313 8.187-3.1 1.55-5.579 1.29-9 1-2.753-1.796-4.526-3.053-6-6-.375-3.313-.375-3.313 0-7 4.57-5.533 7.004-6.568 14-5Zm-10.375 2.563c-2.234 3.35-2.119 5.485-1.625 9.437.745 2.577.745 2.577 3 4 3.1.56 5.9.56 9 0 2.968-2.249 2.974-3.816 3.5-7.5-.189-3.59-.189-3.59-2.625-5.938-4.25-2.31-7.125-2.714-11.25 0Z"/><path fill="#EBEFF5" d="M74 201c2 2 2 2 2.195 4.602l-.07 3.023-.055 3.04L76 214l2.188.188C81 215 81 215 86 220H66c5-5 5-5 8-6v-13Z"/><path fill="#FAFBFC" d="M59 38c3.161 1.37 3.993 1.99 6 5 .482 4.902.472 7.089-1.813 11.5L61 57h-3l-1-10 2-1c1.088-4.094 1.088-4.094 0-8Z"/><path fill="#F9F9F9" d="M68 221h12c.042 2.333.04 4.667 0 7-1 1-1 1-3.504 1.098l-3.058-.036-3.067-.027L68 229v-8Z"/><path fill="#C8E2F5" d="M208 133c5.625-.25 5.625-.25 9 2l-1 7c-4.655.838-8.37 1.016-13 0l3-1v-2l-2-1 2-1c1.134-2.017 1.134-2.017 2-4Z"/><path fill="#D7EAF7" d="M225 102c1.48-.027 2.958-.046 4.438-.063l2.496-.035C234 102 234 102 235 103c.04 2.333.042 4.667 0 7l-9 3c-1-1-1-1-1.098-3.285l.036-2.778.027-2.785L225 102Z"/><path fill="#1F1F1F" d="M92 89h11l1 5c-2 2-2 2-4.969 2.266L95.5 96.25l-3.531.016C89 96 89 96 87 94l1-3v2h3l1-4Z"/><path fill="#747474" d="M319 12c2.688.875 2.688.875 5 2v10l3 1 1 6h-8c-.125-2.375-.125-2.375 0-5l2-2c.243-2.21.243-2.21.125-4.625l-.055-2.477L322 15h-4l-1 15 2 1h-5l2-1-.105-3.43c-.029-1.481-.056-2.963-.082-4.445l-.077-2.262c-.029-2.168-.029-2.168.264-5.863l3-2Z"/><path fill="#CEE6F6" d="m223.813 86.867 2.187.008 2.188-.008C230 87 230 87 231 88c.125 3.5.125 3.5 0 7-1 1-1 1-3.066 1.098l-2.496-.035-2.504-.028L221 96c-.098-6.152-.098-6.152 0-8 1-1 1-1 2.813-1.133Z"/><path fill="#111" d="M267 60h9v13h-13v-8l1.063 1.5c2.88 2.23 5.407 1.7 8.937 1.5 0-2.564-.644-3.83-2-6l-4-2Z"/><path fill="#F6F9FC" d="M359 212h19c-1 3-1 3-3.688 4.688-3.553 1.407-5.541 1.862-9.312 1.312-3.375-1.875-3.375-1.875-6-4v-2Z"/><path fill="#C6E2F4" d="m145.031 120.867 2.469.008 2.469-.008C152 121 152 121 153 122c.04 2.333.042 4.667 0 7h-11c-.042-2.333-.04-4.667 0-7 1-1 1-1 3.031-1.133Z"/><path fill="#F8F9FC" d="m105 92 1 4c-3.406 3.494-5.587 5.371-10.563 5.563-4.202-.235-6.546-1.392-9.437-4.563v-2l3.395.105c1.472.029 2.945.056 4.418.082l2.236.077c4.271.117 4.271.117 7.963-1.776L105 92Z"/><path fill="#0E0E0E" d="M303 231h15v17c-10.84.098-10.84.098-14 0-1-1-1-1-1.098-4.598.007-1.488.019-2.976.036-4.464l.013-2.3c.012-1.879.03-3.758.049-5.638Zm2 1v14c6 1.333 6 1.333 12 0v-14h-12Z"/><path fill="#97B4DF" d="M111 74h2c1.533 3.065 1.103 6.268 1.063 9.625l-.014 2.14c-.012 1.745-.03 3.49-.049 5.235.681-.01 1.362-.02 2.064-.032 3.083-.041 6.165-.067 9.249-.093 1.071-.017 2.143-.034 3.248-.05l3.115-.02 2.872-.032C137 91 137 91 140 93h-33v-5l1 3h5c-.141-2.271-.288-4.542-.438-6.813-.08-1.264-.162-2.529-.246-3.832-.188-3.347-.188-3.347-1.316-6.355Z"/><path fill="#F6F7F9" d="M244 178h2v2l3 1-2 14h2l-1 2c-4.875-3.75-4.875-3.75-6-6a74.581 74.581 0 0 1-.188-4.938l-.042-2.652C242 181 242 181 244 178Z"/><path fill="#020202" d="M332 99h8v11h-8V99Z"/><path fill="#717171" d="m368.438 206.813 3.558-.043C375 207 375 207 377 209v3h-18c2.841-5.682 3.26-5.154 9.438-5.188Z"/><path fill="#ECF0F5" d="M331 191c3.503 1.401 4.747 2.63 6.875 5.75 1.363 3.936 1.183 6.244.125 10.25-1.563 1.938-1.563 1.938-3 3l-2-7 3-1c-.106-2.452-.106-2.452-1-5-4.376-2.964-9.926-2.177-15-2l1-3c3.199-1.6 6.521-1.361 10-1Z"/><path fill="#E8EAEC" d="M100 79c3.265 1.804 4.89 2.834 7 6 .195 2.262.195 2.262.125 4.688l-.055 2.449L107 94l-3-1-.75-2-1.25-2c-3.562-.819-3.562-.819-7-1 .313-1.938.313-1.938 1-4l3-1c.733-2.015.733-2.015 1-4Z"/><path fill="#BADBF2" d="M176 80c2.263.354 3.95.975 6 2v9h-8a292.931 292.931 0 0 1-.125-4.375l-.07-2.46C174 82 174 82 176 80Z"/><path fill="#333232" d="M332.813 194.813C335 196 335 196 337 199v3h-4l-2-4h-8l-2 4h-4c.268-3.301.56-4.625 3.125-6.813 4.432-1.83 8.112-1.696 12.688-.375Z"/><path fill="#BDDDF3" d="M166 115c2.411.964 3.774 1.688 5.313 3.813.857 2.729.443 4.464-.313 7.187h-7l-2-7 4-4Z"/><path fill="#F7F8FA" d="M361 84h10v3l3 1c-4.08 2.967-6.983 3.639-12 3-2.438-2-2.438-2-4-4h3v-3Z"/><path fill="#494949" d="M174 43h12l-1 7h-10l-1-7Z"/><path fill="#707070" d="M332 146v3l1.688.813c2.538 1.303 4.965 2.557 7.312 4.187v3a317.62 317.62 0 0 1-6 5v2h-7l2.25-1.688c2.667-2.242 4.666-4.533 6.75-7.312-3.849-3.502-3.849-3.502-9-4l-2-4c2-1 2-1 6-1Z"/><path fill="#0D0D0D" d="M167 172h7v14h-7l1-4 4 1v-3l-5 1v-9Z"/><path fill="#0E0E0E" d="M247 18c1.938.063 1.938.063 4 1 1.563 2.25 1.563 2.25 3 5l1.688 2.688C257 29 257 29 257 31c-2.962-.613-4.38-1.254-7-3v-2l-5-1c-.125-2.375-.125-2.375 0-5l2-2Z"/><path fill="#CACFD5" d="m173 33 2 1-3 3 3 1 1-3h8l1 4h-14v8l-2 1c-1.475-7.13-1.475-7.13.875-11.438C172 34 172 34 173 33Z"/><path fill="#302E2F" d="M198 194h5v14h-5v-14Z"/><path fill="#DCEDF8" d="M158.938 132.75 162 133c2 3 2 3 1.75 5.063C163 140 163 140 161 142c-3.297-.33-4.623-.623-7-3 .718-5.89.718-5.89 4.938-6.25Z"/><path fill="#BABABA" d="M58 132c3.125.375 3.125.375 6 1 .625 2.875.625 2.875 1 6-2 2-2 2-4.5 2.25C58 141 58 141 56 139c-.25-2.5-.25-2.5 0-5l2-2Z"/><path fill="#1F1F1F" d="M124 232h4l1 2 3 1-1 5c-1.977.73-3.98 1.394-6 2l-2-1v-3h-2l1-4h2v-2Z"/><path fill="#E1E9F6" d="M302 231h1v16c-3-2-3-2-3.688-4.625L299 240l-3.21.07c-1.389.02-2.777.037-4.165.055l-2.117.05c-1.837.018-3.674-.072-5.508-.175l-2-2 17 1 1-5 2-3Z"/><path fill="#F8F9F9" d="m94 201 3 9c-1 1-1 1-2.848 1.098L88 211l-1-2h2l-1-5c3.75-3 3.75-3 6-3Z"/><path fill="#A6A7A9" d="m53.563 35.75 2.378-.016C58 36 58 36 60 38c.75 2.438.75 2.438 1 5l-2 3v-5l-9-1v5h-1l-1-6-4 3c2.06-4.754 4.403-6.284 9.563-6.25Z"/><path fill="#FEFEFE" d="M204 194h9v7h-9v-7Z"/><path fill="#CBE4F5" d="M205 94h13v10c-3.797 1.898-4.99 2.401-9 2l-4-2V94Zm1 1v7h11v-7h-11Z"/><path fill="#B3B4B5" d="m90 41 1 2H80l-1 3h-2l1.063 3.75c.893 3.153.946 5.118-.063 8.25-2.764-2.649-3.265-4.803-3.375-8.5.11-2.795.34-4.424 1.5-7C80.257 39.194 85.111 39.75 90 41Z"/><path fill="#565656" d="M166 171h9v15h-1v-14h-7l1 8 4-1 1 4c-1.938.563-1.938.563-4 1l-1-1-2 3v-15Z"/><path fill="#8C8C8C" d="m372 145 10 1-1 2h-2v3l-5 1v2h-3c-1.255-3.766-.37-5.372 1-9Z"/><path fill="#F4F9FD" d="M250 122c1.48-.027 2.958-.046 4.438-.063l2.496-.035C259 122 259 122 260 123v5h-10v-6Z"/><path fill="#C9E3F5" d="m239 125 3 1-1 8 4 2-1 7-2-3-2-2v2l-3-1c-.201-3.625.142-5.865 2-9h2v-3h-2l-1 2 1-4Z"/><path fill="#BCDCF2" d="M245 106c3.536.536 3.536.536 5 2 .04 1.666.043 3.334 0 5-6.625 2.875-6.625 2.875-10 4 .45-1.46.91-2.918 1.375-4.375l.773-2.46C243 108 243 108 245 106Z"/><path fill="#EEF2F9" d="M318 50h1v6l2.938.875C325 58 325 58 326 60h-17c4-4 4-4 6.75-4.25L318 56v-6Z"/><path fill="#F8FAFC" d="m53 142 18 1c-4 4-4 4-6.184 4.566l-2.254-.004-2.246.067C58 147 58 147 53 142Z"/><path fill="#575757" d="M308 61h2v9h16v1h-8v2l3 1h-7v-1l-6-1V61Z"/><path fill="#BCCFEA" d="M251 146h2c1.08 3.238 1.114 5.578 1.098 8.98l-.01 3.526-.025 3.681-.014 3.717A3143.92 3143.92 0 0 1 254 175l5 1v1h-12l1-2c2.563-.625 2.563-.625 5-1-.139-3.917-.287-7.833-.438-11.75l-.119-3.367-.127-3.242-.11-2.984A31.585 31.585 0 0 0 251 146Z"/><path fill="#F5F8FC" d="M262 56v17c-4-4-4-4-4.496-6.219.159-6.18.159-6.18 1.933-9.344C261 56 261 56 262 56Z"/><path fill="#D8EBF8" d="M188 128h3v6h6v-6l3 1v6h-3v2c-2.813.25-2.813.25-6 0-2.467-2.22-2.962-3.436-3.188-6.75L188 128Z"/><path fill="#F6F9FC" d="M125.938 225.563c3.685.179 6.113 1.133 9.062 3.437v1h-17c4-4 4-4 7.938-4.438Z"/><path fill="#F9FAFB" d="M289 84c4.766 3.813 4.766 3.813 5.402 7.043.036 2.144.036 2.144-.402 5.957l-2 2-.875-2.438c-.858-2.695-.858-2.695-3.125-3.562l1-9Z"/><path fill="#181818" d="M51 49h5c1.354 2.709 1.065 5.01 1 8h-7c-.125-5.75-.125-5.75 1-8Z"/><path fill="#CDE5F6" d="M171 131h12v9c-7.5 1.125-7.5 1.125-12 0v-9Zm1 1v6h10v-6h-10Z"/><path fill="#EFF3F9" d="M291 99v3c-4.21 2.406-7.137 3.529-12 3-2.375-1-2.375-1-4-2v-2l2.992-.184 3.883-.254c1.276-.08 2.552-.162 3.867-.246 3.141-.108 3.141-.108 5.258-1.316Z"/><path fill="#DCE0E5" d="M319 210h16c-2 3-2 3-5 4-3.438.313-3.438.313-7 0l-4-4Z"/><path fill="#F5F8FC" d="M277 57c4 4 4 4 4.438 7.438-.452 3.679-1.218 5.631-3.438 8.562h-1V57Z"/><path fill="#F8FAFC" d="M166 172v15c-3-2-3-2-4-5-.456-6.385-.456-6.385 1.438-8.938C165 172 165 172 166 172Z"/><path fill="#EDEDED" d="m101 120 5 2v6a108.817 108.817 0 0 1-7-1l-1-2c1.438-2.625 1.438-2.625 3-5Z"/><path fill="#D0E6F6" d="M204 110c1.675.286 3.344.618 5 1 .688 1.75.688 1.75 1 4-1.313 2.25-1.313 2.25-3 4h-2c-2.148-3.222-2.294-4.278-2-8l1-1Z"/><path fill="#1E1D1D" d="m358 80 1 2 2.266-.254 2.984-.308 2.953-.317c2.56-.11 4.378.102 6.797.879v4h-3v-2h-10v2h-3v-6Z"/><path fill="#F8F9FB" d="M362 199c1.145 5.197 1.145 5.197 1 8-2.438 3-2.438 3-5 5-1.59-3.18-1.537-6.546-1-10 2.906-3 2.906-3 5-3Z"/><path fill="#B5D9F1" d="M148 105c5.75.875 5.75.875 8 2 .407 2.322.744 4.657 1 7-3.375-.563-3.375-.563-7-2-1.438-3.625-1.438-3.625-2-7Z"/><path fill="#525252" d="M91 43c2.991 2.861 3.94 4.165 4.25 8.438C95 55 95 55 93.5 56.938L92 58l-3-1 3-2-1.063-2.063c-1.163-3.646-.665-6.222.063-9.937Z"/><path fill="#313131" d="M234 238h6l1 6-8 1c-1-3-1-3-.063-5.188L234 238Z"/><path fill="#E9EEF6" d="M117 230h1v14l3 1-3 1c-3-4.75-3-4.75-3-7h-6v-1h6l.438-3.438C116 231 116 231 117 230Z"/><path fill="#FEFEFE" d="M364 200h9v5h-9v-5Z"/><path fill="#F7F7F7" d="M254 184v4l4-1c0 3 0 3-1.25 4.75C255 193 255 193 253 192.875c-2.304-1.008-3.548-1.812-5-3.875.313-2.188.313-2.188 1-4l5-1Z"/><path fill="#C2DFF4" d="M179 112h12c-.875 6.75-.875 6.75-2 9h-7l-1-4 8 1v-5h-8l-1 2-1-3Z"/><path fill="#0D0D0D" d="M332 92h8v6h-8v-6Z"/><path fill="#070707" d="M119 230h15v13h-5l1.5-1.688c1.773-2.733 2.005-4.114 1.5-7.312-2.884-2.324-2.884-2.324-6.5-2-3.5 0-3.5 0-6.5-2Z"/><path fill="#C1C0C0" d="M329.09 196.77C331 197 331 197 333 199v3l3 1-5-1v-3c-6.3 1.06-6.3 1.06-11 5l-2-2h3l.438-1.938c1.15-4.215 3.688-3.213 7.652-3.292Z"/><path fill="#EDEDED" d="M296 164h3v4l1-4h3v7h-7v-7Z"/><path fill="#EDF0F4" d="m34 151 2 1c.294 5.006.118 7.992-3 12-2.685 2.78-3.79 2.99-7.75 3.188L22 167l1.625-.75L26 165l3.125-1.5c4.095-3.561 4.296-7.27 4.875-12.5Z"/><path fill="#343333" d="m20 147 3 1-2.5 1.563c-2.83 2.275-2.83 2.275-3.063 5.937.298 3.498.298 3.498 2.25 5.875 2.504 1.76 4.295 2.29 7.313 2.625v1c-3.835.357-5.553.298-8.813-1.875-2.783-2.704-3.122-3.548-3.562-7.438.465-4.57 1.906-5.825 5.375-8.687Z"/><path fill="#EAEAEA" d="M361 74h10l1 4h-12l1-4Z"/><path fill="#484848" d="M148.688 16.375 151 17c.625 1.875.625 1.875 1 4-2 2-2 2-5.125 2.125L144 23l1-4-2-1c3-2 3-2 5.688-1.625Z"/><path fill="#343434" d="m81 225 3 1-2 1 1 4-15 1-1-5 1 2c1.793-.087 3.584-.195 5.375-.313l3.023-.175L79 228l2-3Z"/><path fill="#DCEDF8" d="M145 122h5v2h2v4h-8l1-6Z"/><path fill="#B6D9F1" d="M164 97h7l1 5h-9l1-5Z"/><path fill="#262626" d="M324.063 24.938 327 25l1 6h-8a99.984 99.984 0 0 1 0-5c1-1 1-1 4.063-1.063Z"/><path fill="#B1C4DE" d="m57 53 2 4c-3 2-3 2-5 2v10c-2-2-2-2-2.195-3.945L52 59l-4-2 2-2v2h7v-4Z"/><path fill="#141414" d="M362 207h13l1 3h-15l1-3Z"/><path fill="#090909" d="M176 178h5v8h-5v-8Z"/><path fill="#A2A2A2" d="m118 230 6 2 1 3h-3l-1 3 4-1-3 3-2-1v-6l-1 11h-1v-14Z"/><path fill="#B6B6B6" d="M251 182h5l1 3 2 1v5l-4 2 2-5-6 2 3-5-3 1v-4Z"/><path fill="#080808" d="M246 178h14v2c-2.488 1.244-4.227 1.133-7 1.125l-2.688.008C248 181 248 181 246 180v-2Z"/><path fill="#FDFEFE" d="M226 131c1.938.125 1.938.125 4 1 1.313 2.375 1.313 2.375 2 5l-1 3-2-1-1 2v-2h-3v-3l3-1 2 1c-2.033-2.163-2.033-2.163-5-4l1-1Z"/><path fill="#D5DFEC" d="M101 138c-4.75 1.125-4.75 1.125-7 0a83.436 83.436 0 0 0-4.57-.316l-2.715-.127-2.84-.12-2.863-.13c-2.337-.107-4.675-.209-7.012-.307v-1c2.875-.196 5.75-.382 8.625-.563l2.45-.17c5.889-.359 10.844-.654 15.925 2.733Z"/><path fill="#959595" d="M288 84c1.467 3.815.433 6.29-1 10l3 2-1 3-9-2 4-1c1.104-1.978 1.104-1.978 1.688-4.375l.699-2.398L287 87l1-3Z"/><path fill="#5C5C5C" d="m95 85 1 2c3.03.658 3.03.658 6 1v1H92l-1 5-3-1c-.75-2-.75-2-1-4 1-1 1-1 4.063-1.063L94 88l1-3Z"/><path fill="#252525" d="M263 56h13v2c-2.645 1.322-4.678 1.097-7.625 1.063l-3.04-.028L263 59v-3Z"/><path fill="#686768" d="M93 161h5c2 2 2 2 2.125 4.625L100 168h-6l-1-7Z"/><path fill="#333" d="M99 130h3v6c-2.606.93-3.642 1.15-6.25.063L94 135v-4l5 1v-2Z"/><path fill="#F0F0F0" d="M267 61c1.675.286 3.344.618 5 1 .563 1.938.563 1.938 1 4-1 1-1 1-3.563 1.063L267 67a88.406 88.406 0 0 1-1-5l1-1Z"/><path fill="#E1E5EB" d="m319 28 1 3h8l-1 2c-3.554 1.185-6.27 1.266-10 1-1.938-1.5-1.938-1.5-3-3h5v-3Z"/><path fill="#F8FAFD" d="M319 232c3.34 3.34 3.346 4.42 3.398 8.965C322 243 322 243 319 247v-15Z"/><path fill="#292929" d="m247 191 1.863.254 2.45.309 2.425.316c2.43.269 2.43.269 5.262-.879v4h-12v-4Z"/><path fill="#131313" d="M35 84h6l2 4H33l2-4Z"/><path fill="#DCEDF8" d="M223 133h6l1 3h-5l1 6h-3v-9Z"/><path fill="#454545" d="m77 46 1 4 4 1 1 6c-1.875-.25-1.875-.25-4-1-2.355-3.18-2.175-6.151-2-10Z"/><path fill="#353535" d="M297 157h5l1 6h-7l1-6Z"/><path fill="#DFEEF9" d="m211 138-1 1 3 1 1 3-11-1 3-1v-2l-2-1c4.75-1.125 4.75-1.125 7 0Z"/><path fill="#E6EAF1" d="M304 248h14c-2.33 2.33-3.247 2.42-6.438 2.813l-2.37.332C307 251 307 251 304 248Z"/><path fill="#1B191A" d="M58 134h5v5c-1.875.625-1.875.625-4 1l-2-2c.375-2.125.375-2.125 1-4Z"/><path fill="#EFF2F7" d="m270.688 53.188 2.386.292L275 54l1 2h-14c4.529-3.397 4.529-3.397 8.688-2.813Z"/><path fill="#3C3B3C" d="M56 129h3l-.875 2c-1.36 3.625-2.231 7.233-3.125 11h-1v-11h2v-2Z"/><path fill="#3D3D3D" d="M252 21c5 7.5 5 7.5 5 10-2.962-.613-4.38-1.254-7-3v-3h2v-4Z"/><path fill="#393939" d="M372 147h2v3l5-1v2l-5 1v2h-3c-1-3-1-3-.063-5.188L372 147Z"/><path fill="#9B9B9B" d="M236 230h4v5h-4l4 2h-5c-.625-2.375-.625-2.375-1-5l2-2Z"/><path fill="#B3B3B3" d="M94 156h6l-.063 2.375c-.124 2.606-.124 2.606 1.063 4.625l-3 1v-3h-3l-1-5Z"/><path fill="#FEFEFE" d="M193 129h4v5h-6c.875-3.875.875-3.875 2-5Z"/><path fill="#FDFEFE" d="M212 95h5v7h-8v-1h6l-1-3-2-1v-2Z"/><path fill="#E2E5E8" d="m15 159 2.688 2.438c2.695 2.266 4.733 3.246 8.312 3.562-1.688 1.125-1.688 1.125-4 2-3.483-.934-5.651-2.28-8-5l1-3Z"/><path fill="#A8AFBA" d="M99 147v2l2 1-3.875.438c-2.382.268-3.97.484-6.125 1.562l-1-3c3.135-1.858 5.375-2.201 9-2Z"/><path fill="#F2F3F6" d="M76 46h1c2.277 8.036 2.277 8.036 1 12-2.563-2.67-2.993-3.902-3.25-7.688C75 47 75 47 76 46Z"/><path fill="#242424" d="M176 35h8v3h-9l1-3Z"/><path fill="#6F6F6F" d="m336 157 3 1-2 2.438c-2.103 2.152-2.103 2.152-2 3.562h-7l2.313-1.813c2.035-1.657 3.885-3.29 5.687-5.187Z"/><path fill="#1C1C1C" d="m332 146-1 6c-1.938-.813-1.938-.813-4-2l-1-3c2-1 2-1 6-1Z"/><path fill="#D3E8F7" d="m213 135 2 1c.625 2.563.625 2.563 1 5l-3 1v-2h-5l1.938-.813c2.393-1.074 2.393-1.074 3.062-4.187Z"/><path fill="#FFF" d="M172 132h9c-3.31 3.31-4.532 3.504-9 4v-4Z"/><path fill="#414141" d="m240 231 3 1c-.375 2.438-.375 2.438-1 5l-2 1v-2l-5-1 1-3 1 3h3l-1-3 1-1Z"/><path fill="#D7EAF7" d="M250 122h9l-2 1c-.652 2.025-.652 2.025-1 4h-3l-1-3-2-2Z"/><path fill="#7E7E7E" d="M177 45h6v4h-6v-4Z"/><path fill="#1B1B1B" d="M171 39h18v1h-14v2h-3l-1-3Z"/><path fill="#C1DFF3" d="M229 105h3l-1 2 1 1-2 1c-1.134 2.017-1.134 2.017-2 4h-2c1.875-6.875 1.875-6.875 3-8Z"/><path fill="#110F10" d="m358 80 1 2h10v1h-8v3h-3v-6Z"/><path fill="#E9EFF8" d="M264 74h11l-5 5-1-3-5-1v-1Z"/><path fill="#020202" d="M173 180h1v6h-7l1-4 4 1 1-3Z"/><path fill="#141414" d="M273 94h6l-1 2-3-1 1 3h3v2c-1.666.043-3.334.04-5 0-1-1-1-1-1.063-3.563L273 94Z"/><path fill="#B7DAF2" d="M221 88h7l-1 2h-3l-.375 1.938L223 94l-2 1v-7Z"/><path fill="#B0B0B0" d="m169 179 4 1-1 4-4-1 1-4Z"/><path fill="#4F4E4E" d="M22 146c6.523.615 6.523.615 8.938 2.563L32 150c-3.106 0-4.353-.54-7-2l-1 2-2-4Z"/><path fill="#FBFDFE" d="m245 108 4 1-1 4-4-1 1-4Z"/><path fill="#050505" d="M362 207h8l-3 1v2h-6l1-3Z"/><path fill="#E5F1FA" d="m239 135 3 2c.688 3.625.688 3.625 1 7l-3-1-1-8Z"/><path fill="#050505" d="m263 65 1.188 1.438c2.22 1.914 3.946 2.175 6.812 2.562-3.228 2.152-4.284 2.2-8 2v-6Z"/><path fill="#E3E8EE" d="m95 50 2 3c-.77 3.155-1.33 4.586-4.125 6.313L91 60l-2-2 2.438-1.188c2.793-1.581 2.793-1.581 3.374-4.5L95 50Z"/><path fill="#070707" d="M119 232c2.765 2.765 2.525 5.197 3 9l1 2h-4v-11Z"/><path fill="#BEC0C3" d="M134 230h1l1 15-2 1-2-2h2v-14Z"/><path fill="#3A3A3A" d="m140 206 1 2 4-1v3h-7v-3l2-1Z"/><path fill="#6F6F6F" d="M180 178h1v8l-4-1 1-5h2v-2Z"/><path fill="#151515" d="M297 173h5v4h-5v-4Z"/><path fill="#676767" d="M99 128h6c-.506 2.169-1 4-2 6h-2l1-4h-3v-2Z"/><path fill="#FAFCFE" d="m144 124 7 1v3h-7v-4Z"/><path fill="#D2E8F7" d="m233 102 2 1v7l-4 1 2-1-.563-3.438L232 103l1-1Z"/><path fill="#B6DAF1" d="m187 100 1 2h2v5h-3c-.934-3.01-1.044-3.867 0-7Z"/><path fill="#2E2E2E" d="m81 225 3 1-2 1 1 4h-6l4-6Z"/><path fill="#E8EAEE" d="m83 203 1 2 3 1v2l2 1-3 1-3-2c-.188-2.625-.188-2.625 0-5Z"/><path fill="#FEFEFE" d="M297 164h2v4h3v2h-5v-6Z"/><path fill="#E0EFF9" d="M158 138h4l-1 4-5-1 2-3Z"/><path fill="#707070" d="M96 126c2 1 2 1 3.125 4.063L100 133l-6-2 2-5Z"/></svg>