<svg xmlns="http://www.w3.org/2000/svg" width="400" height="274"><path fill="#0271BA" d="M0 0h400v274H0V0Z"/><path fill="#F7FCFD" d="M108.79 33.676C116.421 38.247 122.162 44.488 125 53c.123 2.617.185 5.196.188 7.813l.037 2.119c.018 6.587-1.43 11.316-5.162 16.693l-1.528 2.227A271.453 271.453 0 0 1 114 88c7.156 7.357 7.156 7.357 14.75 14.25 4.143 3.526 7.925 7.388 11.75 11.25 4.36 4.402 8.718 8.689 13.46 12.68 3.46 3.087 6.68 6.42 9.918 9.735 2.284 2.323 4.399 4.27 7.122 6.085v2c3.988 1.14 3.988 1.14 8 1 2.124-1.825 3.638-3.743 5.262-6.02 2.055-2.341 3.85-2.922 6.738-3.98a7708.664 7708.664 0 0 0-5-15.125l-.75-2.262c-3.485-10.494-7.083-20.932-10.963-31.287l-.924-2.478-.803-2.125C172 80 172 80 172 78l-1.906.14c-7.27.307-12.404-.754-17.852-5.753-5.299-5.773-6.67-11.25-6.496-18.992.574-5.412 3.659-9.483 7.254-13.395 5.341-3.835 10.51-4.532 17-4 7.778 2.13 11.838 4.955 16.102 11.758 2.026 5.058 1.39 10.908.898 16.242-2.261 5.065-6.45 8.84-11 12h-2a11399.805 11399.805 0 0 0 5.178 15.607c3.378 10.17 6.837 20.306 10.484 30.383l.94 2.643.822 2.278C192 129 192 129 192 133l2.25-1c5.262-1.403 10.336-1.158 15.75-1l-.068-3.514c.002-4.172.497-8.144 1.162-12.267.11-.7.222-1.398.336-2.118.35-2.202.71-4.401 1.07-6.601l.723-4.516c.586-3.662 1.18-7.323 1.777-10.984l-2.836-.406c-3.937-.74-5.403-1.687-8.164-4.594-3.298-5.207-4.682-9.813-3.605-15.93 1.333-4.56 3.767-7.311 7.23-10.445 5.228-2.517 10.101-2.623 15.656-.93 5.368 2.384 8.26 5.66 10.469 11.18 1.116 9.488 1.116 9.488-2.375 14.438-2.75 3.293-5.248 5.282-9.375 6.687a99.508 99.508 0 0 1-5 0l-.332 3.383C215.403 106.965 213.776 119.48 212 132l2.852.93c2.542.864 4.793 1.802 7.148 3.07l.709-1.557c1.758-3.326 3.852-6.407 5.947-9.525l1.4-2.095c1.479-2.213 2.961-4.424 4.444-6.635l2.898-4.334c1.915-2.863 3.83-5.725 5.747-8.587C247.44 96.851 251.72 90.426 256 84l-1.336-1.482c-5.943-6.588-7.137-11.535-6.976-20.42.567-5.624 3.253-8.085 7.187-11.848 5.308-3.822 10.6-5.219 17.125-4.25 6.266 1.967 10.243 5.722 14 11 2.455 4.91 1.665 12.209.422 17.426-2.048 4.794-5.372 7.822-9.781 10.515-6.303 2.527-13.165 1.489-19.641.059l-.719 2.07c-1.55 3.547-3.603 6.625-5.781 9.805l-2.71 4.012-1.402 2.064c-2.19 3.233-4.35 6.485-6.513 9.737l-2.48 3.718a3218.45 3218.45 0 0 0-4.696 7.063l-2.137 3.219-1.87 2.824A141.222 141.222 0 0 1 224 136c1.449 3.38 3.373 5.459 6 8a4066.643 4066.643 0 0 0 34.438-14.188A1408.026 1408.026 0 0 1 291 119l-.484-3.133c-1.425-10.684-1.102-20.012 5.171-29.055 4.555-5.676 10.775-11.082 18.22-12.063 12.14-.882 20.462.63 29.968 8.689 6.783 8.179 9.655 14.66 9.438 25.57-.798 7.639-5.073 14.497-10.313 19.992-8.538 6.913-16.108 8.827-27 8-8.508-1.154-14.453-5.534-20-12-.62-2.14-.62-2.14-1-4-7.4 2.327-14.445 5.238-21.563 8.313-8.6 3.68-17.21 7.203-26 10.406-4.454 1.66-8.818 3.509-13.18 5.398C232 146 232 146 230 146l2 6 2.125-.21c6.485-.371 10.254.331 15.414 4.312 1.947 2.53 2.137 4.768 2.461 7.898l2.648-.367c7.276-.992 14.557-1.922 21.852-2.758l2.244-.265c4.45-.5 8.778-.692 13.256-.61l-.25-2.625c.393-5.307 2.946-8.198 6.813-11.688 4.21-2.914 8.433-3.37 13.437-2.687 4.955 2.573 8.491 5.982 11 11 .591 5.683.272 10.148-3 15-5.112 4.73-9.41 5.473-16.2 5.41-3.775-.553-5.707-1.967-8.46-4.512-1.74-2.466-2.43-5.036-3.34-7.898l-2.38.275c-3.622.416-7.246.82-10.87 1.225l-3.742.434c-7.708.851-15.255 1.26-23.008 1.066l-.188 3.125c-1.068 5.097-3.095 8.043-7.518 11.025-3.212 1.19-6.31 1.145-9.69 1.14l-2.238.02c-2.44.02-4.88.024-7.32.026l-5.104.02c-3.567.012-7.135.016-10.702.015-4.558 0-9.114.027-13.672.061-3.515.022-7.03.026-10.547.025-1.679.003-3.358.012-5.037.027-16.286.136-16.286.136-22.984-4.484-1.84-1.816-1.84-1.816-2.938-3.563l-1.152-1.753c-1.586-2.935-2.047-5.41-2.035-8.684l-.008-2.063C151 158 151 158 152 155l-1.989-.146c-7.056-.573-13.927-1.619-20.882-2.92l-3.287-.601c-3.428-.628-6.854-1.26-10.28-1.895-3.45-.638-6.902-1.274-10.354-1.906-2.138-.392-4.276-.787-6.414-1.185l-2.925-.537-2.564-.475c-2.577-.43-2.577-.43-6.305-.335l-1.625 3.188c-2.798 4.849-6.213 7.866-11.375 10.125-7.427 1.683-16.083 2.169-23-1.313-5.845-3.831-9.849-9.38-12-16-.817-8.284-.718-16.104 4.441-22.898 5.714-6.284 12.023-9.252 20.496-9.665 8.31.328 14.426 3.445 20.063 9.5 5.42 6.874 5.55 13.533 5 22.063l-1 2 2.274.292c7.533 1.02 14.999 2.266 22.472 3.653l2.871.533c3.943.733 7.884 1.47 11.825 2.214 2.913.548 5.827 1.089 8.742 1.628l2.674.512c8.277 1.882 8.277 1.882 16.076-.039l1.504-1.606c3.571-3.433 6.86-4.702 11.562-6.187a971.564 971.564 0 0 0-3.5-3.563l-1.969-2.003c-2.059-1.98-4.15-3.849-6.312-5.711-4.996-4.339-9.589-9.041-14.219-13.762a207.392 207.392 0 0 0-12.214-11.398c-2.222-1.945-4.293-4.007-6.349-6.126-1.477-1.48-2.956-2.96-4.437-4.437l-1.914-1.941c-3.502-3.403-3.502-3.403-8.211-4.059-2.809.925-2.809.925-5.152 2.047-3.194 1.118-5.782 1.219-9.16 1.203l-3.31.016c-7.844-.64-15.834-4.468-21.124-10.344C64.323 74.64 61.774 66.104 63 56c2.129-9.288 6.598-15.586 14.063-21.375 9.57-5.294 21.807-5.645 31.726-.95Z"/><path fill="#F3F9FB" d="M333.45 76.168c8.444 4.481 15.2 11.126 18.863 20.02 2.058 11.414.455 19.488-6 29-4.51 5.72-11.111 10.4-18.313 11.812-8.97.718-17.37.4-24.809-5.063C295.958 125.7 295.958 125.7 295 121c-7.4 2.327-14.445 5.238-21.563 8.313-8.6 3.68-17.21 7.203-26 10.406-4.454 1.66-8.818 3.509-13.18 5.398C232 146 232 146 230 146v-2l1.639-.667a3968.49 3968.49 0 0 0 32.798-13.52A1408.026 1408.026 0 0 1 291 119l-.484-3.133c-1.425-10.684-1.102-20.012 5.171-29.055 9.34-11.64 23.592-15.442 37.762-10.644Z"/><path fill="#013D85" d="m141.378 208.519 3.306-.017 3.612.044 3.814-.002c3.449-.001 6.896.022 10.344.05 3.605.025 7.21.028 10.815.033 6.825.012 13.649.045 20.473.085 7.77.045 15.54.067 23.311.087 15.983.042 31.965.112 47.947.201v2l1.777.746c2.566 1.448 3.936 3.036 5.786 5.317 2.62 3.273 2.62 3.273 6.437 4.937l2 5H120c1.338-4.014 3.763-5.358 7-8l2-3h2l1-3c2.93-3.661 4.725-4.5 9.378-4.481Z"/><path fill="#003177" d="M119 229h163c0 8 0 8-2 11-3.287 1.096-5.718 1.134-9.18 1.147l-3.922.022-4.312.008-4.533.02c-4.108.017-8.215.028-12.323.036l-7.695.018c-8.023.019-16.046.033-24.069.041-9.267.01-18.533.036-27.8.077-7.16.03-14.32.045-21.48.048-4.279.002-8.557.011-12.835.036-4.022.024-8.045.028-12.068.018-1.477 0-2.954.006-4.43.02-2.016.017-4.03.008-6.046-.003l-3.418.007C123 241 123 241 120.606 239.47 119 237 119 237 119 229Z"/><path fill="#003277" d="m132 152 6 1-1 39h2l1 3c2.416 1.208 3.95 1.134 6.649 1.147l2.97.022 3.269.008 3.435.02c3.763.02 7.527.031 11.29.041l3.887.013c6.088.018 12.175.033 18.263.041 7.026.01 14.052.036 21.078.077 6.086.034 12.171.045 18.257.05 2.589.004 5.178.016 7.767.034 3.62.025 7.239.024 10.859.017l3.251.039c4.494-.032 7.248-.057 11.189-2.35 2.499-2.939 2.49-4.846 2.543-8.675l.088-3.789.017-3.945.077-3.992c.059-3.253.095-6.505.111-9.758h5c.1 5.32.172 10.64.22 15.96.02 1.81.047 3.619.082 5.427.048 2.605.071 5.208.089 7.812l.062 2.44.001 2.305.027 2.012c-.816 3.465-1.7 4.728-4.481 7.044-4.104.765-8.177.661-12.34.615l-3.83.017a953.58 953.58 0 0 1-10.388-.026c-3.623-.02-7.246-.014-10.87-.012-6.084 0-12.167-.02-18.251-.052-7.036-.037-14.071-.046-21.107-.039-6.767.007-13.534-.004-20.301-.024-2.881-.008-5.762-.01-8.643-.009-4.02.001-8.04-.023-12.06-.05l-3.631.009-3.31-.035-2.88-.01c-2.838-.456-3.696-1.1-5.389-3.384-.976-2.93-1.121-4.79-1.114-7.839v-2.972l.016-3.2.005-3.284c.005-3.464.018-6.928.03-10.393.006-2.347.01-4.694.014-7.04.011-5.758.028-11.515.049-17.272Z"/><path fill="#EBF6FA" d="M180 40c4.109 3.574 6.775 7.831 7.336 13.242.13 12.177.13 12.177-4.336 16.758-6.265 6-6.265 6-9 6a11351.02 11351.02 0 0 0 5.178 15.608c2.367 7.13 4.752 14.25 7.267 21.33l1.12 3.154c.692 1.939 1.39 3.876 2.097 5.81l.94 2.633.822 2.262c.647 2.475.676 4.656.576 7.203-2.073-3.11-3.12-5.85-4.355-9.371l-.675-1.91c-.723-2.051-1.44-4.104-2.157-6.156l-1.484-4.22c-.986-2.803-1.969-5.606-2.95-8.41-1.21-3.458-2.433-6.911-3.66-10.363l-1.906-5.382-.882-2.473C172 80.228 172 80.228 172 78l-1.906.14c-7.27.307-12.404-.754-17.852-5.753-5.299-5.773-6.67-11.25-6.496-18.992.574-5.412 3.659-9.483 7.254-13.395 8.5-6.103 18.19-4.868 27 0Z"/><path fill="#F3FAFB" d="M278.105 48.652c3.762 2.676 6.83 6.218 8.895 10.348.65 7.533 1.067 14.944-4 21-4.637 4.559-8.732 6.365-15.25 6.438-3.681-.161-7.154-.644-10.75-1.438l-.719 2.07c-1.55 3.547-3.603 6.625-5.781 9.805l-2.71 4.012-1.402 2.064c-2.19 3.233-4.35 6.485-6.513 9.737l-2.48 3.718a3218.45 3218.45 0 0 0-4.696 7.063l-2.137 3.219-1.87 2.824c-3.225 4.743-3.225 4.743-4.692 6.488h-2c1.802-3.957 4.24-7.485 6.656-11.082l1.4-2.095c1.479-2.213 2.961-4.424 4.444-6.635l2.898-4.334c1.915-2.863 3.83-5.725 5.747-8.587C247.44 96.851 251.72 90.426 256 84l-1.336-1.482c-5.943-6.588-7.137-11.535-6.976-20.42.567-5.624 3.253-8.085 7.187-11.848 7.385-5.317 15.307-5.958 23.23-1.598Z"/><path fill="#003176" d="m204.38 209.791 3.996-.058c1.442-.015 2.885-.029 4.327-.042l2.205-.02a3407.1 3407.1 0 0 1 11.56-.076c3.181-.018 6.362-.053 9.543-.103 3.849-.06 7.696-.09 11.545-.1 1.463-.009 2.925-.028 4.387-.057 12.86-.245 12.86-.245 17.369 3.528 1.473 1.572 1.473 1.572 2.688 3.137l2.25 2.812L276 221l3 1 2 5H122c3.636-4.242 7.042-8.146 11-12l1.75-2.313c3.485-2.613 7.04-2.01 11.25-1.687l-2 6h-5l1 6 8-1v-2h2v3l10-2v2l10-2v2l3.25-.5c4.593-.612 9.124-.5 13.75-.5l1-2h4v3c2.97-.342 2.97-.342 6-1l1-2h3v3h6v-3h4v3h7l-1-3h4l1 2c3.03.658 3.03.658 6 1l-1-3h4v-2h-6v2h-3v-2l-5-1 1-2 7 2v-2l9 2v-2l3 1-2 1v3h-3v3l1.688-.473c4.617-1.177 8.34-1.699 13.117-.886 2.724.446 5.445.682 8.195.921l2.875.254L261 223l1-2 8 2-1-2c-3.03-.658-3.03-.658-6-1v-5l-3.937-.438c-3.938-.437-3.938-.437-5.063-1.562-2.35-.235-4.706-.414-7.062-.563l-3.91-.253L240 212l-1 2-7-2v2l-9-2v2h-2v-2h-7v2h-2v-2h-7l-1 2v-2h-7v2h-2v-3c3.325-1.108 5.876-1.16 9.38-1.209Z"/><path fill="#F1F9FC" d="M223.281 58.695c5.368 2.384 8.26 5.66 10.469 11.18 1.116 9.488 1.116 9.488-2.375 14.438-2.75 3.293-5.248 5.282-9.375 6.687a99.508 99.508 0 0 1-5 0l-.332 3.383C215.403 106.965 213.776 119.48 212 132l2 1-6-1 2-1-.068-3.514c.002-4.172.497-8.144 1.162-12.267.11-.7.222-1.398.336-2.118.35-2.202.71-4.401 1.07-6.601l.723-4.516c.586-3.662 1.18-7.323 1.777-10.984l-2.836-.406c-3.937-.74-5.403-1.687-8.164-4.594-3.298-5.207-4.682-9.813-3.605-15.93 1.333-4.56 3.767-7.311 7.23-10.445 5.228-2.517 10.101-2.623 15.656-.93Z"/><path fill="#C7DCEE" d="M98 41c3.394 1.595 6.294 3.39 9 6 1 3.688 1 3.688 1 7l1 3c.54 6.247-.404 11.974-2 18h-1l.14-3.945c.038-1.727.075-3.453.11-5.18l.102-2.594c.089-5.784-.583-8.837-4.352-13.281-3.027-2.378-6.242-2.357-10.031-2.258-2.893.379-4.73 1.427-6.969 3.258l-1 3 1.875-2.5c2.55-2.55 4.552-2.965 8.125-3.125 3.674.202 4.872.537 8 2.688 4.183 6.144 4.276 12.182 4.125 19.374l-.027 2.506c-.024 2.02-.06 4.038-.098 6.057-7.54 4.496-7.54 4.496-12 4h-3l-3-2h-2c-3.348-5.245-4.945-9.879-6-16h-1c.258-6.538.91-10.671 5-16l.875-2.688C87.319 41.29 92.853 40.093 98 41Z"/><path fill="#046FB8" d="M134 112c3.934.236 5.84 2.505 8.484 5.227l2.586 2.628 2.68 2.77c5.357 5.492 10.655 10.92 16.567 15.818 1.836 1.699 3.24 3.52 4.683 5.557l-2.23.7c-6.27 1.918-6.27 1.918-11.083 6.113-4.13 3.362-7.998 2.277-13.117 1.777-3.634-.6-7.039-1.552-10.57-2.59-.05-5.09-.086-10.18-.11-15.271-.01-1.732-.024-3.465-.04-5.197-.025-2.487-.036-4.974-.045-7.462l-.032-2.355c0-1.906.105-3.812.227-5.715l2-2Z"/><path fill="#E0F2F9" d="M312 143c4.955 2.573 8.491 5.982 11 11 .591 5.683.272 10.148-3 15-5.112 4.73-9.41 5.473-16.2 5.41-3.775-.553-5.707-1.967-8.46-4.512-1.74-2.466-2.43-5.036-3.34-7.898l-2.443.291c-3.685.434-7.37.853-11.057 1.272l-3.844.458c-6.458.724-12.255 1.2-18.656-.021v-1c4.001-.432 8.003-.859 12.006-1.282 1.358-.144 2.717-.29 4.076-.436 1.963-.212 3.927-.419 5.89-.626l3.571-.38c3.501-.28 6.946-.323 10.457-.276l-.25-2.625c.393-5.307 2.946-8.198 6.813-11.688 4.21-2.914 8.433-3.37 13.437-2.687Z"/><path fill="#004086" d="m141.378 208.519 3.306-.017 3.612.044 3.814-.002c3.449-.001 6.896.022 10.344.05 3.605.025 7.21.028 10.815.033 6.825.012 13.649.045 20.473.085 7.77.045 15.54.067 23.311.087 15.983.042 31.965.112 47.947.201v1l-70 1v3h2l1-2v3h-5l1-3h-5v3h-3v-3l-8 2v-2l-5 1 1 4h5l-1 3 4 1c-4.12 1.998-7.452 2.178-12 2v-2l-2.75 1c-3.25 1-3.25 1-7.25 1v-2l-2.187 1c-2.83 1.006-4.842 1.17-7.813 1v-3h-2v2l-8 1v-3l-2-1v-3l6 1 2-6c-5.784-.014-5.784-.014-10.863 2.402-1.419 1.496-2.782 3.044-4.137 4.598h-2l-.687 1.688c-1.689 2.974-3.78 5.032-6.313 7.312h-2c1.338-4.014 3.763-5.358 7-8l2-3h2l1-3c2.93-3.661 4.725-4.5 9.378-4.481Z"/><path fill="#042F70" d="M307 89c4.911.702 9.608 1.505 14.438 2.563l3.746.816L328 93c.027 2.146.046 4.292.063 6.438l.035 3.62C328 106 328 106 327 107a253.531 253.531 0 0 0-.563 8.563l-.13 2.443A1762.98 1762.98 0 0 0 326 124a563.243 563.243 0 0 1-5-.375c-.928-.07-1.856-.14-2.813-.21-3.783-.492-7.486-1.49-11.187-2.415V89Z"/><path fill="#0471BA" d="M265 132v30l2 1-15 1-1.125-3.25c-1.811-4.105-3.723-5.822-7.875-7.75-3.663-.595-7.293-.868-11-1l-2-6c4.166-1.774 8.333-3.543 12.5-5.313l3.555-1.513C262.968 132 262.968 132 265 132Z"/><path fill="#046DB5" d="M186 111h26c-1.125 13.5-1.125 13.5-2 20l-2.414.184-3.211.254-3.164.246c-3.104.305-6.141.768-9.211 1.316a2651.832 2651.832 0 0 1-3-9.313l-.867-2.67-.82-2.568-.762-2.364C186 114 186 114 186 111Z"/><path fill="#FAFDFD" d="M55 121h18v23H55v-23Z"/><path fill="#0F6AB1" d="m280.313 162.938 2.675.027L285 163v1l-14 1v39h-2v10c-2-1.375-2-1.375-4-3v-2H138v-2l1.99-.004c15.975-.037 31.948-.096 47.922-.18 7.725-.04 15.45-.072 23.174-.087 6.732-.013 13.464-.04 20.196-.084 3.565-.022 7.13-.038 10.696-.037 3.977.001 7.954-.03 11.931-.062l3.595.015 3.276-.042 2.852-.011c2.495-.312 2.495-.312 4.167-2.294 1.883-3.472 1.682-7.06 1.713-10.917l.054-2.539c.054-2.67.088-5.338.122-8.008.033-1.813.067-3.625.103-5.438.085-4.437.152-8.874.209-13.312 3.523-.746 6.707-1.11 10.313-1.063Z"/><path fill="#00387F" d="m152 212 1 2 2-2c2.625-.125 2.625-.125 5 0v2l3-2c3.188-.125 3.188-.125 6 0v3h2v2l3 1v2h3v3h-7v-2l-2.75 1c-3.25 1-3.25 1-7.25 1v-2l-2.188 1c-2.829 1.006-4.841 1.17-7.812 1v-3h-2v2l-8 1v-3l-2-1v-3l6 1 .375-1.938L145 213c2.463-1.231 4.28-1.072 7-1Z"/><path fill="#3E5475" d="M98 41c3.394 1.595 6.294 3.39 9 6 1 3.688 1 3.688 1 7l1 3c.54 6.247-.404 11.974-2 18h-1l.14-3.945c.038-1.727.075-3.453.11-5.18l.102-2.594c.089-5.784-.583-8.837-4.352-13.281-3.027-2.378-6.242-2.357-10.031-2.258-2.893.379-4.73 1.427-6.969 3.258l-1 3 1.875-2.5c2.55-2.55 4.552-2.965 8.125-3.125 3.674.202 4.872.537 8 2.688 4.042 5.936 4.28 11.948 4.125 18.874l-.027 2.362c-.024 1.9-.06 3.8-.098 5.701l-2-1c-.98-4.407-1.01-8.555-.938-13.063.033-4.356-.028-7.975-2.062-11.937-3.606-1.202-6.21-1.327-10-1-4.046 2.428-5.588 4.57-7 9-.315 3.15-.315 3.15-.25 6.438l-.016 3.308C84.01 73.117 84.802 75.85 86 79c-3.06-2.51-3.752-4.9-4.688-8.688l-.761-3.011L80 65h-1c.258-6.538.91-10.671 5-16l.875-2.688C87.319 41.29 92.853 40.093 98 41Z"/><path fill="#4B6387" d="M94.063 55.375C97 56 97 56 98.64 57.43c2.094 3.96 1.932 7.902 2.046 12.32l.104 2.691c.082 2.186.152 4.372.209 6.559l-3 1c-2-3-2-3-2-7h-3l6 10h-8l-2-4h2l-1.438-2.25C86.888 72.043 86.266 67.4 87 62c2.659-5.726 2.659-5.726 7.063-6.625Z"/><path fill="#003076" d="M138 110h45l2 6c-6.05.099-12.1.171-18.152.22-2.058.02-4.117.047-6.175.082-2.959.048-5.917.071-8.876.089l-2.788.062c-6.383.002-6.383.002-9.621-2.352C138 112 138 112 138 110Z"/><path fill="#E7F4F9" d="M312 143c4.955 2.573 8.491 5.982 11 11 .07 1.54.085 3.083.063 4.625l-.028 2.477L323 163l-2 1-1-3h-2l-.75 1.875c-1.456 2.476-2.628 3.076-5.25 4.125l4-5c-1.76-3.962-4.03-8.015-8-10v-2c-4.08 1.302-4.08 1.302-8 3v-5l-3-1c4.711-3.737 8.998-4.82 15-4Z"/><path fill="#577AAE" d="M208 69h19v13h-19V69Z"/><path fill="#243A5A" d="m63.438 118.813 2.681-.038 2.565-.005 2.36-.013C73 119 73 119 75 121c.243 2.69.243 2.69.23 6.066l-.005 3.659-.037 3.838-.002 3.85C75.14 147.86 75.14 147.86 74 149c-1.477.099-2.958.13-4.438.133l-2.71.004-2.852-.012-2.852.012-2.71-.004-2.504-.004C54 149 54 149 53 148c-.1-2.06-.13-4.125-.133-6.188l-.004-3.804.007-1.991c.005-2.009 0-4.017-.007-6.025l.004-3.804.004-3.52c.277-5.719 6-3.852 10.566-3.856ZM55 121v23h18v-23H55Z"/><path fill="#02367B" d="M243.345 109.915c3.323.07 6.645.164 9.968.273l3.498.056 3.365.111 3.09.083c3.412.701 4.633 1.826 6.734 4.562.39 3.234.39 3.234.25 6.75l-.11 3.547L270 128l-5 2-.078-2.082-.172-2.73-.14-2.708c-.395-2.57-.395-2.57-2.323-4.103-2.693-1.622-4.365-1.798-7.49-1.889l-2.969-.107-3.078-.068-3.125-.104A777.583 777.583 0 0 0 238 116c2.298-5.974 2.298-5.974 5.345-6.085Z"/><path fill="#0C6DB1" d="M237 115c3.73.052 7.458.147 11.188.25l3.197.043c4.545.143 7.78.261 11.834 2.426 2.158 2.763 2.321 4.07 2.094 7.531l-.137 2.703L265 130c-6.79 3.594-13.805 6.324-21 9v-2c2.647-1.46 3.894-2 7-2l1-3h6v-2l5-1v-9c-5.112-2.074-9.463-2.244-14.875-2.125l-2.375.027c-1.917.024-3.833.06-5.75.098-1.765 3.088-2 4.233-2 8-4.071 3-4.071 3-7 3v2a282.832 282.832 0 0 1-5 5l-1 2 4 2v3h2v-2c3.839-1.483 6.062-2.224 10-1-1.247.65-2.498 1.296-3.75 1.938l-2.11 1.09C233 144 233 144 229 145l-6-7c1.336-3.705 2.997-6.634 5.313-9.813 3.104-4.276 5.92-8.688 8.687-13.187Z"/><path fill="#2B426A" d="m267.625 55.688 3.414.011C274 56 274 56 277 58c.293 2.383.293 2.383.188 5.125l-.083 2.758L277 68l-4-2v7h2l-1-4 3 1v8l-5 1-1-4 4 2v-2l-4-2c-.25-5.625-.25-5.625 2-9l-10-1v-1l12-1c-2.7-3.355-2.7-3.355-6.438-3.25-2.713.19-4.992.428-7.562 1.25l-1 5 2 1h-2v2l2 1h-2c2.068 2.797 3.144 3.027 6.688 3.688L270 72v2c-2 2-2 2-4.059 2.117l-2.378-.242-2.372-.195c-2.963-.92-3.733-1.96-5.191-4.68-.469-2.91-.469-2.91-.5-6.063l-.094-3.16C256 59 256 59 258.117 57.148c3.364-1.34 5.894-1.515 9.508-1.46Z"/><path fill="#013175" d="M134 112c3.293.319 4.865 1.545 7 4-1 3-1 3-3 4l-1 31-5-1c-.05-5.09-.086-10.18-.11-15.271-.01-1.732-.024-3.465-.04-5.197-.025-2.487-.036-4.974-.045-7.462l-.032-2.355c0-1.906.105-3.812.227-5.715l2-2Z"/><path fill="#1C3D71" d="M308 150v2l3 1c1.605 1.629 1.605 1.629 3.188 3.563l1.605 1.94L317 160c-1.722 3.765-3.992 6.15-7 9-4.582-2.068-7.947-5.016-11-9-.688-3.188-.688-3.188 0-6 2.638-3.713 4.505-4.5 9-4Z"/><path fill="#0B589E" d="M175.563 211.938 178 212v2l3-2c2.688-.125 2.688-.125 5 0v3h3v-3h5v2l4 1v2h-14v-2h-3v2l3 1v2h3v-2h6v2h4v-2h6v2h4v-2h5v2h-4v3h-6v-3h-3l-1 3h-6v-3h-4l-1 3h-6v-2l-3-1v-2l-1.875-.25C174 217 174 217 172.75 214.937L172 213c1-1 1-1 3.563-1.063Z"/><path fill="#092F67" d="M314 88h19v16l3 1c.46 8.788.46 8.788-1.188 13.125C333 120 333 120 330.387 120.117L328 120c-.027-2.146-.046-4.292-.063-6.438l-.035-3.62C328 107 328 107 329 106c.237-2.528.421-5.03.563-7.563L330 91l-16-2v-1Z"/><path fill="#BFCEDF" d="m272 57 3 2v2l-3 1 3 2-1.5 1.125c-1.773 1.88-1.773 1.88-1.875 4.938L272 73l3 2v2c-1.938-.813-1.938-.813-4-2l-1-3-3.313.125C263 72 263 72 260 70c-.293-2.602-.293-2.602-.188-5.625l.083-3.04L260 59c4.228-1.83 7.36-2.344 12-2Z"/><path fill="#1872AD" d="M204.438 146.813C208 147 208 147 210 149c-.321 3.532-.878 6.634-2 10 .093 2.066.093 2.066.438 4.188L209 167h-9c.095-.699.19-1.397.29-2.117.11-.91.22-1.82.335-2.758l.352-2.742L201 157l-2-2c.696-7.929.696-7.929 5.438-8.188Z"/><path fill="#00397E" d="M245 212c6.717-.32 11.757.52 18 3v5h6l1 3-3.938-.563c-2.148-.335-2.148-.335-4.062-.437l-1 1c-2.02.072-4.042.084-6.063.063l-3.347-.028L249 223l-1-3h3v-2h-4v-2l-3 1v-2h2l-1-3Z"/><path fill="#013578" d="M270 131v31h-5v-30c2-1 2-1 5-1Z"/><path fill="#A2E0F8" d="M112 87a849.807 849.807 0 0 1 11.625 10.063l2.164 1.91c2.48 2.274 4.845 4.634 7.211 7.027 10.177 10.413 10.177 10.413 20.96 20.18 3.46 3.087 6.68 6.42 9.918 9.735 2.284 2.323 4.399 4.27 7.122 6.085l-1 3-4-1 2-1a971.564 971.564 0 0 0-3.5-3.563l-1.969-2.003c-2.059-1.98-4.15-3.849-6.312-5.711-4.996-4.339-9.589-9.041-14.219-13.762a207.237 207.237 0 0 0-12.223-11.402c-2.185-1.917-4.205-3.96-6.214-6.059-4.213-4.278-8.73-7.947-13.563-11.5l2-2Z"/><path fill="#064488" d="M215 105h1v5h22l-2 5c-2.824.941-4.53 1.117-7.45 1.098l-2.568-.01-2.67-.025-2.705-.014c-2.202-.012-4.405-.03-6.607-.049l1-11Z"/><path fill="#06478D" d="M138 110h45v1l-2.583.076c-3.177.095-6.355.195-9.532.296-1.373.043-2.745.085-4.118.125-1.978.058-3.957.122-5.935.187l-3.602.11c-2.844.181-5.46.564-8.23 1.206 1.157 1.384 1.157 1.384 4.326 1.114 1.476 0 2.952-.006 4.428-.016l2.35-.005c2.486-.005 4.972-.018 7.458-.03 1.682-.006 3.364-.01 5.045-.014 4.131-.011 8.262-.028 12.393-.049v2c-6.05.099-12.1.171-18.152.22-2.058.02-4.117.047-6.175.082-2.959.048-5.917.071-8.876.089l-2.788.062c-6.383.002-6.383.002-9.621-2.352C138 112 138 112 138 110Z"/><path fill="#A9DFF4" d="M88 142c8.3 1.068 16.52 2.418 24.746 3.945l2.871.533c3.943.733 7.884 1.47 11.825 2.214 2.913.548 5.827 1.089 8.742 1.628l2.674.512c8.213 1.78 8.213 1.78 16.142.168l-1 3c-5.868.98-10.549.876-16.355-.293l-2.353-.443c-2.496-.472-4.987-.962-7.48-1.452a3196.52 3196.52 0 0 1-17.587-3.381c-4.127-.8-8.259-1.576-12.39-2.356A2909.92 2909.92 0 0 1 87 144l1-2Z"/><path fill="#ACE3F6" d="m292 117 2 4-2.105.777c-7.161 2.696-14.19 5.615-21.207 8.66-7.001 3.034-14.025 5.904-21.192 8.522-5.154 1.887-10.202 3.976-15.238 6.158C232 146 232 146 230 146v-2l1.639-.667a3942.9 3942.9 0 0 0 35.836-14.793c4.43-1.853 8.864-3.689 13.337-5.435l2.143-.837c1.834-.71 3.672-1.412 5.51-2.112 2.666-.895 2.666-.895 3.535-3.156Z"/><path fill="#A4DFF6" d="m256 84 4 1h-3l-.719 2.07c-1.55 3.547-3.603 6.625-5.781 9.805l-2.71 4.012-1.402 2.064c-2.19 3.233-4.35 6.485-6.513 9.737l-2.48 3.718a3218.45 3218.45 0 0 0-4.696 7.063l-2.137 3.219-1.87 2.824c-3.225 4.743-3.225 4.743-4.692 6.488h-2c1.802-3.957 4.24-7.485 6.656-11.082l1.4-2.095c1.479-2.213 2.961-4.424 4.444-6.635l2.898-4.334c1.915-2.863 3.83-5.725 5.747-8.587C247.44 96.851 251.72 90.426 256 84Z"/><path fill="#142E55" d="M53 122h1l1 21h19l-1 4v-2l-2 1 1 3c-2.98.027-5.958.047-8.938.063l-2.576.025-2.45.01-2.27.016C54 149 54 149 53 148a115.277 115.277 0 0 1-.098-5.785l.01-3.545.026-3.732.013-3.745c.012-3.064.028-6.129.049-9.193Z"/><path fill="#1D72A9" d="m247 176 1 3c-2.928 2.928-6.013 2.308-9.938 2.319l-2.484.03c-2.716.031-5.432.048-8.148.065-1.88.019-3.761.038-5.642.059-4.955.051-9.91.09-14.865.128-5.054.04-10.107.091-15.161.141-9.92.097-19.841.181-29.762.258v-3l3.003.02c9.344.061 18.687.106 28.03.135 4.803.016 9.607.037 14.41.071 4.636.033 9.272.05 13.908.059 1.768.005 3.537.016 5.305.032 2.478.022 4.955.025 7.433.024l2.212.032c4.414-.027 7.137-.747 10.699-3.373Z"/><path fill="#003075" d="M186 111h26v4h-25l-1-4Z"/><path fill="#3D5577" d="M98 52c2.23 2.23 3.6 4.199 5 7-.09 2.89-.234 5.744-.438 8.625l-.158 2.43c-.13 1.982-.266 3.963-.404 5.945h-1l-.148-3.832-.227-4.98c-.03-.834-.062-1.667-.094-2.526l-.117-2.432-.095-2.237c-.227-2.306-.227-2.306-2.319-4.993-3.415-.667-3.415-.667-7 0-2.758 2.665-3.897 4.3-4.46 8.121.027 1.095.056 2.189.085 3.316l.04 3.31c.344 3.338 1.154 6.12 2.335 9.253-3-2.727-4.741-5.23-5.336-9.297-.096-6.02.714-10.76 4.336-15.703 3.733-2.488 5.584-2.542 10-2Z"/><path fill="#1871AA" d="m295 86 1 2c-.742 1.805-.742 1.805-1.875 3.875-4.55 8.367-3.792 17.957-2.125 27.125-15.429 8-15.429 8-20 8v-4l3.438-.25c3.45-.412 6.198-1.337 9.347-2.797l2.407-1.104L289 118l-.016-1.893c-.02-2.869-.034-5.738-.046-8.607l-.026-2.977c-.019-5.61.25-10.975 1.088-16.523l1.938-.438c2.037-.372 2.037-.372 3.062-1.562Z"/><path fill="#B0E4F6" d="M215 91h2c-1.346 13.715-3.065 27.356-5 41l2 1-6-1 2-1-.068-3.514c.002-4.172.497-8.144 1.162-12.267l.336-2.118c.35-2.202.71-4.401 1.07-6.601l.723-4.516c.586-3.662 1.18-7.323 1.777-10.984Z"/><path fill="#D2E8F5" d="M94.625 53.375C98 54 98 54 99.679 55.741c1.492 2.551 1.739 4.091 1.833 7.025l.107 2.695.069 2.789.103 2.836c.082 2.305.152 4.609.209 6.914l-2-1-.148-3.613-.227-4.7c-.03-.785-.062-1.57-.094-2.38l-.117-2.295-.095-2.11c-.24-2.227-.24-2.227-2.319-4.902-2.957-.667-2.957-.667-6 0-2.697 2.877-2.99 4.89-3.375 8.813C87.778 70.297 89.32 73.87 91 78v3c-4.784-5.655-5.796-10.64-5.48-17.988.928-5.82 3.043-8.592 9.105-9.637Z"/><path fill="#1468A6" d="M265 132v30l2 1-15 1-3-9 3 1c1.188 2.563 1.188 2.563 2 5h10v-26l-6 1c5.217-4 5.217-4 7-4Z"/><path fill="#094B91" d="M256 215h7v5h6l1 3-3.938-.563c-2.148-.335-2.148-.335-4.062-.437l-1 1c-2.333.04-4.667.042-7 0 0-3.204.743-5.094 2-8Z"/><path fill="#1A72AE" d="M214 116h12v1h-11l-1 13 4 2 1-2v3l3-1 1-3h2l1-4h2c-1.45 4.11-3.511 7.433-6 11-3.495-1.112-6.745-2.316-10-4-.236-5.778.132-10.513 2-16Z"/><path fill="#495D7C" d="m276 62 1 6-4-2v7h2l-1-4 3 1v8l-5 1-1-4 4 2v-2l-4-2c-.25-5.625-.25-5.625 2-9l-10-1v-1c1.415-.197 2.832-.382 4.25-.563l2.39-.316c2.365-.121 4.111.183 6.36.879Z"/><path fill="#1366A3" d="M177 86h2c3.294 7.859 5.934 15.734 8 24h25v1l-27 1-4-11.875-1.266-3.742-.984-2.938-1.016-3.015C177 88 177 88 177 86Z"/><path fill="#A8BDD7" d="M310 87h23v1l-13 1 10 2-1 14h-1V93c-1.481-.2-1.481-.2-2.992-.402l-3.883-.535-3.867-.528C314 91 314 91 312 90v-2l-2-1Z"/><path fill="#748CA9" d="M98 41c3.161 1.79 6.09 3.828 9 6l-1 3-2.938-2c-4.919-2.83-9.89-2.726-15.332-1.48L86 47v-3c4.214-2.408 7.148-3.856 12-3Z"/><path fill="#26406A" d="M166 41h2v2h2v2h-2l1 3 2 1-1 5h-2v2h-2v-2h-3v-2h3v-3l-3-1 1-5h2v-2Z"/><path fill="#B9D0E9" d="M100.75 48.125c2.844 2.37 4.54 4.588 6.25 7.875-.25 2.875-.25 2.875-1 5h-1l-.55-1.898-.763-2.477-.738-2.46c-.863-2.497-.863-2.497-3.949-4.165-3.96-.698-8.26-1.198-11.695 1.168C84.795 54.09 83.179 57.357 82 61c-.905-2.475-1.168-3.592-.145-6.07l1.332-2.055 1.293-2.07c4.17-4.951 10.61-4.996 16.27-2.68Z"/><path fill="#405A83" d="M155 57c2 0 2 0 3.625 1.5L160 60v-3h3l-2 5h2v5h-3v2h-3v-2h-2V57Z"/><path fill="#4A638A" d="M178 57v2h-4v2h3v4h-3v2h4v2c-2.313.25-2.313.25-5 0-2.286-2.128-2.923-3.474-3.375-6.563C170 60 170 60 171.188 58.188 173.56 56.633 175.22 56.776 178 57Z"/><path fill="#1C72AB" d="m295 121 4 7-2 1-4-5c-5.114 1.41-10.01 2.915-14.813 5.188-3.206 1.495-5.585 2.277-9.187 1.812 3.162-3.162 7.23-4.407 11.313-6.125l2.591-1.129 2.522-1.066 2.294-.977c2.532-.78 4.645-.828 7.28-.703Z"/><path fill="#384C6D" d="m55.858 118.886 2.396.016 2.588.01 2.72.025 2.733.014c2.235.012 4.47.028 6.705.049v2H55v22h-1c-.196-3.812-.38-7.625-.563-11.438l-.17-3.298-.146-3.135-.143-2.904c.027-2.77.113-3.17 2.88-3.339Z"/><path fill="#6D85AA" d="m259 58 .078 2.773.172 3.602.14 3.586c.266 3.152.266 3.152 2.657 4.453L264 73v2l4 1c-1.439-.06-2.876-.15-4.313-.25l-2.425-.14C259 75 259 75 257.219 73.343c-1.574-3.027-1.517-5.2-1.406-8.594l.082-3.266L256 59c2-1 2-1 3-1Z"/><path fill="#13366B" d="M210 69h15l-4 5h-2v2l-4-1v-2l-5-2v-2Z"/><path fill="#0A5398" d="M155 212h5v2l3-2c3.188-.125 3.188-.125 6 0v3l2 1c-1 1-1 1-3.563 1.063L165 217v-2l-2.25 1c-2.75 1-2.75 1-6.75 1v-2h-2l1-3Z"/><path fill="#C4DAF0" d="m92 57 5 1c2.08 6.759 2.211 12.956 2 20-2.846-2.846-2.456-5.804-2.625-9.625l-.117-2.14C96.164 64.49 96.08 62.744 96 61h-4c-2.326 4.652-.985 11.074 0 16-3.176-3.176-3.18-6.134-3.25-10.438l-.078-2.87C89.048 60.61 89.952 59.28 92 57Z"/><path fill="#E2ECF6" d="M304 156c3.375.313 3.375.313 7 1 2 3 2 3 1.625 5.188L312 164l-4 1c-4.004-4.395-4.004-4.395-5-6l1-3Z"/><path fill="#2D7DB0" d="m187 116 4 1 .375 3.188c.531 4.1.531 4.1 2.625 8.812l16 1v1l-2.414.184-3.211.254-3.164.246c-3.087.304-6.152.806-9.211 1.316l-5-17Z"/><path fill="#E6EEF6" d="M275 59v2c-2.812.937-4.587 1.135-7.5 1.125l-2.344.008C263 62 263 62 260 61l1-3c4.68-1.98 9.852-1.765 14 1Z"/><path fill="#046EB6" d="m153 171 5.273 4.59c1.683 1.48 1.683 1.48 3.727 2.41v4l4 1-6 1v-3h-7v-10Z"/><path fill="#0B589D" d="M228 212c2.313 1 2.313 1 4 2v-2l5 1-2 4c-3.625.201-5.865-.142-9-2v2h-6c0-2 0-2 1.188-3.625 2.439-1.85 3.807-1.741 6.812-1.375Z"/><path fill="#00377F" d="M181 215h3v2l3.625-1.125c4.029-1.032 6.528-.606 10.375 1.125v-2c1.938.375 1.938.375 4 1l1 2h-6v2h-4v-2h-6v2h-3v-2l-4-1 1-2Z"/><path fill="#09579E" d="M216 218h7v2h3v-2h6v2l-3 1v2h-6l-1-3h-4v2h-5v-2h3v-2Z"/><path fill="#003075" d="M214 111h14l-1 4h-13v-4Z"/><path fill="#0C63A5" d="M265 164v28h-1l-1-25h-9l-1 4v-5l5.438-1 3.058-.563C264 164 264 164 265 164Z"/><path fill="#AABCCF" d="M261 61h2v2h12l-3 4c-2.918.39-2.918.39-6.188.25l-3.292-.11L260 67a99.984 99.984 0 0 1 0-5l1-1Z"/><path fill="#2578B1" d="M149 42h2l-.875 1.688L149 46l-1.125 2.125C145.552 55.757 147.068 62.774 150 70c-3.875-1.75-3.875-1.75-5-4a233.124 233.124 0 0 1-.125-8.875l-.012-2.473.004-2.394.004-2.183c.133-2.134.547-4.023 1.129-6.075h3v-2Z"/><path fill="#0D336D" d="m55 145 16 1 1 3H54l1-4Z"/><path fill="#1D73AB" d="M152 128c6.325 4.395 11.672 9.45 17 15-3.188 2.125-5.265 2.502-9 3l1-3 2-1c-2.673-4.49-5.49-7.484-9.61-10.703L152 130v-2Z"/><path fill="#CCEDF8" d="M166.188 35.688c5.018.41 9.356 1.973 13.812 4.312l1 2-1.8-.656c-7.667-2.575-15.307-3.62-23.2-1.344v2l-4-1c4.962-3.577 8.215-4.727 14.188-5.313Z"/><path fill="#D8F6FC" d="m158 147 2 1-6 9c-.243 3.433-.243 3.433-.125 7.188l.055 3.855L154 171c-2.227-2.227-2.917-3.794-3.133-6.938l.008-2.062-.008-2.063C151 158 151 158 152 155l-3-1 2.313-.188c2.905-.576 2.905-.576 4.437-3.312L157 148l1-1Z"/><path fill="#072F6B" d="M217.5 76.375C220 77 220 77 225 82h-15c5-5 5-5 7.5-5.625Z"/><path fill="#2475AC" d="m226 132 1 3-2 3 4 2v3h2v-2c3.839-1.483 6.062-2.224 10-1-1.247.65-2.498 1.296-3.75 1.938l-2.11 1.09C233 144 233 144 229 145l-6-7c1.875-4.875 1.875-4.875 3-6Z"/><path fill="#2177B1" d="M184 133h2v2l3 1-1.68 1.426-2.195 1.887-2.18 1.863c-2.137 1.865-2.137 1.865-3.945 4.824-5.75-.75-5.75-.75-8-3h8l1-4 2 1v-3h3l-1-4Z"/><path fill="#D8EEF8" d="M277 71h1c1.125 6.75 1.125 6.75 0 9l3 1c-5.503 5.003-9.25 5.492-16.621 5.176L262 86v-1l2.047-.184 2.703-.254c.882-.08 1.763-.162 2.672-.246A44.11 44.11 0 0 0 276 83v-3l-3-1 3-1 1-7Z"/><path fill="#E2F2FA" d="m174 65 5 1 1 3 3 1-7 6-1-4-1-3h4v-2h-4v-2Z"/><path fill="#2373A6" d="M204.563 146.938 208 147l2 4-2 2v-3l-1.813.563C204 151 204 151 201 150l2 6h-3l-1-1c.855-7.98.855-7.98 5.563-8.063Z"/><path fill="#2475AB" d="M58 108c15.256-1.378 15.256-1.378 22.5 4a106.537 106.537 0 0 1 4.5 4l-2 2-2.563-2.313C73.453 109.968 66.802 109.42 58 109v-1Z"/><path fill="#2378B0" d="M228.313 59.125 230 60l-2 2-2.875-1.5c-5.589-2.397-11.505-2.338-17.25-.5L206 61v-2c8.292-4.146 14.065-3.888 22.313.125Z"/><path fill="#1C71A8" d="M295 146h2c-2 4-2 4-3.063 5.875-1.283 2.67-1.283 2.67-1.937 8.125l-14 1v-2h13l-.25-3.125c.29-4.488 1.41-6.45 4.25-9.875Z"/><path fill="#2E7EB5" d="m40 121 2 1-.992 2.508c-1.118 3.874-1.233 7.38-1.133 11.367l.027 2.086c.024 1.68.06 3.36.098 5.039l-3-2a51.259 51.259 0 0 1-.375-7.313l-.023-3.988c.405-3.768 1.188-5.676 3.398-8.699Z"/><path fill="#0A5799" d="M207 212h5v2h2v-2h6v2h-3v3h-6l-1-3h-3v-2Z"/><path fill="#2574AA" d="m301 130 3 1.875c8.413 4.717 16.566 4.363 26 4.125v2c-19.161.865-19.161.865-27-4-1.29-2.14-1.29-2.14-2-4Z"/><path fill="#2172A8" d="M235 145v2h-3l1 2c2.52.393 2.52.393 5.438.5 5.34.279 5.34.279 7.562 2.5-3.311 1.104-5.247.927-8.688.563l-3.011-.31L232 152l-2-6c2-1 2-1 5-1Z"/><path fill="#D7F2FA" d="M124 53h1c.054 2.542.094 5.083.125 7.625l.05 2.16c.059 6.316-.99 11.27-5.175 16.215.53-3.44 1.185-6.807 2-10.188 1.195-5.225 1.62-10.474 2-15.812Z"/><path fill="#1872B0" d="m115 85 1 2 3 1v4l1.813.813c2.16 1.172 3.545 2.38 5.187 4.187l-3 1-10-10 2-3Z"/><path fill="#003C83" d="m136 210 2 1a516.663 516.663 0 0 1-3.375 3.5l-1.898 1.969C131 218 131 218 129 218l-.688 1.688c-1.688 2.974-3.779 5.032-6.312 7.312h-2c1.338-4.014 3.763-5.358 7-8l2-3h2l1-3c2.063-1.688 2.063-1.688 4-3Z"/><path fill="#9CD7F0" d="M88 142c2.208.312 4.417.624 6.625.938l3.727.527c3.224.473 6.436.987 9.648 1.535-4.232 2.821-7.15 1.827-12 1a225.377 225.377 0 0 1-9-2l1-2Z"/><path fill="#C9EAF6" d="M221 58v1l-3.5.125c-5.217.623-8.74 3.34-12.5 6.875l-1 2h-2c1.13-4.392 3.2-6.595 6.848-9.063 3.93-1.711 7.959-1.317 12.152-.937Z"/><path fill="#0E6FAE" d="M91 145c5.69.538 11.349 1.14 17 2-4.406 2.203-6.975 3.11-12 3v-2l-5-2v-1Z"/><path fill="#1A72AC" d="M258 130h6c-2.035 2.035-3.294 2.67-5.914 3.727l-2.305.937-2.406.961-2.43.984c-1.98.802-3.962 1.597-5.945 2.391l-1-2c2.647-1.46 3.894-2 7-2l1-3h6v-2Z"/><path fill="#113975" d="M330 93h1l.113 2.3.2 3.013.175 2.988c.579 3.05 1.351 3.63 3.512 5.699v4h-2l-1 2c-2.543-4.917-3.057-8.142-2.563-13.688l.31-3.574L330 93Z"/><path fill="#2577AC" d="M61 56h2l.402 3.36.535 4.39.264 2.21c.42 3.416.916 6.716 1.799 10.04l-3-1c-2.228-6.333-2.22-12.34-2-19Z"/><path fill="#D2EDF8" d="M303 81v4h-2v2a262.496 262.496 0 0 1-5 4l-1 2h-2c1.27-4.19 5.008-12 10-12Z"/><path fill="#8C9DB6" d="M93 73h3l2 6c3.075-.776 3.075-.776 5-3l2 4c-3 2-3 2-5.438 2-3.643-1.422-4.713-3.645-6.562-7v-2Z"/><path fill="#0B316B" d="M208 71c2.5 1.25 2.5 1.25 5 3v4c-2.5 1.75-2.5 1.75-5 3V71Z"/><path fill="#106EAB" d="M154 75c5.75.875 5.75.875 8 2 1.704.226 3.413.409 5.125.563l2.758.253L172 78l-1 2-3.14-.254-4.11-.308-2.066-.17c-3.426-.25-6.411-.407-9.684.732l2-5Z"/><path fill="#2677AD" d="M231 65c3 1 3 1 4 3 .15 2.288.221 4.582.25 6.875l.078 3.742c-.342 3.532-.919 4.86-3.328 7.383l-2-1 1.5-2c2.507-5.015 1.973-9.764.5-15l-1-3Z"/><path fill="#15376C" d="M225 71h2v10l-2-1v-2l-4-1c1.152-2.468 2.048-4.048 4-6Z"/><path fill="#7C8DA9" d="M92 76c3.83 1.453 5.12 3.429 7 7h-8l-2-4 2 1 1-4Z"/><path fill="#9CDAF3" d="m292 117 2 4-6.313 2.438-3.55 1.37A158.02 158.02 0 0 1 278 127l-2-2 3.246-1.242 4.192-1.633 2.142-.816c3.92-1.29 3.92-1.29 6.42-4.309Z"/><path fill="#1E73AB" d="m267.5 44.75 2.05-.023c3.7.014 5.296.17 8.45 2.273l-1 2-2-1c-6.357-2.119-11.84-1.053-18 1v-2c3.623-2.416 6.316-2.298 10.5-2.25Z"/><path fill="#1A76B3" d="M323 154h1c1.336 4.842 2.253 8.934 2 14l-5-1 2-13Z"/><path fill="#0D2E65" d="m333 104 3 1c.57 10.88.57 10.88-3 15h-2l1-6h2c.113-5.083.113-5.083-1-10Z"/><path fill="#3E5575" d="m274 69 3 1v8l-5 1-1-4 4 2-.5-2.875C274 71 274 71 274 69Z"/><path fill="#0A589F" d="M149 218h6v2h2v2l-7 1-1-5Z"/><path fill="#0B5AA0" d="M142.063 217.938 145 218l2 4-7 1v-3l-2-1c1-1 1-1 4.063-1.063Z"/><path fill="#0A589C" d="M255 218h6l-1 5h-6c0-3 0-3 1-5Z"/><path fill="#D6F2FB" d="m52 111 2 1c-3.454 3.593-7.194 6.792-11 10 0-3 0-3 1.969-5.043l2.531-2.144 2.531-2.168L52 111Z"/><path fill="#1E75B0" d="M251 79c2.5 1.313 2.5 1.313 5 3 0 3.999-1.726 5.802-4 9-1-2-1-2-.5-3.75.656-2.95.1-5.316-.5-8.25Z"/><path fill="#0C59A2" d="M168 218h6v2h3v3h-6v-2l-3-1v-2Z"/><path fill="#B2ECFB" d="m159 132 1.355 1.172c3.497 3.012 7.02 5.971 10.645 8.828l-1 3-4-1 2-1-1.969-1.898-2.531-2.477-2.531-2.46C159 134 159 134 159 132Z"/><path fill="#223C69" d="M171 61h2v3l4 1h-3v2h4v2c-2.375.125-2.375.125-5 0-2-2-2-2-2.125-5.125L171 61Z"/><path fill="#0B599D" d="M249 212h5l1 3h-2v2h-5l1-5Z"/><path fill="#28426F" d="M155 57c2 0 2 0 3.625 1.5L160 60v-3h3c-.813 2.938-.813 2.938-2 6l-3 1c-3-4.75-3-4.75-3-7Z"/><path fill="#C7E8F5" d="M272 46c3 1 3 1 5 2v1l-17-1c4.258-2.13 7.369-2.477 12-2Z"/><path fill="#0C5BA2" d="M158 218h6v2h3v2l-6 1v-3h-3v-2Z"/><path fill="#0C579D" d="M240 212h5l1 3h-2v2l-5-1 1-4Z"/><path fill="#0D599F" d="M149.563 211.938 152 212l1 4-6 1c-.563-1.938-.563-1.938-1-4 1-1 1-1 3.563-1.063Z"/><path fill="#7491B6" d="m74 144 1 4h-4v-2H57v-1l3.465.035 4.472.028 2.288.025c1.925.009 3.85-.036 5.775-.088l1-1Z"/><path fill="#277CB5" d="m351 114 2 3c-1.354 3.992-2.672 7.306-6 10l-2-1 1.059-1.863 1.378-2.45 1.372-2.425c1.302-2.324 1.302-2.324 2.191-5.262Z"/><path fill="#234275" d="M314 121h12v3a485.352 485.352 0 0 1-5.438-.375l-3.058-.21c-.826-.138-1.653-.274-2.504-.415l-1-2Z"/><path fill="#1373B1" d="M143 116h11c-1.688 2.063-1.688 2.063-4 4-2.625-.063-2.625-.063-5-1l-2-3Z"/><path fill="#0A5A9E" d="M198 212h5v3h4v2c-3.625.201-5.865-.142-9-2v-3Z"/><path fill="#0373BC" d="m208 150-1 5h-2l-1-1-1 2-2-2v-4c2.667-1.333 4.167-.671 7 0Z"/><path fill="#1974B2" d="M249 139v2h-4v2c-3.402 2.094-6.053 2.18-10 2 2.256-2.256 4.046-2.966 7-4.125l2.688-1.07C247 139 247 139 249 139Z"/><path fill="#1574B5" d="M248 96c-1.527 3.436-3.6 6.12-6 9l-1-6c4.75-3 4.75-3 7-3Z"/><path fill="#0D5DA4" d="M246 218h5v2l-2 1v2l-6-1v-2h3v-2Z"/><path fill="#0F58A1" d="M165 212h4v3l2 1c-1 1-1 1-3.563 1.063L165 217c-.563-1.938-.563-1.938-1-4l1-1Z"/><path fill="#1A71AC" d="m187 116 4 1 1 11c-2.35-2.35-2.731-3.957-3.625-7.125-.26-.91-.52-1.82-.79-2.758L187 116Z"/><path fill="#297AB0" d="m257 85 13 1v1l-2.266.148-2.984.227-2.953.21c-2.693.4-4.467 1.05-6.797 2.415l2-5Z"/><path fill="#1574B3" d="m285 75 3 4-5 5-2-2 4-7Z"/><path fill="#B6C9E2" d="M304 156c2.343.256 4.678.593 7 1l1 2-5-1-1 4-3-3 1-3Z"/><path fill="#A2DDF3" d="M112 87c1.132.908 2.255 1.827 3.375 2.75l1.898 1.547c1.81 1.785 2.728 3.382 3.727 5.703-3.827-1.559-6.18-4.032-9-7l-2-2 2-1Z"/><path fill="#2F7EB1" d="m70 82 12 9c-3.716.2-4.772.152-8-2v-2l-3-1c-.688-2.063-.688-2.063-1-4Z"/><path fill="#687E9E" d="m93 63 2 1c.414 2.066.414 2.066.625 4.563l.227 2.503L96 73l-4-1 1-9Z"/><path fill="#0471B8" d="m205 159 2 1v6h-5v-3l2-1 1-3Z"/><path fill="#267CB2" d="m87 144 3 1h-2l1 5-6 1 4-7Z"/><path fill="#D2EDF8" d="m185 138 1 3-2 3h-3v3l-4-1 8-8Z"/><path fill="#1B70AA" d="M154 126c2.992 1.364 5.29 2.95 7.75 5.125l1.86 1.633L165 134l-1 3c-1.67-1.643-3.336-3.29-5-4.938l-2.813-2.777C154 127 154 127 154 126Z"/><path fill="#2A7AAF" d="M290 121h5l4 7-2 1-1.813-2.438c-1.996-2.785-1.996-2.785-5.187-3.562v-2Z"/><path fill="#086EAE" d="m149 121 8 1v4c-3.242-.35-4.615-.562-6.813-3.063L149 121Z"/><path fill="#405D8A" d="M166 50h3l1 4h-2v2h-2v-2h-3v-2h3v-2Z"/><path fill="#0E5EA3" d="M216 218h6v2h-4v2h-5v-2h3v-2Z"/><path fill="#47618D" d="M166 41h2v2h2v2h-2l-1 3-2-1c-.625-2.063-.625-2.063-1-4h2v-2Z"/><path fill="#1872AE" d="M241 140c-1.29.672-2.581 1.337-3.875 2l-2.18 1.125C233 144 233 144 231 144v-3c3.839-1.483 6.062-2.224 10-1Z"/><path fill="#0E76BE" d="m160 130 7 1v8l-2-1-.375-1.813c-.826-2.889-2.429-4.203-4.625-6.187Z"/><path fill="#1C79B6" d="M43 114h4c-1.37 3.161-1.99 3.993-5 6-.625-1.875-.625-1.875-1-4l2-2Z"/><path fill="#2479B2" d="M213 101c1.35 4.05.62 6.792 0 11-2-2-2-2-2.195-3.945L211 102l2-1Z"/><path fill="#0B62A8" d="M236 218h5v2h-3v2h-5v-2h3v-2Z"/><path fill="#1272B0" d="m154 145 6 1c-4.75 4.875-4.75 4.875-7 6v-3h2l-1-4Z"/><path fill="#9ED0EE" d="M212 112h2l-1 11c-2.786-4.18-1.796-6.147-1-11Z"/><path fill="#14437C" d="m136 112 5 4-1 3-3-1-1-6Z"/><path fill="#2B7DB6" d="m50 108 8 1c-2.098 2.098-3.38 2.65-6.125 3.625-.724.26-1.449.52-2.195.79L48 114v-2h2v-4Z"/><path fill="#C6DBEC" d="M96 44c3.95.551 7.35 1.39 11 3l-1 3-10-5v-1Z"/><path fill="#3B5B8B" d="M305.688 149.75 308 150v2l-1.938.375L304 153l-1 2-3-1c2.338-3.938 2.338-3.938 5.688-4.25Z"/><path fill="#96D3F1" d="M267 131c-2.986 1.991-5.597 2.941-9 4l-1-2c6.625-3.125 6.625-3.125 10-2Z"/><path fill="#0A6EAE" d="M233 126v3h-2v2c-2 1.625-2 1.625-4 3 .188-2.313.188-2.313 1-5 2.563-1.813 2.563-1.813 5-3Z"/><path fill="#116DAC" d="m233 115 2 2-5 5v-4l-2-2c2.375-.625 2.375-.625 5-1Z"/><path fill="#478EBB" d="M287 62h1c.195 1.79.38 3.583.563 5.375l.316 3.023C289 73 289 73 288 75h-2l1-13Z"/><path fill="#146EA9" d="M318 73c-2.952 2.952-5.955 3.087-10 4v-3c3.406-.778 6.508-1.1 10-1Z"/><path fill="#D5F0FB" d="M260 48c-1.37 3.161-1.99 3.993-5 6l-2-2c4.75-4 4.75-4 7-4Z"/><path fill="#2E7EB2" d="M153 171c1.126.957 2.25 1.916 3.375 2.875l1.898 1.617A75.822 75.822 0 0 1 162 179c-2.813-.188-2.813-.188-6-1-1.852-2.408-3-3.927-3-7Z"/><path fill="#3B8BC0" d="m246 151-1 2-11-1v-1c4.333-.928 7.667-.928 12 0Z"/><path fill="#CCDCEE" d="M93 73h3l3 9c-5.571-5.143-5.571-5.143-6-9Z"/><path fill="#B8D0E9" d="m273 66 5 1-1 3-3-1 1 4h-2v-7Z"/><path fill="#1F7CB6" d="m206 147 4 2-2 4v-3l-4 1 2-4Z"/><path fill="#1976B6" d="m341 130 2 3-4 2-3-2 5-3Z"/><path fill="#B6CBE3" d="M98.125 54.688C100 56 100 56 100.75 58.124L101 60h-2l-2-3c-2.05-1.192-2.05-1.192-4-2 3-1 3-1 5.125-.313Z"/></svg>