<?xml version="1.0" encoding="UTF-8"?>
<svg version="1.1" xmlns="http://www.w3.org/2000/svg" width="2968" height="1449">
<path d="M0 0 C979.44 0 1958.88 0 2968 0 C2968 478.17 2968 956.34 2968 1449 C1988.56 1449 1009.12 1449 0 1449 C0 970.83 0 492.66 0 0 Z " fill="#2F2E40" transform="translate(0,0)"/>
<path d="M0 0 C611.82 0 1223.64 0 1854 0 C1854 380.16 1854 760.32 1854 1152 C1242.18 1152 630.36 1152 0 1152 C0 771.84 0 391.68 0 0 Z " fill="#FEFEFE" transform="translate(559,80)"/>
<path d="M0 0 C182.82 0 365.64 0 554 0 C551.22405376 1.85063083 549.64000891 2.45480294 546.5 3.25 C532.74689518 7.30796552 522.23447767 15.86268742 515.24609375 28.4140625 C510.8835512 37.46736397 508.84662027 45.6375251 508.86938947 55.66808921 C508.86741696 56.54598593 508.86544445 57.42388265 508.86341216 58.3283823 C508.85798451 61.29061549 508.85969732 64.25280215 508.8613348 67.21503925 C508.85888841 69.36117937 508.85600486 71.50731903 508.85272202 73.65345803 C508.84492342 79.58898646 508.84337887 85.52450299 508.8427946 91.46003592 C508.84107068 97.90294233 508.83358823 104.34584238 508.82681805 110.78874511 C508.8155661 122.09321894 508.80834898 133.39769118 508.80341911 144.70216942 C508.79810895 156.83456536 508.79063144 168.96695708 508.78049088 181.09934998 C508.77985224 181.86496919 508.77921361 182.63058841 508.77855562 183.4194082 C508.77528933 187.32314032 508.77198761 191.2268724 508.76867336 195.13060448 C508.74474231 223.40357854 508.7256352 251.67655422 508.70907402 279.94953346 C508.69265605 307.95395918 508.67418109 335.9583823 508.65294075 363.96280479 C508.65228236 364.83210538 508.65162396 365.70140597 508.65094561 366.597049 C508.64493121 374.53662234 508.6388914 382.47619566 508.63282111 390.41576896 C508.61773051 410.15378222 508.60295854 429.89179572 508.58840275 449.62980938 C508.58773961 450.52869368 508.58707647 451.42757799 508.58639324 452.35370121 C508.55415324 496.09281411 508.52558411 539.83192931 508.49731445 583.57104492 C508.48750065 598.75191246 508.47767063 613.93277998 508.46777344 629.11364746 C508.46715964 630.05515005 508.46654584 630.99665264 508.46591344 631.96668561 C508.43736408 675.72437282 508.40620915 719.48205807 508.37438093 763.23974301 C508.37231498 766.08008121 508.37025016 768.92041942 508.36818558 771.76075763 C508.35450178 790.58362647 508.34077305 809.40649527 508.32701423 828.22936405 C508.29963735 865.68307798 508.27252452 903.1367921 508.24559305 940.59050636 C508.24431047 942.37420111 508.2430277 944.15789586 508.24174474 945.94159061 C508.18398118 1026.25248126 508.12928949 1106.56337389 508.07592773 1186.87426758 C508.07542799 1187.62636142 508.07492825 1188.37845526 508.07441337 1189.15333982 C508.04942148 1226.76889309 508.02460484 1264.38444648 508 1302 C506.40577922 1302.00260437 506.40577922 1302.00260437 504.77935195 1302.00526136 C457.95488603 1302.08182055 411.13042234 1302.15960513 364.30596924 1302.2436676 C363.59742348 1302.24493928 362.88887773 1302.24621096 362.15886089 1302.24752118 C346.76143331 1302.27516348 331.36400613 1302.30302648 315.96657936 1302.33111694 C308.41603345 1302.34489051 300.86548745 1302.3586153 293.31494141 1302.37231445 C292.56355857 1302.37367854 291.81217573 1302.37504262 291.03802371 1302.37644804 C266.66957684 1302.42066439 242.30112584 1302.46165725 217.93267063 1302.50098413 C192.89757405 1302.54140384 167.86248518 1302.58506431 142.82740146 1302.63282111 C139.29395384 1302.63955998 135.76050615 1302.64626168 132.22705841 1302.65294075 C131.18387591 1302.65491434 131.18387591 1302.65491434 130.11961902 1302.6569278 C118.91034433 1302.67803887 107.70106671 1302.69571863 96.49178426 1302.71212531 C85.23138181 1302.72867967 73.97099047 1302.74890543 62.71060053 1302.77266841 C56.60595225 1302.78544269 50.50131217 1302.79657533 44.39665413 1302.80341911 C38.81432119 1302.80971246 33.23201647 1302.82052897 27.649699 1302.8350333 C25.6240723 1302.83948179 23.59844104 1302.8422312 21.57280967 1302.84316199 C18.83108306 1302.8446636 16.08943897 1302.85220863 13.34772873 1302.8613348 C12.55125103 1302.86031213 11.75477332 1302.85928946 10.93415993 1302.85823581 C5.88378696 1302.88313709 5.88378696 1302.88313709 1 1304 C0.67 1304.66 0.34 1305.32 0 1306 C0 875.02 0 444.04 0 0 Z " fill="#FEFEFE" transform="translate(0,0)"/>
<path d="M0 0 C180.84 0 361.68 0 548 0 C548 430.98 548 861.96 548 1306 C547.67 1305.34 547.34 1304.68 547 1304 C544.0752172 1302.97882771 541.32273878 1302.8712198 538.24426651 1302.8613348 C536.80586973 1302.85312313 536.80586973 1302.85312313 535.33841443 1302.84474558 C534.28783691 1302.84376747 533.23725939 1302.84278936 532.15484619 1302.84178162 C531.0366187 1302.83684364 529.9183912 1302.83190566 528.76627803 1302.82681805 C525.00597073 1302.81141645 521.24568055 1302.80307518 517.48535156 1302.79467773 C514.79513804 1302.7851013 512.1049286 1302.77513479 509.41471863 1302.76467896 C503.61601728 1302.74292144 497.81731362 1302.72477429 492.01859283 1302.70907402 C483.63459977 1302.68636881 475.2506319 1302.65822687 466.86666021 1302.62875474 C453.2644708 1302.58108683 439.66227108 1302.53782047 426.06005859 1302.49731445 C412.84618325 1302.45795546 399.63231706 1302.41652826 386.41845703 1302.37231445 C385.60405813 1302.36959018 384.78965923 1302.36686591 383.95058158 1302.36405908 C379.86501255 1302.35037954 375.77944366 1302.33665928 371.69387484 1302.32291877 C337.79593546 1302.20896657 303.89797697 1302.10215443 270 1302 C272.51949573 1300.32033618 274.94334519 1299.09608875 277.68237305 1297.84399414 C292.05678774 1291.13641568 304.89905575 1281.52920741 317.75390625 1272.3203125 C324.19366147 1267.73607997 330.79160095 1263.79812925 337.6875 1259.9375 C345.01543638 1255.83439848 351.83275633 1251.76133167 358 1246 C358.72832031 1245.32324219 359.45664063 1244.64648438 360.20703125 1243.94921875 C362.21134406 1242.09147297 362.21134406 1242.09147297 362.625 1239.3125 C361.04042652 1230.91426056 354.07417008 1224.73225578 348.44921875 1218.6953125 C346.2954051 1216.32508695 344.31358299 1213.92133098 342.375 1211.375 C336.37077897 1202.66285774 336.37077897 1202.66285774 328 1197 C327.71125 1197.7425 327.4225 1198.485 327.125 1199.25 C326 1202 326 1202 324.921875 1203.8046875 C323.72647575 1206.6513586 323.94534634 1208.8052658 324.125 1211.875 C324.16225651 1215.70310684 324.04242595 1217.89200667 322.625 1221.5 C318.04646369 1225.86051077 312.64519588 1227.8175727 306.375 1228.25 C305.59125 1228.1675 304.8075 1228.085 304 1228 C303.82726563 1226.95714844 303.65453125 1225.91429687 303.4765625 1224.83984375 C302.06514161 1219.89987064 298.59847925 1218.09113287 294.375 1215.5625 C293.31539062 1214.89444336 293.31539062 1214.89444336 292.234375 1214.21289062 C290.50094171 1213.12363863 288.75192516 1212.05925402 287 1211 C286.83383179 1211.5349408 286.66766357 1212.06988159 286.49645996 1212.62103271 C284.5890337 1218.56925432 282.24695487 1224.21092059 279.65625 1229.890625 C279.04070251 1231.25208649 279.04070251 1231.25208649 278.41271973 1232.64105225 C277.550887 1234.54454958 276.68688356 1236.44706547 275.82080078 1238.34863281 C274.49849915 1241.25329688 273.18430993 1244.16153131 271.87109375 1247.0703125 C271.02912291 1248.92729972 270.18669096 1250.78407795 269.34375 1252.640625 C268.95304321 1253.50528381 268.56233643 1254.36994263 268.15979004 1255.26080322 C265.62017684 1260.82312774 263.18208445 1266.00924384 258.890625 1270.453125 C258.3035376 1271.06800781 257.7164502 1271.68289063 257.11157227 1272.31640625 C256.49725342 1272.95449219 255.88293457 1273.59257813 255.25 1274.25 C245.48555925 1283.24524677 245.48555925 1283.24524677 240.75 1294.8125 C241.94402228 1298.63704723 241.94402228 1298.63704723 247 1302 C229.51 1302 212.02 1302 194 1302 C191.76352562 1285.22644214 191.76352562 1285.22644214 190.96484375 1278.640625 C190.7937586 1277.24477465 190.62253106 1275.84894174 190.45117188 1274.453125 C190.19086457 1272.32699246 189.93154885 1270.20075521 189.67456055 1268.07421875 C189.41994815 1265.9710019 189.16147359 1263.86828938 188.90234375 1261.765625 C188.75273193 1260.53618164 188.60312012 1259.30673828 188.44897461 1258.04003906 C188.08495936 1254.9644954 188.08495936 1254.9644954 187 1252 C183.0177814 1252.56888837 180.39432507 1253.89001415 177 1256 C176.34 1256 175.68 1256 175 1256 C174.8453125 1257.0828125 174.8453125 1257.0828125 174.6875 1258.1875 C173.5642625 1262.78256249 171.93931026 1265.37379316 168 1268 C160.7087213 1268.83174587 154.63190511 1268.06087928 148 1265 C148.350625 1264.505 148.70125 1264.01 149.0625 1263.5 C150.8090748 1258.8424672 149.76554207 1254.72246966 147.8125 1250.328125 C146.91967782 1248.57291776 146.0028775 1246.82962851 145.05859375 1245.1015625 C144 1243 144 1243 144 1241 C142.94200195 1241.71542969 141.88400391 1242.43085937 140.79394531 1243.16796875 C136.81325317 1245.85960417 132.8322125 1248.55072373 128.85107422 1251.24169922 C127.13841617 1252.39943934 125.4258487 1253.55731348 123.71337891 1254.71533203 C122.88628418 1255.27462402 122.05918945 1255.83391602 121.20703125 1256.41015625 C119.97785477 1257.2414505 119.97785477 1257.2414505 118.72384644 1258.08953857 C117.08741588 1259.19490271 115.44998663 1260.29878978 113.81155396 1261.40118408 C110.33943515 1263.73745449 106.87340528 1266.07797944 103.44873047 1268.48339844 C97.66050475 1272.4970845 92.42701711 1275.40612811 85.625 1277.25 C84.8213501 1277.48686523 84.0177002 1277.72373047 83.18969727 1277.96777344 C80.79878874 1278.66750523 78.40171638 1279.33843127 76 1280 C73.31201822 1280.74829383 70.62467444 1281.49880632 67.9375 1282.25 C66.83277344 1282.54390625 65.72804688 1282.8378125 64.58984375 1283.140625 C61.87416501 1283.82688306 61.87416501 1283.82688306 60 1286 C59.29905648 1290.08199487 59.29905648 1290.08199487 60 1294 C61.91865663 1296.19514426 63.93349691 1297.88681449 66.25 1299.65234375 C66.8275 1300.09707031 67.405 1300.54179688 68 1301 C68 1301.33 68 1301.66 68 1302 C60.74 1302 53.48 1302 46 1302 C46 1047.9 46 793.8 46 532 C46.33 532 46.66 532 47 532 C47.27880005 533.48657104 47.27880005 533.48657104 47.56323242 535.00317383 C54.47214378 585.45629449 54.47214378 585.45629449 81.0625 626.25 C87.29734072 629.9643732 93.65780341 629.73231712 100.5625 628 C101.696875 627.67 102.83125 627.34 104 627 C103.24530559 634.5186431 101.63004662 641.81718392 100 649.1875 C99.77639801 650.20656433 99.77639801 650.20656433 99.54827881 651.24621582 C95.37388967 670.24373252 90.71725362 689.13098551 86 708 C89.3 708 92.6 708 96 708 C95.61307507 712.94007762 95.2222248 717.87982551 94.828125 722.81933594 C94.69527609 724.49080521 94.56340017 726.16235218 94.43261719 727.83398438 C93.67552688 737.50144526 92.80527702 747.14078903 91.70108032 756.77511597 C91.02588349 762.67578492 90.4781303 768.58000623 90 774.5 C89.30720378 782.86323998 88.43952337 791.18093019 87.3671875 799.50390625 C86.23522404 810.94924991 87.25355802 822.29760301 88.57421875 833.67578125 C88.74053831 835.15791392 88.90621219 836.64011916 89.07128906 838.12239075 C89.51016155 842.0447299 89.95874634 845.96589812 90.4095726 849.88687897 C90.78371462 853.15221645 91.15188667 856.41821609 91.52006245 859.6842308 C93.6692683 878.74394968 95.89907399 897.79266666 98.27392578 916.82568359 C99.95440951 930.33887356 101.42829861 943.87186102 102.88171387 957.41113281 C104.32220315 970.82829333 105.81968167 984.23536921 107.41479492 997.63500977 C107.57993553 999.02229578 107.74505554 1000.40958424 107.91015625 1001.796875 C108.03655739 1002.85853127 108.03655739 1002.85853127 108.16551208 1003.94163513 C109.42942173 1014.58288717 110.64888188 1025.229342 111.875 1035.875 C112.13126155 1038.09904026 112.38752785 1040.32307997 112.64379883 1042.54711914 C113.03414577 1045.93509598 113.42444286 1049.32307854 113.81462097 1052.71107483 C114.73434697 1060.69687294 115.6557612 1068.6824749 116.578125 1076.66796875 C116.83748655 1078.91381803 117.09684529 1081.15966764 117.35620117 1083.40551758 C117.74014245 1086.73018085 118.1241151 1090.05484047 118.50820923 1093.37948608 C119.71031478 1103.78591566 120.91202807 1114.19235164 122.08984375 1124.6015625 C123.84654912 1140.11800363 125.66745216 1155.62477905 127.5625 1171.125 C127.66904907 1171.99840027 127.77559814 1172.87180054 127.88537598 1173.77166748 C128.90060954 1182.09358874 129.9213085 1190.41450974 130.984375 1198.73046875 C131.12673584 1199.86274902 131.26909668 1200.9950293 131.41577148 1202.16162109 C131.66691285 1204.15622442 131.92354613 1206.15015049 132.18774414 1208.14306641 C133.03288346 1214.91288729 133 1221.0357856 133 1228 C153.46 1228 173.92 1228 195 1228 C194.443125 1223.111875 193.88625 1218.22375 193.3125 1213.1875 C191.57396813 1197.70021821 190.00591305 1182.1989985 188.5 1166.6875 C188.39460907 1165.60263306 188.28921814 1164.51776611 188.18063354 1163.40002441 C187.96804524 1161.21148759 187.75546484 1159.02294999 187.54289246 1156.83441162 C187.43850357 1155.75983704 187.33411469 1154.68526245 187.2265625 1153.578125 C187.122939 1152.51112366 187.01931549 1151.44412231 186.91255188 1150.3447876 C185.92621468 1140.20634617 184.91250089 1130.07082985 183.875 1119.9375 C183.7514917 1118.73033325 183.7514917 1118.73033325 183.62548828 1117.4987793 C182.55332552 1107.04996931 181.38669868 1096.61654801 180.1418457 1086.18676758 C178.84862465 1075.11599848 177.84263579 1064.01837449 176.81115723 1052.9208374 C175.45503032 1038.35316561 173.92418205 1023.81271464 172.21899414 1009.28173828 C172.13696243 1008.57060379 172.05493073 1007.8594693 171.97041321 1007.12678528 C171.75127705 1005.22845045 171.52768013 1003.33063201 171.30371094 1001.43286133 C170.99437925 997.93646841 170.94733481 994.50811804 171 991 C173.80474476 994.40339649 175.63287579 998.13536038 177.484375 1002.10546875 C177.81654022 1002.80881851 178.14870544 1003.51216827 178.49093628 1004.23683167 C179.58211233 1006.55148725 180.66626015 1008.86935447 181.75 1011.1875 C182.51466143 1012.81484903 183.27947475 1014.44212669 184.04443359 1016.06933594 C189.61542605 1027.94253823 195.06359325 1039.86963861 200.46484375 1051.82080078 C204.81493101 1061.43877245 209.25561288 1071.01116088 213.75 1080.5625 C218.41663385 1090.48182112 223.04831115 1100.41502005 227.60229492 1110.38671875 C231.51728704 1118.95682259 235.46084955 1127.51353603 239.41073608 1136.06759644 C240.56066645 1138.55852824 241.70974424 1141.04985181 242.85864258 1143.54125977 C246.49922337 1151.43354531 250.14670012 1159.3224532 253.81712341 1167.20091248 C255.48084073 1170.77311057 257.14082776 1174.34703619 258.80050659 1177.92111206 C259.59349605 1179.62602426 260.38832611 1181.33008168 261.18508911 1183.03323364 C262.2947041 1185.40544207 263.3979748 1187.78050826 264.5 1190.15625 C264.82624863 1190.84935776 265.15249725 1191.54246552 265.4886322 1192.25657654 C267.42102989 1196.44215823 268.84123456 1200.53585613 270 1205 C271.49273438 1203.94425781 271.49273438 1203.94425781 273.015625 1202.8671875 C281.83086737 1196.63660842 290.66305634 1190.43092909 299.50976562 1184.24511719 C307.69106484 1178.52203375 315.84838701 1172.76525997 324 1167 C323.25935728 1162.05155742 321.4310588 1157.59163696 319.6328125 1152.953125 C319.28683014 1152.05141571 318.94084778 1151.14970642 318.5843811 1150.22067261 C317.4351949 1147.22891607 316.2801646 1144.23945276 315.125 1141.25 C314.30863961 1139.1288511 313.49256397 1137.00759259 312.67675781 1134.88623047 C306.28093032 1118.26818351 299.84407725 1101.66587994 293.39770508 1085.06738281 C289.07747198 1073.94271498 284.76695595 1062.81439507 280.47265625 1051.6796875 C280.00611633 1050.47041092 279.53957642 1049.26113434 279.05889893 1048.01521301 C276.71202949 1041.93079754 274.36829441 1035.84520212 272.02978516 1029.75756836 C267.77988352 1018.70613533 263.49092832 1007.67574644 259.05078125 996.69921875 C257.92788333 993.90293134 256.80617481 991.10616929 255.68466187 988.30932617 C254.66127599 985.77725442 253.61610409 983.25499656 252.56958008 980.73242188 C249.13422404 972.27818665 246.91894581 965.27644974 248 956 C248.07476563 955.22809326 248.14953125 954.45618652 248.2265625 953.66088867 C248.48913754 951.34543131 248.82978159 949.05260874 249.1875 946.75 C249.4664966 944.79190146 249.74369285 942.83354593 250.01953125 940.875 C250.5293611 937.29932286 251.0396145 933.72371428 251.55224609 930.1484375 C254.86493879 906.79445305 256.98701781 883.38836823 258.75 859.875 C258.80367485 859.16331161 258.8573497 858.45162323 258.91265106 857.71836853 C260.21106482 840.4879688 261.31111658 823.26701264 262 806 C276.19 806 290.38 806 305 806 C303.824375 800.616875 303.824375 800.616875 302.625 795.125 C299.12965958 778.94507021 295.9129374 762.70947927 292.69189453 746.47314453 C290.61868905 736.03119666 288.52077819 725.59516266 286.35546875 715.171875 C286.15807602 714.2191571 285.96068329 713.26643921 285.75730896 712.28485107 C284.37649251 705.67094959 282.89684288 699.0827691 281.375 692.5 C279.66572401 685.07801975 278.16105074 677.6637897 276.80859375 670.16796875 C275.87382962 665.18296525 274.70973257 660.25208087 273.5625 655.3125 C271.90589943 648.16952337 270.3897441 641.02388273 269.0625 633.8125 C267.3730355 624.66880325 265.4003181 615.60291789 263.35839844 606.53198242 C261.2008398 596.94441605 259.12954808 587.34012757 257.09228516 577.72631836 C254.69810741 566.46832159 252.09931954 555.27617382 249.25 544.125 C247.03046092 535.37185862 244.99920072 526.58964138 243.05715942 517.77102661 C240.57026072 506.50051619 237.86505957 495.31897661 234.8125 484.1875 C234.49168457 483.00841064 234.17086914 481.82932129 233.84033203 480.61450195 C233.52821777 479.497771 233.21610352 478.38104004 232.89453125 477.23046875 C232.62487549 476.26520264 232.35521973 475.29993652 232.07739258 474.30541992 C230.60626555 469.79203019 228.76302646 465.40756615 227 461 C199.28 460.67 171.56 460.34 143 460 C141.59431778 467.72260686 141.59431778 467.72260686 140.2109375 475.44921875 C138.27649324 485.58975443 135.01628053 494.00480256 130.06445312 503.03222656 C128.29037733 506.31182539 126.65264984 509.65806523 125 513 C124.33398445 514.3336587 123.66731763 515.66699235 123 517 C122.67 517.66 122.34 518.32 122 519 C112 539 112 539 102 559 C99.28230663 556.28230663 99.08133147 553.9388965 98.19140625 550.19921875 C98.02202042 549.49625168 97.85263458 548.79328461 97.67811584 548.0690155 C97.30835545 546.53015346 96.94194665 544.99048324 96.57843018 543.45013428 C95.98856961 540.95158276 95.38962614 538.45535407 94.78857422 535.95947266 C93.71534657 531.49560128 92.65119663 527.02962631 91.59057617 522.56274414 C90.93577877 519.80525152 90.27952106 517.04810948 89.62304688 514.29101562 C87.38139576 504.86834782 85.15782965 495.44227835 83 486 C79.29132544 486.30853226 75.5831331 486.62253207 71.875 486.9375 C70.82828125 487.02451172 69.7815625 487.11152344 68.703125 487.20117188 C62.70858922 487.70847281 62.70858922 487.70847281 56.7578125 488.56640625 C53.13158443 489.13653559 49.66930553 489.06326389 46 489 C45.99742187 487.91203125 45.99484375 486.8240625 45.9921875 485.703125 C45.81531151 476.84820771 44.89620282 470.42536061 40.43359375 462.5703125 C35.59691559 453.89855711 36.23487379 444.69807663 38.85546875 435.45703125 C40 433 40 433 42.53185081 430.79160976 C46.85225455 425.62675581 45.68551976 418.24617758 45.63491821 411.87721252 C45.64068032 410.30704165 45.64862204 408.73687752 45.65855443 407.16672748 C45.67944112 402.8536581 45.66910426 398.54114136 45.65362334 394.2280699 C45.64232031 389.57545504 45.65976791 384.92293588 45.67352295 380.27033997 C45.6957758 371.15402977 45.69094368 362.03792522 45.67645974 352.92160691 C45.66516933 345.50815002 45.66363578 338.09475078 45.66907883 330.68128777 C45.66984499 329.62624356 45.67061116 328.57119934 45.67140054 327.4841841 C45.67299919 325.34078525 45.67462026 323.19738643 45.6762635 321.05398761 C45.69052861 300.94383822 45.67411957 280.83380268 45.64726166 260.72367197 C45.6249514 243.48572737 45.62877801 226.24795127 45.65185547 209.01000977 C45.6786504 188.98594306 45.6891245 168.96197642 45.67379415 148.93789428 C45.67220146 146.79961425 45.6706296 144.66133419 45.66907883 142.52305412 C45.66830745 141.47104461 45.66753607 140.4190351 45.66674132 139.33514651 C45.66243321 131.9392071 45.6696923 124.54333136 45.68147659 117.14740181 C45.69554245 108.12104764 45.69161726 99.09491071 45.66507287 90.06858123 C45.65198501 85.46717932 45.64669543 80.86613875 45.66331863 76.26473999 C45.67833815 72.04312835 45.66983475 67.82220915 45.64343087 63.60065936 C45.6378959 62.08241917 45.64057268 60.56411914 45.65280981 59.04591817 C45.77307872 42.86959103 41.59138047 29.42969333 31 17 C22.13142558 8.28676685 11.96661338 3.79827651 0 1 C0 0.67 0 0.34 0 0 Z " fill="#FEFEFE" transform="translate(2420,0)"/>
<path d="M0 0 C1.11322128 -0.00087616 1.11322128 -0.00087616 2.24893188 -0.00177002 C4.68418346 0.00100053 7.11818687 0.03204151 9.55322266 0.06347656 C11.24857922 0.07094267 12.94394445 0.07663386 14.63931274 0.08062744 C19.08811529 0.0958548 23.53639033 0.13511117 27.98498535 0.17944336 C32.52979396 0.22045892 37.07468832 0.23865184 41.61962891 0.25878906 C50.52741196 0.3016086 59.43480459 0.36982444 68.34228516 0.45410156 C64.82538788 4.00242282 61.22893267 7.36644135 57.40478516 10.57910156 C56.84339844 11.05283203 56.28201172 11.5265625 55.70361328 12.01464844 C51.07657411 15.89357275 46.34181414 19.62293012 41.57495117 23.32763672 C37.58098267 26.44431414 33.68993428 29.6589594 29.84228516 32.95410156 C24.80998259 37.26202267 19.66320565 41.39331754 14.4387207 45.46533203 C8.99987505 49.70676604 3.66432524 54.06711976 -1.65771484 58.45410156 C-3.61535837 60.05910996 -5.57368605 61.66328427 -7.53271484 63.26660156 C-8.39638672 63.97429687 -9.26005859 64.68199219 -10.14990234 65.41113281 C-12.64060024 67.44015929 -15.14912905 69.44723293 -17.65771484 71.45410156 C255.08728516 71.94910156 255.08728516 71.94910156 533.34228516 72.45410156 C531.80070083 76.30806237 530.69013177 78.61210019 528.34228516 81.82910156 C525.32239764 86.04944127 522.39906449 90.31842003 519.52978516 94.64160156 C519.10995361 95.27380615 518.69012207 95.90601074 518.25756836 96.55737305 C517.39234839 97.86068736 516.52736079 99.16415596 515.66259766 100.46777344 C514.33087204 102.47127189 512.99372692 104.4710446 511.65478516 106.46972656 C511.21497314 107.12690674 510.77516113 107.78408691 510.32202148 108.46118164 C509.4919686 109.70116429 508.66114231 110.94062975 507.8293457 112.17944336 C504.90488245 116.55416531 502.135006 120.98574821 499.34228516 125.45410156 C809.54228516 125.45410156 1119.74228516 125.45410156 1439.34228516 125.45410156 C1422.65820484 99.73727545 1422.65820484 99.73727545 1405.34228516 74.45410156 C1405.34228516 73.79410156 1405.34228516 73.13410156 1405.34228516 72.45410156 C1590.14228516 72.12410156 1774.94228516 71.79410156 1965.34228516 71.45410156 C1959.04353417 65.72796431 1952.9339217 60.24446185 1946.35009766 54.92675781 C1942.83527391 52.03729881 1939.398148 49.06731463 1935.96728516 46.07910156 C1930.74242883 41.52886697 1925.48912876 37.01729922 1920.19091797 32.55273438 C1916.17844291 29.16928174 1912.19521203 25.75306448 1908.21728516 22.32910156 C1903.12763671 17.9520039 1897.97160547 13.66749087 1892.76416016 9.43066406 C1889.57127393 6.82485692 1886.42276623 4.19230696 1883.34228516 1.45410156 C1883.34228516 1.12410156 1883.34228516 0.79410156 1883.34228516 0.45410156 C1891.97430334 0.36128303 1900.60614885 0.2902769 1909.23855782 0.24685287 C1913.24727168 0.22600786 1917.25564326 0.1977475 1921.26416016 0.15234375 C1925.13508324 0.10877457 1929.00567781 0.08494125 1932.87682724 0.07459259 C1934.35119674 0.06722096 1935.82554894 0.05282564 1937.29977798 0.03118134 C1939.37048975 0.00199799 1941.43985676 -0.00184854 1943.51074219 0 C1945.27612839 -0.01332367 1945.27612839 -0.01332367 1947.07717896 -0.0269165 C1950.34228516 0.45410156 1950.34228516 0.45410156 1953.02245313 2.45322865 C1957.03123768 4.86933535 1960.18720548 5.00936256 1964.72470379 4.94908619 C1965.55803117 4.95400116 1966.39135855 4.95891614 1967.24993828 4.96398005 C1970.04891282 4.97559213 1972.84698197 4.95862631 1975.6459198 4.94184875 C1977.67011502 4.94430873 1979.69430875 4.94852309 1981.7184971 4.9543435 C1987.28602953 4.96524452 1992.85326337 4.9511449 1998.42076671 4.9330231 C2004.42282448 4.91782782 2010.42485696 4.9256781 2016.42692566 4.93070984 C2026.82830761 4.93622208 2037.22961083 4.92710928 2047.63097191 4.90758705 C2058.54195995 4.8871406 2069.45290872 4.87453479 2080.3639164 4.87254906 C2081.04237851 4.87241922 2081.72084062 4.87228939 2082.41986219 4.87215562 C2085.17384474 4.87165569 2087.9278273 4.87121572 2090.68180988 4.87085353 C2115.78147074 4.8675503 2140.88107684 4.84519934 2165.98071289 4.81079102 C2189.6854676 4.77831028 2213.39019468 4.75705684 2237.0949707 4.74926758 C2238.19064428 4.74890302 2238.19064428 4.74890302 2239.30845267 4.74853109 C2242.98748502 4.74730904 2246.66651737 4.74610574 2250.34554972 4.7449093 C2251.07151233 4.74467303 2251.79747494 4.74443676 2252.54543642 4.74419333 C2254.00928381 4.74371916 2255.47313119 4.743249 2256.93697858 4.74278287 C2280.23123726 4.73531401 2303.52549083 4.71953679 2326.81974354 4.70158369 C2333.64330795 4.69633564 2340.46687229 4.69139184 2347.29043746 4.68722177 C2361.64098509 4.67834749 2375.99152151 4.66655787 2390.34205791 4.64565573 C2396.27852857 4.63704176 2402.21498987 4.62996492 2408.15146637 4.62714005 C2413.5786869 4.62448172 2419.00588041 4.61721727 2424.43309013 4.60614958 C2426.40333938 4.60293215 2428.37359222 4.60141198 2430.34384408 4.60169987 C2433.00839104 4.60182426 2435.67285538 4.59588337 2438.33738995 4.58832264 C2439.11392309 4.58980626 2439.89045623 4.59128989 2440.69052067 4.59281847 C2446.60110928 4.63874393 2446.60110928 4.63874393 2451.34228516 1.45410156 C2451.34228516 47.65410156 2451.34228516 93.85410156 2451.34228516 141.45410156 C1471.90228516 141.45410156 492.46228516 141.45410156 -516.65771484 141.45410156 C-516.65771484 95.25410156 -516.65771484 49.05410156 -516.65771484 1.45410156 C-515.33771484 2.44410156 -514.01771484 3.43410156 -512.65771484 4.45410156 C-509.82721983 4.74347943 -507.21883062 4.85860181 -504.38921547 4.8344183 C-503.5438992 4.83907822 -502.69858294 4.84373813 -501.82765102 4.84853926 C-498.97597922 4.86055424 -496.12477816 4.85106884 -493.27310181 4.84178162 C-491.21564739 4.84595169 -489.15819528 4.8514274 -487.10074747 4.85810143 C-481.43193774 4.87261766 -475.76327262 4.86829207 -470.09445477 4.86093462 C-463.98663639 4.85622045 -457.87885009 4.86869725 -451.77104187 4.87895203 C-440.49189047 4.89518341 -429.21279759 4.89757808 -417.93364121 4.89264703 C-407.51342674 4.88809364 -397.09322951 4.8886843 -386.67301559 4.89448738 C-385.27641866 4.89524424 -383.87982173 4.89600022 -382.4832248 4.89675533 C-380.37879021 4.89790049 -378.27435562 4.89905037 -376.16992103 4.90021457 C-356.59844591 4.91092341 -337.02697654 4.91564093 -317.45549965 4.90774441 C-316.71736775 4.90744723 -315.97923586 4.90715006 -315.21873633 4.90684388 C-309.22421388 4.90439483 -303.22969149 4.9017833 -297.23516911 4.89915975 C-273.85222739 4.88905741 -250.46935748 4.8974109 -227.08642578 4.9206543 C-200.82661028 4.94671505 -174.56683802 4.95957792 -148.3070091 4.95246655 C-145.50802128 4.95175047 -142.70903346 4.95107608 -139.91004562 4.9504261 C-139.22084407 4.95025629 -138.53164252 4.95008648 -137.82155608 4.94991153 C-127.40855424 4.94760658 -116.99559249 4.9555949 -106.58259964 4.96871758 C-94.74235084 4.98361213 -82.90219943 4.98411919 -71.0619445 4.96664666 C-65.01771511 4.95810639 -58.9736655 4.95606079 -52.92944527 4.97129822 C-47.40010897 4.98506535 -41.87110783 4.98048534 -36.34179132 4.96105898 C-34.33778071 4.95727404 -32.33374376 4.96029204 -30.32975645 4.97067063 C-27.61206178 4.98374843 -24.89553975 4.97233979 -22.1778965 4.95467281 C-21.00240214 4.96914858 -21.00240214 4.96914858 -19.80316043 4.98391679 C-12.17516377 4.88163652 -7.7566173 -0.1618796 0 0 Z " fill="#DEDEDE" transform="translate(516.65771484375,1307.5458984375)"/>
<path d="M0 0 C27.72 0 55.44 0 84 0 C88.5074671 10.14180098 88.5074671 10.14180098 89.7109375 14.25 C89.98301025 15.17490234 90.25508301 16.09980469 90.53540039 17.05273438 C90.9510022 18.51163086 90.9510022 18.51163086 91.375 20 C91.67462646 21.03962891 91.97425293 22.07925781 92.28295898 23.15039062 C94.97327474 32.6294001 97.29049395 42.18380376 99.53125 51.77734375 C100.72696832 56.89191696 101.9991417 61.98331645 103.29907227 67.07226562 C105.88273635 77.1920986 108.17069871 87.33611414 110.24853516 97.5715332 C111.35671445 103.00410806 112.54983358 108.38207228 113.9375 113.75 C116.08570622 122.09263217 117.85755613 130.50653582 119.64160156 138.93359375 C121.43254204 147.38593169 123.29183083 155.82058712 125.1875 164.25 C127.03277587 172.47512576 128.73258748 180.6915078 130.22265625 188.98828125 C131.16397139 194.02541479 132.34463567 199.00852129 133.5 204 C135.23534594 211.49878631 136.788859 218.98562208 138.15209961 226.5612793 C139.07261394 231.50108194 140.16680733 236.39937302 141.25390625 241.3046875 C143.90515454 253.38811903 146.33592502 265.51141192 148.73687744 277.64666748 C153.81793456 303.39287837 153.81793456 303.39287837 159.33764648 329.04760742 C159.54848877 329.99869385 159.75933105 330.94978027 159.9765625 331.9296875 C160.15268066 332.70554199 160.32879883 333.48139648 160.51025391 334.28076172 C161.20824661 338.1562566 161.56513733 342.08623598 162 346 C147.81 346 133.62 346 119 346 C119.06380859 350.49173828 119.06380859 350.49173828 119.12890625 355.07421875 C119.19061405 368.99377328 118.17727191 382.83440304 117.10072327 396.70340347 C116.93551867 398.83810185 116.77348639 400.97302374 116.61193848 403.10800171 C111.52698761 469.91466589 111.52698761 469.91466589 106.47550964 493.44291687 C104.81072666 502.39539245 106.11168206 510.04954224 109.55859375 518.34375 C109.93383682 519.29407104 110.3090799 520.24439209 110.69569397 521.22351074 C111.92438278 524.32345098 113.18090961 527.41127801 114.4375 530.5 C115.31076347 532.69054253 116.18182329 534.88196472 117.05078125 537.07421875 C118.82996888 541.55810063 120.61830861 546.03815751 122.41357422 550.515625 C125.8442063 559.09101593 129.16271425 567.70875227 132.47402954 576.33074951 C134.21121676 580.85036096 135.95747569 585.36646422 137.703125 589.8828125 C138.05288895 590.78810699 138.40265289 591.69340149 138.76301575 592.62612915 C142.52508812 602.36240322 146.2957699 612.09533474 150.06896973 621.82730103 C151.24340465 624.85798042 152.41626291 627.88926619 153.58886719 630.9206543 C157.49500355 641.01127157 161.42372147 651.0923715 165.40118408 661.15509033 C167.37754148 666.15538562 169.34427005 671.15946053 171.31140137 676.16339111 C172.26609299 678.58503507 173.22479868 681.0051006 174.18762207 683.42352295 C175.52564378 686.78503548 176.85012696 690.15159341 178.171875 693.51953125 C178.57603638 694.524431 178.98019775 695.52933075 179.39660645 696.56468201 C179.75653687 697.48926712 180.11646729 698.41385223 180.48730469 699.36645508 C180.80528015 700.16908279 181.12325562 700.97171051 181.4508667 701.79866028 C182.07432738 704.29796011 181.9104303 705.61071274 181 708 C179.53564453 709.44116211 179.53564453 709.44116211 177.6328125 710.77734375 C176.92157227 711.28418701 176.21033203 711.79103027 175.47753906 712.31323242 C174.70120117 712.84924072 173.92486328 713.38524902 173.125 713.9375 C172.32288086 714.50380127 171.52076172 715.07010254 170.69433594 715.65356445 C164.12977443 720.2697896 157.50349529 724.8000495 150.86376953 729.30737305 C145.26125415 733.11286618 139.73176368 737.00714313 134.27441406 741.01831055 C131.84006642 742.78789403 129.88024131 744.03991956 127 745 C114.25 717.375 101.5 689.75 88.75 662.125 C88.19316277 660.91852058 88.19316277 660.91852058 87.62507629 659.68766785 C86.8748194 658.06210955 86.12456509 656.43655006 85.37431335 654.81098938 C83.50326495 650.75702158 81.63217219 646.70307427 79.76098633 642.64916992 C76.33879916 635.23492052 72.91698687 627.82049901 69.49674988 620.40534973 C60.8880012 601.74142844 52.26648808 583.08372243 43.6015625 564.44580078 C40.92412356 558.6852256 38.24961294 552.92329104 35.57485962 547.16146851 C34.17892271 544.15446957 32.7828144 541.14755024 31.38671875 538.140625 C30.59114583 536.42708333 29.79557292 534.71354167 29 533 C30.0585635 548.72045794 31.65897932 564.34725406 33.4375 580 C34.97220576 593.51049981 36.44074441 607.01645374 37.625 620.5625 C38.57105443 631.36843906 39.6252515 642.15361419 40.80737305 652.9362793 C41.91446617 663.07645595 42.93167317 673.22440066 43.9375 683.375 C45.51492448 699.27592568 47.15438789 715.16951473 48.83940125 731.05938721 C48.99221665 732.50136358 49.1446576 733.94337968 49.29670715 735.38543701 C49.70850875 739.28462389 50.12973968 743.18256162 50.56152344 747.07958984 C50.6542453 747.92877487 50.74696716 748.7779599 50.84249878 749.65287781 C51.0200661 751.27871068 51.20047363 752.90423697 51.38430786 754.52937317 C51.4648642 755.27273422 51.54542053 756.01609528 51.62841797 756.78198242 C51.73620071 757.75212532 51.73620071 757.75212532 51.84616089 758.74186707 C52.05594561 761.8211997 52 764.91352967 52 768 C31.54 768 11.08 768 -10 768 C-10.53625 762.92625 -11.0725 757.8525 -11.625 752.625 C-13.23292384 737.60957973 -14.98863726 722.61558521 -16.8125 707.625 C-19.1843816 688.1173121 -21.40879197 668.59525883 -23.5625 649.0625 C-25.98592915 627.09177858 -28.46682304 605.12942695 -31.04515076 583.17634583 C-31.88734346 575.99265085 -32.71252311 568.80705195 -33.53515625 561.62109375 C-33.8019868 559.29386219 -34.0688325 556.96663238 -34.33569336 554.6394043 C-34.72347745 551.25715922 -35.11077511 547.87486349 -35.49612427 544.49234009 C-36.76819707 533.32908791 -38.08704269 522.17692143 -39.56640625 511.0390625 C-40.72376725 502.31560058 -41.72190728 493.58984091 -42.59197998 484.83352661 C-44.03305694 470.40101922 -45.69999713 456.00316971 -47.49490356 441.61068726 C-49.76526314 423.40351542 -51.94472698 405.18785872 -53.9697876 386.95162964 C-54.23674592 384.55413157 -54.50633455 382.1569247 -54.77874756 379.76004028 C-56.63830798 363.35945738 -57.77583663 348.00277357 -55.625 331.5625 C-55.34255013 329.2607223 -55.06264299 326.95863129 -54.78515625 324.65625 C-54.64867676 323.52445313 -54.51219727 322.39265625 -54.37158203 321.2265625 C-53.84778428 316.67826351 -53.43927307 312.12501996 -53.0625 307.5625 C-52.16537842 296.797041 -51.20096499 286.03842003 -50.21017456 275.28121948 C-50.02902235 273.3089413 -49.84910231 271.33654954 -49.67044067 269.36404419 C-49.41741295 266.57183832 -49.16036217 263.78002979 -48.90234375 260.98828125 C-48.82635956 260.14134705 -48.75037537 259.29441284 -48.67208862 258.42181396 C-48.598461 257.63461975 -48.52483337 256.84742554 -48.44897461 256.03637695 C-48.38616806 255.35074173 -48.32336151 254.66510651 -48.25865173 253.95869446 C-48 252 -48 252 -47 248 C-50.3 248 -53.6 248 -57 248 C-56.36310468 240.86677237 -54.64004545 234.04857684 -52.90457153 227.11834717 C-49.76961958 214.57817802 -46.8215624 202.00303053 -44.0625 189.375 C-43.91343201 188.69727539 -43.76436401 188.01955078 -43.61077881 187.32128906 C-42.19933817 180.8936366 -40.87737712 174.52546013 -40 168 C-40.969375 168.33 -41.93875 168.66 -42.9375 169 C-48.50892914 170.56766933 -53.72765275 170.84656074 -59.1875 168.8125 C-79.79807357 155.53013037 -86.37277065 125.71520447 -91.24780273 103.19659424 C-96.36805306 79.07299399 -101.42287405 53.71463891 -101 29 C-96.92969975 28.56542369 -92.85866664 28.13854596 -88.78686523 27.71826172 C-87.40677034 27.57477936 -86.02687836 27.42932921 -84.6472168 27.28173828 C-76.41445418 26.40254024 -68.28762865 25.76436386 -60 26 C-56.34835757 37.92729769 -53.24437614 49.91079507 -50.4375 62.0625 C-47.17070948 76.10594042 -47.17070948 76.10594042 -43.78515625 90.12109375 C-43.61986923 90.80285172 -43.45458221 91.48460968 -43.2842865 92.18702698 C-42.67798075 95.36187691 -42.67798075 95.36187691 -41 98 C-40.73896484 97.44763672 -40.47792969 96.89527344 -40.20898438 96.32617188 C-34.91231582 85.1298865 -29.55113124 73.97561571 -23.96777344 62.91943359 C-22.9771839 60.95474768 -21.9916181 58.98762235 -21.0078125 57.01953125 C-20.51099976 56.02687256 -20.51099976 56.02687256 -20.00415039 55.01416016 C-19.33302346 53.66799016 -18.66555651 52.31998945 -18.00170898 50.97021484 C-16.40787342 47.74198611 -14.77491202 44.5697936 -12.96484375 41.45703125 C-5.28156243 27.64488968 -4.06299197 16.83239532 0 0 Z " fill="#37344F" transform="translate(2563,460)"/>
<path d="M0 0 C1.32 0.99 2.64 1.98 4 3 C6.83065337 3.29074347 9.43969059 3.40728937 12.26964188 3.38476086 C13.11506735 3.38991076 13.96049282 3.39506067 14.83153725 3.40036663 C17.68351223 3.41405529 20.53503172 3.40628125 23.38702393 3.39872742 C25.4446305 3.40416308 27.50223396 3.41091305 29.55983233 3.41886932 C35.22881482 3.43696404 40.89766678 3.43632908 46.56667137 3.43273985 C52.67438265 3.43211793 58.78204939 3.44871798 64.88973999 3.46325684 C75.47666304 3.48608673 86.06354732 3.49803966 96.65048981 3.50238609 C107.75572578 3.50699073 118.86092741 3.51776769 129.96614838 3.53681374 C130.65627411 3.53799386 131.34639985 3.53917399 132.05743849 3.54038988 C135.56214518 3.54641518 139.06685167 3.55255101 142.57155809 3.55872939 C167.40446714 3.60230795 192.23737538 3.63200872 217.0703125 3.65356445 C241.19727817 3.6745391 265.32422339 3.70178968 289.45117188 3.73754883 C290.19468561 3.73864831 290.93819935 3.73974778 291.70424381 3.74088058 C299.17081867 3.75192878 306.63739333 3.7631047 314.10396786 3.7743742 C329.31465182 3.79732919 344.52533699 3.81943163 359.73602295 3.84101868 C360.43540727 3.8420123 361.1347916 3.84300591 361.85536939 3.84402964 C408.57022976 3.91029996 455.28511333 3.95663369 502 4 C499.40266767 5.96577633 496.80749206 7.79607191 494.0234375 9.48828125 C492.90134888 10.17216919 492.90134888 10.17216919 491.7565918 10.86987305 C490.9706665 11.34593994 490.18474121 11.82200684 489.375 12.3125 C488.56393799 12.80596924 487.75287598 13.29943848 486.91723633 13.80786133 C482.09556974 16.73873511 477.26230083 19.64971017 472.41796875 22.54296875 C468.31120821 25.01764028 464.23706727 27.54536038 460.15625 30.0625 C457.44719335 31.72548527 454.72883997 33.36978391 452 35 C444.68458508 39.37513561 437.42327511 43.83980981 430.2109375 48.3828125 C422.59674363 53.17612793 414.9271436 57.84416938 407.15869141 62.38354492 C399.01776825 67.14541193 390.98303201 72.06614175 383.0625 77.1875 C377.48798869 80.76174548 371.77483249 84.08920313 366.0625 87.4375 C359.04139357 91.55374519 352.17313854 95.76094568 345.46484375 100.37109375 C343.11614151 101.92324721 340.74155446 103.25579943 338.25 104.5625 C332.82227815 107.49880854 327.71270673 111.14548878 324.5 116.5 C323.28729216 122.5635392 323.86283942 126.84228894 326.7890625 132.20703125 C328.49110508 134.72715235 330.48391007 136.32260672 333 138 C333.99 138.66 334.98 139.32 336 140 C225.12 140 114.24 140 0 140 C0 93.8 0 47.6 0 0 Z " fill="#FEFEFE" transform="translate(0,1309)"/>
<path d="M0 0 C0.33 0 0.66 0 1 0 C1 46.2 1 92.4 1 140 C-109.55 140 -220.1 140 -334 140 C-331 138 -331 138 -328.5625 136.8125 C-325.21027551 134.44141438 -323.36966441 131.81444174 -322 128 C-321.24137896 123.22911655 -321.4940094 118.18381945 -323.61328125 113.76953125 C-327.35751306 108.99168051 -333.26573646 104.91142118 -339 103 C-339 102.34 -339 101.68 -339 101 C-339.73476562 100.7215625 -340.46953125 100.443125 -341.2265625 100.15625 C-349.23555212 96.81729095 -356.40618029 91.46480854 -363.55810547 86.60351562 C-367.60994402 83.86406163 -371.74007065 81.40328962 -376 79 C-377.80053437 77.88924781 -379.59281281 76.76495757 -381.375 75.625 C-382.22835937 75.08101562 -383.08171875 74.53703125 -383.9609375 73.9765625 C-386.39029164 72.39654554 -388.79849075 70.79276372 -391.203125 69.17578125 C-396.18542224 65.84732846 -401.26983314 62.69805214 -406.375 59.5625 C-408.24247432 58.41062113 -410.10966527 57.2582827 -411.9765625 56.10546875 C-412.85473633 55.56325684 -413.73291016 55.02104492 -414.63769531 54.46240234 C-420.39336328 50.89931314 -426.08657694 47.24211083 -431.765625 43.55859375 C-433.17705211 42.64318103 -434.58851159 41.7278182 -436 40.8125 C-436.71744385 40.34714844 -437.4348877 39.88179687 -438.17407227 39.40234375 C-444.45400265 35.33678794 -450.77543553 31.33900022 -457.10546875 27.35205078 C-463.03701848 23.61434521 -468.9428879 19.8392805 -474.83203125 16.03515625 C-478.7957934 13.48876897 -482.79015943 10.99231484 -486.79296875 8.5078125 C-488.79465338 7.1402899 -490.32216228 5.73167047 -492 4 C-490.96854597 3.99826375 -489.93709194 3.9965275 -488.87438172 3.99473864 C-443.43417839 3.9181838 -397.99397733 3.84040242 -352.55378723 3.7563324 C-351.52248061 3.75442488 -351.52248061 3.75442488 -350.47033951 3.75247882 C-335.52964195 3.72483689 -320.58894481 3.69697389 -305.64824809 3.66888306 C-298.32173253 3.65510942 -290.99521687 3.64138464 -283.66870117 3.62768555 C-282.57506474 3.62563942 -282.57506474 3.62563942 -281.45933464 3.62355196 C-257.81142526 3.57933112 -234.16351162 3.53833952 -210.51559364 3.49901587 C-186.22189801 3.45860136 -161.92821033 3.41494234 -137.63452798 3.36717889 C-134.20616907 3.36043996 -130.77781009 3.35373827 -127.34945107 3.34705925 C-126.6746759 3.34574352 -125.99990073 3.34442779 -125.30467784 3.3430722 C-114.42622636 3.32195646 -103.54777186 3.3042787 -92.66931238 3.28787469 C-81.74274888 3.2713252 -70.81619631 3.25110149 -59.88964602 3.22733159 C-53.96537038 3.21455247 -48.0411032 3.20342118 -42.11681747 3.19658089 C-36.70045764 3.19029192 -31.28412697 3.17948047 -25.86778311 3.1649667 C-23.90139328 3.16051471 -21.93499876 3.15776805 -19.96860411 3.15683801 C-17.30917537 3.15533868 -14.64983215 3.14780073 -11.99042034 3.1386652 C-10.82786104 3.1401992 -10.82786104 3.1401992 -9.64181569 3.14176419 C-6.49108734 3.12534377 -4.01228013 3.00409338 -1 2 C-0.67 1.34 -0.34 0.68 0 0 Z " fill="#FEFEFE" transform="translate(2967,1309)"/>
<path d="M0 0 C27.72 0 55.44 0 84 0 C88.5074671 10.14180098 88.5074671 10.14180098 89.7109375 14.25 C89.98301025 15.17490234 90.25508301 16.09980469 90.53540039 17.05273438 C90.9510022 18.51163086 90.9510022 18.51163086 91.375 20 C91.67462646 21.03962891 91.97425293 22.07925781 92.28295898 23.15039062 C94.97327474 32.6294001 97.29049395 42.18380376 99.53125 51.77734375 C100.72696832 56.89191696 101.9991417 61.98331645 103.29907227 67.07226562 C105.88273635 77.1920986 108.17069871 87.33611414 110.24853516 97.5715332 C111.35671445 103.00410806 112.54983358 108.38207228 113.9375 113.75 C116.08570622 122.09263217 117.85755613 130.50653582 119.64160156 138.93359375 C121.43254204 147.38593169 123.29183083 155.82058712 125.1875 164.25 C127.03277587 172.47512576 128.73258748 180.6915078 130.22265625 188.98828125 C131.16397139 194.02541479 132.34463567 199.00852129 133.5 204 C135.23534594 211.49878631 136.788859 218.98562208 138.15209961 226.5612793 C139.07261394 231.50108194 140.16680733 236.39937302 141.25390625 241.3046875 C143.90515454 253.38811903 146.33592502 265.51141192 148.73687744 277.64666748 C153.81793456 303.39287837 153.81793456 303.39287837 159.33764648 329.04760742 C159.54848877 329.99869385 159.75933105 330.94978027 159.9765625 331.9296875 C160.15268066 332.70554199 160.32879883 333.48139648 160.51025391 334.28076172 C161.20824661 338.1562566 161.56513733 342.08623598 162 346 C147.81 346 133.62 346 119 346 C119 353.26 119 360.52 119 368 C118.67 368 118.34 368 118 368 C118.01740234 366.81301514 118.01740234 366.81301514 118.03515625 365.60205078 C118.19574143 345.59485741 115.75725817 327.60072825 110.6289978 308.29164124 C109.33786201 303.40945189 108.19202672 298.50994875 107.125 293.57421875 C106.82640803 292.21173522 106.52774386 290.8492675 106.22900391 289.48681641 C105.67638531 286.96147884 105.13939526 284.43445764 104.61083984 281.90380859 C102.28523096 271.51257194 98.10917126 262.96404001 91.1875 254.875 C90.03314453 253.50988281 90.03314453 253.50988281 88.85546875 252.1171875 C87.92672681 251.05744406 86.99639795 249.99639795 86 249 C84.15274827 248.8912931 82.30132533 248.85311398 80.45091248 248.84178162 C79.24631378 248.8319928 78.04171509 248.82220398 76.8006134 248.81211853 C75.45358316 248.80621359 74.1065525 248.80040319 72.75952148 248.79467773 C71.35052194 248.78510449 69.94152531 248.77509474 68.53253174 248.76467896 C64.69595498 248.73756377 60.85936584 248.71659015 57.02274585 248.69667697 C53.01750586 248.67485806 49.01230433 248.6474494 45.00709534 248.62062073 C37.41750785 248.57063829 29.82789909 248.52572013 22.23826987 248.48259836 C13.59993345 248.43327332 4.96163561 248.3783377 -3.67666352 248.32291877 C-21.45107322 248.20901355 -39.2255193 248.1021932 -57 248 C-56.39118319 242.9228566 -55.64609766 238.09591478 -54.3984375 233.125 C-54.07296041 231.81169552 -53.74752268 230.49838129 -53.42211914 229.18505859 C-53.16593307 228.16203644 -53.16593307 228.16203644 -52.90457153 227.11834717 C-49.76961958 214.57817802 -46.8215624 202.00303053 -44.0625 189.375 C-43.91343201 188.69727539 -43.76436401 188.01955078 -43.61077881 187.32128906 C-42.19933817 180.8936366 -40.87737712 174.52546013 -40 168 C-40.969375 168.33 -41.93875 168.66 -42.9375 169 C-48.50892914 170.56766933 -53.72765275 170.84656074 -59.1875 168.8125 C-79.79807357 155.53013037 -86.37277065 125.71520447 -91.24780273 103.19659424 C-96.36805306 79.07299399 -101.42287405 53.71463891 -101 29 C-96.92969975 28.56542369 -92.85866664 28.13854596 -88.78686523 27.71826172 C-87.40677034 27.57477936 -86.02687836 27.42932921 -84.6472168 27.28173828 C-76.41445418 26.40254024 -68.28762865 25.76436386 -60 26 C-56.34835757 37.92729769 -53.24437614 49.91079507 -50.4375 62.0625 C-47.17070948 76.10594042 -47.17070948 76.10594042 -43.78515625 90.12109375 C-43.61986923 90.80285172 -43.45458221 91.48460968 -43.2842865 92.18702698 C-42.67798075 95.36187691 -42.67798075 95.36187691 -41 98 C-40.73896484 97.44763672 -40.47792969 96.89527344 -40.20898438 96.32617188 C-34.91231582 85.1298865 -29.55113124 73.97561571 -23.96777344 62.91943359 C-22.9771839 60.95474768 -21.9916181 58.98762235 -21.0078125 57.01953125 C-20.51099976 56.02687256 -20.51099976 56.02687256 -20.00415039 55.01416016 C-19.33302346 53.66799016 -18.66555651 52.31998945 -18.00170898 50.97021484 C-16.40787342 47.74198611 -14.77491202 44.5697936 -12.96484375 41.45703125 C-5.28156243 27.64488968 -4.06299197 16.83239532 0 0 Z " fill="#6C63FD" transform="translate(2563,460)"/>
<path d="M0 0 C0.66115751 -0.00189924 1.32231503 -0.00379848 2.00350762 -0.00575527 C4.23904789 -0.01094038 6.47452573 -0.00895974 8.71007043 -0.00706255 C10.3278923 -0.00931763 11.94571362 -0.01200868 13.56353411 -0.01509839 C18.04154734 -0.02235691 22.51954385 -0.02332766 26.99756216 -0.02332116 C31.85713794 -0.02438786 36.7167062 -0.03117504 41.57627785 -0.03722787 C51.22915191 -0.0483191 60.88202232 -0.05395598 70.53490162 -0.05793675 C82.09104209 -0.06293966 93.64717547 -0.07366615 105.20331175 -0.08441848 C133.13754622 -0.1100667 161.07178344 -0.12508693 189.0060263 -0.13792895 C198.25538464 -0.14218176 207.50474277 -0.14674743 216.75410086 -0.15151227 C265.1947925 -0.17640509 313.63548458 -0.1984841 362.07618122 -0.21070265 C365.62266462 -0.21160002 369.16914802 -0.21251472 372.71563141 -0.21343038 C373.7709066 -0.2137028 373.7709066 -0.2137028 374.84750049 -0.21398072 C381.9752335 -0.21582342 389.10296651 -0.21768928 396.23069951 -0.21957881 C397.65984192 -0.21995686 399.08898434 -0.22033316 400.51812675 -0.2207077 C446.42287252 -0.23273931 492.32758039 -0.26243036 538.2323083 -0.30412281 C571.21226279 -0.33406752 604.19220952 -0.36169834 637.17217714 -0.37140048 C638.18929033 -0.37170131 638.18929033 -0.37170131 639.22695127 -0.37200822 C654.11157806 -0.37635857 668.99620482 -0.37930447 683.88083216 -0.38093473 C689.86964187 -0.3816111 695.85845156 -0.38246736 701.84726125 -0.3833729 C703.15750902 -0.38356352 704.46775679 -0.38375413 705.81770904 -0.38395052 C726.93342627 -0.38746882 748.04909564 -0.4077884 769.16479528 -0.43416954 C790.37570968 -0.46027077 811.58656859 -0.46805999 832.79749676 -0.45706825 C845.40897524 -0.45107694 858.02026597 -0.45907918 870.63171616 -0.48689909 C879.04827208 -0.50409624 887.46469935 -0.50324859 895.88125789 -0.4875314 C900.6819036 -0.47908586 905.48218994 -0.47865597 910.28280296 -0.50014286 C914.64824379 -0.51952568 919.01303651 -0.51598489 923.37845947 -0.49398937 C924.94967991 -0.49011828 926.52094888 -0.49466841 928.09211253 -0.50857639 C943.36638571 -0.63504848 943.36638571 -0.63504848 949.55800611 5.12995183 C953.94408208 9.96588176 954.98681538 13.03135016 954.89394361 19.45807683 C954.34908758 23.79158294 952.71760946 27.11516364 949.55800611 30.12995183 C942.04464361 35.12434354 934.45783652 34.68955007 925.75667459 34.6333164 C924.12930715 34.63749109 922.50194342 34.64341768 920.87458798 34.65093386 C916.39328857 34.6665308 911.91233321 34.65717972 907.43103931 34.64382205 C902.55932999 34.63368876 897.68767401 34.64670952 892.81597221 34.65679538 C884.27459224 34.67125728 875.73331335 34.67079461 867.19192868 34.66060674 C854.49081715 34.64549833 841.78979115 34.65320052 829.08868022 34.66543997 C806.40693765 34.686523 783.72524009 34.68466944 761.04349321 34.67312432 C741.19520775 34.66307077 721.34693881 34.66043124 701.49865133 34.6652149 C699.52545585 34.66567321 699.52545585 34.66567321 697.51239784 34.66614078 C692.17280709 34.66738608 686.83321635 34.66865729 681.49362562 34.66997983 C666.56704243 34.67364798 651.64045918 34.6759303 636.71387559 34.67712438 C636.03413872 34.67717896 635.35440186 34.67723355 634.6540669 34.67728978 C612.99263657 34.67892705 591.33121195 34.67441851 569.66978341 34.66572607 C568.96714603 34.66544507 568.26450864 34.66516407 567.54057921 34.66487456 C556.12994625 34.66029468 544.71931341 34.65541687 533.30868058 34.65051387 C488.04924395 34.63108719 442.78985464 34.6319909 397.53041822 34.65143621 C386.12437394 34.65632089 374.71832965 34.66116506 363.31228524 34.66572607 C362.60999249 34.66600786 361.90769973 34.66628965 361.18412537 34.66657998 C339.54453065 34.67520335 317.90493987 34.67886208 296.26534349 34.67712438 C295.58611822 34.67707004 294.90689295 34.67701571 294.2070851 34.67695972 C279.29774505 34.67570987 264.38840542 34.67317543 249.47906578 34.66948237 C243.48055891 34.6680019 237.48205202 34.66660824 231.48354512 34.6652149 C230.17119613 34.66489859 228.85884714 34.66458228 227.50673 34.66425638 C207.66772009 34.65970183 187.82872849 34.66503625 167.98972112 34.67513311 C145.43816403 34.68655311 122.88665908 34.68374721 100.33510851 34.66201013 C87.70565332 34.65023919 75.07631097 34.64953534 62.44685864 34.66459483 C54.01975851 34.67353731 45.59274921 34.66803135 37.16566258 34.65057576 C32.35831179 34.64102487 27.55118584 34.63788081 22.74384182 34.65219969 C18.37357076 34.6650845 14.00372478 34.65968497 9.63348493 34.63947704 C8.05938605 34.63543641 6.48525228 34.63814433 4.91118098 34.6483008 C-9.67829681 34.7357839 -9.67829681 34.7357839 -15.44199389 30.12995183 C-19.76956608 25.34684574 -20.49371017 20.39796417 -20.44199389 14.12995183 C-19.95371264 11.82526433 -19.95371264 11.82526433 -19.44199389 10.12995183 C-18.78199389 10.12995183 -18.12199389 10.12995183 -17.44199389 10.12995183 C-17.23574389 9.38745183 -17.02949389 8.64495183 -16.81699389 7.87995183 C-13.42676035 1.09948475 -6.91838494 0.00564111 0 0 Z " fill="#DFDFDF" transform="translate(752.4419938921928,653.8700481653214)"/>
<path d="M0 0 C1.2522156 -0.00551949 2.50443121 -0.01103897 3.79459274 -0.01672572 C5.18432204 -0.01275002 6.57405082 -0.00859109 7.96377909 -0.00426924 C9.44609606 -0.00696199 10.92841165 -0.01052945 12.41072464 -0.01489371 C16.50319346 -0.02437754 20.59557358 -0.02134274 24.68804684 -0.01633817 C29.13312616 -0.01307963 33.57818618 -0.0213473 38.0232594 -0.02815652 C45.82022404 -0.03847961 53.61716383 -0.04129632 61.41413462 -0.03924429 C73.00838227 -0.03620031 84.60260233 -0.04450485 96.19684462 -0.05499355 C118.10636793 -0.07435952 140.0158819 -0.07996272 161.92541276 -0.08110766 C178.8407599 -0.08202585 195.75610336 -0.08613784 212.6714493 -0.09250891 C217.53601789 -0.09430393 222.40058648 -0.09608355 227.26515508 -0.09785867 C228.47441024 -0.09830076 229.68366541 -0.09874286 230.92956467 -0.09919835 C264.95440703 -0.11151076 298.97924812 -0.11939907 333.00409281 -0.1185118 C334.92924267 -0.11846506 334.92924267 -0.11846506 336.89328444 -0.11841738 C343.39864279 -0.11825116 349.90400115 -0.11805307 356.4093595 -0.11784796 C357.70140811 -0.11780807 358.99345672 -0.11776818 360.32465832 -0.11772708 C362.93749604 -0.11764621 365.55033376 -0.11756261 368.16317149 -0.1174763 C408.82614581 -0.11625045 449.48908679 -0.1312687 490.15205157 -0.15862143 C535.80836899 -0.18932019 581.4646645 -0.20655528 627.1209929 -0.20469499 C631.9861902 -0.20454572 636.8513875 -0.20444831 641.7165848 -0.20438635 C642.91457181 -0.20436304 644.11255881 -0.20433974 645.34684845 -0.20431572 C664.65318865 -0.20425409 683.95949998 -0.21704371 703.26583159 -0.23425088 C722.65726681 -0.25117688 742.04865965 -0.25320503 761.44009815 -0.24003224 C772.96976318 -0.23262295 784.49929974 -0.23635991 796.02895125 -0.25591692 C803.72306055 -0.26786861 811.41707626 -0.26537974 819.11118116 -0.25097592 C823.49994674 -0.24317208 827.88846273 -0.2417777 832.27721123 -0.25789063 C836.26770048 -0.27241365 840.25773157 -0.26861738 844.24820018 -0.25004289 C845.68482609 -0.2465925 847.12148756 -0.24988243 848.55807729 -0.26064531 C857.21135116 -0.32114719 863.01082669 -0.16438937 869.57002032 5.85065591 C873.50251261 10.93577525 874.3421605 14.90165085 873.82783282 21.25299966 C872.82783282 24.75299966 872.82783282 24.75299966 871.82783282 27.25299966 C871.16783282 27.25299966 870.50783282 27.25299966 869.82783282 27.25299966 C869.64220782 27.85112466 869.45658282 28.44924966 869.26533282 29.06549966 C867.12353354 32.32475944 864.48478617 33.31014559 860.82783282 34.25299966 C856.02564253 34.69436259 851.22970109 34.65603462 846.41176283 34.63052309 C844.92339995 34.63365381 843.43503935 34.63809855 841.94668385 34.64373618 C837.84671985 34.65543787 833.74696726 34.64841836 829.64700663 34.63840233 C825.19038364 34.63080435 820.7337935 34.64056715 816.27717513 34.64813232 C808.46306733 34.65898018 800.64902167 34.65863085 792.83491099 34.65099084 C781.21527072 34.63966086 769.59568306 34.6454355 757.97604316 34.65461577 C737.22577138 34.67042905 716.47552728 34.66903746 695.72525285 34.66037903 C677.5672187 34.65283923 659.40919471 34.65085905 641.25115931 34.65444696 C640.04777588 34.65467611 638.84439246 34.65490527 637.60454287 34.65514137 C632.7199123 34.65607535 627.83528174 34.65703054 622.95065118 34.65802066 C577.10857732 34.66720223 531.26652112 34.65886993 485.42444998 34.64272997 C444.67389171 34.62849174 403.92336155 34.62976727 363.17280352 34.64411294 C317.41430112 34.66016766 271.65581431 34.66655204 225.89730948 34.65727615 C221.02176985 34.65631397 216.1462302 34.65537545 211.27069056 34.65444696 C209.46989897 34.65409111 209.46989897 34.65409111 207.63272775 34.65372807 C189.48298532 34.65031195 171.33325415 34.65431336 153.18351328 34.66188562 C132.55256354 34.67045002 111.92164586 34.66834747 91.29070013 34.65204339 C79.73639857 34.6432142 68.18216639 34.64268872 56.62786659 34.65398191 C48.91867808 34.66068757 41.20954543 34.65656147 33.50036523 34.6434676 C29.10223711 34.63630281 24.70424727 34.63394986 20.30612331 34.64468555 C16.30836251 34.65434488 12.3108632 34.65030548 8.31312163 34.63514357 C6.87272446 34.63211161 5.43230586 34.63414784 3.99192562 34.64176138 C2.04031021 34.65134859 0.08862669 34.6407049 -1.86297745 34.62904716 C-2.94485268 34.62884388 -4.02672792 34.6286406 -5.14138726 34.62843116 C-8.65846367 34.19276071 -11.10693493 32.98990285 -14.17216718 31.25299966 C-14.17216718 30.59299966 -14.17216718 29.93299966 -14.17216718 29.25299966 C-14.83216718 29.25299966 -15.49216718 29.25299966 -16.17216718 29.25299966 C-19.14459939 24.08355235 -20.90006349 19.07622204 -19.76982343 13.13971841 C-18.101172 7.89679588 -15.69136342 5.3260531 -11.17216718 2.25299966 C-7.32291674 0.3913344 -4.25932079 0.00230022 0 0 Z " fill="#DFDFDF" transform="translate(752.1721671819687,698.747000336647)"/>
<path d="M0 0 C1.24763791 -0.00382555 2.49527583 -0.00765109 3.78072095 -0.01159257 C7.23677202 -0.02187177 10.69271934 -0.01969094 14.14877892 -0.01541197 C17.8789723 -0.01294455 21.60914072 -0.02195922 25.33932495 -0.02944946 C32.64512994 -0.0421989 39.95089817 -0.04398978 47.25671241 -0.0416492 C53.19661014 -0.03986583 59.13649673 -0.04161609 65.07639313 -0.04587364 C65.9219535 -0.04646883 66.76751387 -0.04706402 67.63869728 -0.04767724 C69.35651277 -0.04888901 71.07432825 -0.05010314 72.79214373 -0.05131962 C88.90287929 -0.06219651 105.01359393 -0.06003221 121.12433067 -0.05393478 C135.85443378 -0.04876784 150.58447072 -0.06001488 165.31456074 -0.07903299 C180.44567129 -0.09841878 195.57675054 -0.10666595 210.70787358 -0.10290974 C219.20025767 -0.10099852 227.69258546 -0.1034774 236.18495941 -0.11762428 C243.4162836 -0.12954863 250.64751686 -0.13093132 257.87884232 -0.11883412 C261.56616717 -0.11295225 265.2533258 -0.11182661 268.9406395 -0.12383652 C272.94379323 -0.13672319 276.94655271 -0.12621416 280.94970703 -0.11352539 C282.6858206 -0.12458682 282.6858206 -0.12458682 284.45700717 -0.13587171 C294.55045756 -0.06865342 303.86548014 1.4837932 311.31866455 8.82710266 C317.67594067 15.77503035 319.33017806 21.6265432 319.0725708 30.97554016 C318.27117411 38.63434265 315.41728436 44.57853505 309.7366333 49.79194641 C306.33991967 52.27670191 302.64272136 53.77803754 298.7288208 55.26069641 C298.0688208 55.59069641 297.4088208 55.92069641 296.7288208 56.26069641 C295.05399743 56.35730611 293.37532075 56.38987563 291.69771481 56.39212418 C290.62639716 56.39596532 289.55507952 56.39980647 288.4512977 56.40376401 C287.26485039 56.40289753 286.07840307 56.40203104 284.85600281 56.40113831 C283.60290992 56.40410943 282.34981704 56.40708055 281.05875164 56.41014171 C277.56895705 56.41823 274.079183 56.4200023 270.58938015 56.42073917 C266.82982953 56.42258664 263.07028966 56.43013258 259.31074524 56.43687439 C251.08325052 56.45047281 242.85576065 56.45648522 234.62825656 56.46088505 C229.49132162 56.46364581 224.35438857 56.46788295 219.21745491 56.47238922 C204.99704704 56.48458554 190.77664068 56.49488304 176.55622768 56.49826431 C175.64553772 56.49848388 174.73484776 56.49870344 173.79656113 56.49892966 C172.42722816 56.49925708 172.42722816 56.49925708 171.03023189 56.49959111 C169.18033119 56.50003458 167.33043049 56.50048114 165.48052979 56.50093079 C164.56291223 56.50115222 163.64529468 56.50137365 162.69987053 56.50160179 C147.83951076 56.50554764 132.9792001 56.52299356 118.11885928 56.54629031 C102.86471315 56.57001141 87.61059165 56.58246657 72.35642678 56.58363223 C63.79079235 56.58454874 55.22522184 56.59029479 46.65960503 56.60845184 C39.36338357 56.62386331 32.06724575 56.62896726 24.77101111 56.62071374 C21.0494045 56.61681047 17.32796628 56.61772079 13.60638046 56.63177109 C9.5676405 56.64687892 5.52927894 56.63863364 1.49052429 56.62818909 C0.31969203 56.63624549 -0.85114023 56.6443019 -2.05745226 56.65260243 C-12.34766949 56.59036613 -20.73291145 54.56853677 -28.2711792 47.26069641 C-33.37411052 40.88850807 -35.78713493 33.83813245 -35.5914917 25.66304016 C-34.73640136 19.24986261 -31.91690519 12.78086224 -27.2711792 8.26069641 C-18.26548018 1.3901918 -11.19162527 -0.03626478 0 0 Z " fill="#6D64FD" transform="translate(767.2711791992188,491.7393035888672)"/>
<path d="M0 0 C2.80474476 3.40339649 4.63287579 7.13536038 6.484375 11.10546875 C6.81654022 11.80881851 7.14870544 12.51216827 7.49093628 13.23683167 C8.58211233 15.55148725 9.66626015 17.86935447 10.75 20.1875 C11.51466143 21.81484903 12.27947475 23.44212669 13.04443359 25.06933594 C18.61542605 36.94253823 24.06359325 48.86963861 29.46484375 60.82080078 C33.81493101 70.43877245 38.25561288 80.01116088 42.75 89.5625 C47.41663385 99.48182112 52.04831115 109.41502005 56.60229492 119.38671875 C60.51728704 127.95682259 64.46084955 136.51353603 68.41073608 145.06759644 C69.56066645 147.55852824 70.70974424 150.04985181 71.85864258 152.54125977 C75.49922337 160.43354531 79.14670012 168.3224532 82.81712341 176.20091248 C84.48084073 179.77311057 86.14082776 183.34703619 87.80050659 186.92111206 C88.59349605 188.62602426 89.38832611 190.33008168 90.18508911 192.03323364 C91.2947041 194.40544207 92.3979748 196.78050826 93.5 199.15625 C93.82624863 199.84935776 94.15249725 200.54246552 94.4886322 201.25657654 C96.42102989 205.44215823 97.84123456 209.53585613 99 214 C99.99515625 213.29617188 100.9903125 212.59234375 102.015625 211.8671875 C106.67426191 208.57412024 111.3368653 205.28669381 116 202 C116.87092285 201.38560059 117.7418457 200.77120117 118.63916016 200.13818359 C121.2786582 198.27731568 123.92031901 196.41955597 126.5625 194.5625 C127.79178223 193.6950415 127.79178223 193.6950415 129.04589844 192.81005859 C133.93983324 189.37552587 138.90202249 186.12419011 144 183 C146.21165444 186.38066541 148.38984893 189.78166204 150.5625 193.1875 C151.19091797 194.14720703 151.81933594 195.10691406 152.46679688 196.09570312 C153.05654297 197.02705078 153.64628906 197.95839844 154.25390625 198.91796875 C154.80377197 199.77156982 155.3536377 200.6251709 155.92016602 201.50463867 C157.22909801 204.52941686 157.01581458 205.90677852 156 209 C155.484375 209.845625 154.96875 210.69125 154.4375 211.5625 C152.91465409 215.20408804 152.91860735 217.11969496 153.0625 221 C153.13330343 224.81394456 153.04007985 226.89797857 151.625 230.5 C147.04646369 234.86051077 141.64519588 236.8175727 135.375 237.25 C134.59125 237.1675 133.8075 237.085 133 237 C132.82726563 235.95714844 132.65453125 234.91429687 132.4765625 233.83984375 C131.06514161 228.89987064 127.59847925 227.09113287 123.375 224.5625 C122.66859375 224.11712891 121.9621875 223.67175781 121.234375 223.21289062 C119.50094171 222.12363863 117.75192516 221.05925402 116 220 C115.83383179 220.5349408 115.66766357 221.06988159 115.49645996 221.62103271 C113.5890337 227.56925432 111.24695487 233.21092059 108.65625 238.890625 C108.24588501 239.79826599 107.83552002 240.70590698 107.41271973 241.64105225 C106.550887 243.54454958 105.68688356 245.44706547 104.82080078 247.34863281 C103.49849915 250.25329688 102.18430993 253.16153131 100.87109375 256.0703125 C100.02912291 257.92729972 99.18669096 259.78407795 98.34375 261.640625 C97.95304321 262.50528381 97.56233643 263.36994263 97.15979004 264.26080322 C94.62017684 269.82312774 92.18208445 275.00924384 87.890625 279.453125 C87.0099939 280.37544922 87.0099939 280.37544922 86.11157227 281.31640625 C85.49725342 281.95449219 84.88293457 282.59257813 84.25 283.25 C74.48555925 292.24524677 74.48555925 292.24524677 69.75 303.8125 C70.94402228 307.63704723 70.94402228 307.63704723 76 311 C58.51 311 41.02 311 23 311 C20.76352562 294.22644214 20.76352562 294.22644214 19.96484375 287.640625 C19.7937586 286.24477465 19.62253106 284.84894174 19.45117188 283.453125 C19.19086457 281.32699246 18.93154885 279.20075521 18.67456055 277.07421875 C18.41994815 274.9710019 18.16147359 272.86828938 17.90234375 270.765625 C17.67792603 268.92145996 17.67792603 268.92145996 17.44897461 267.04003906 C17.08495936 263.9644954 17.08495936 263.9644954 16 261 C12.0177814 261.56888837 9.39432507 262.89001415 6 265 C5.34 265 4.68 265 4 265 C3.896875 265.721875 3.79375 266.44375 3.6875 267.1875 C2.5642625 271.78256249 0.93931026 274.37379316 -3 277 C-10.2912787 277.83174587 -16.36809489 277.06087928 -23 274 C-22.4740625 273.2575 -22.4740625 273.2575 -21.9375 272.5 C-20.1909252 267.8424672 -21.23445793 263.72246966 -23.1875 259.328125 C-24.08032218 257.57291776 -24.9971225 255.82962851 -25.94140625 254.1015625 C-27 252 -27 252 -27 250 C-27.66 250 -28.32 250 -29 250 C-29 246.04 -29 242.08 -29 238 C-31.64 238 -34.28 238 -37 238 C-37 237.67 -37 237.34 -37 237 C-16.87 237 3.26 237 24 237 C23.443125 232.111875 22.88625 227.22375 22.3125 222.1875 C20.57396813 206.70021821 19.00591305 191.1989985 17.5 175.6875 C17.3419136 174.06019958 17.3419136 174.06019958 17.18063354 172.40002441 C16.96804524 170.21148759 16.75546484 168.02294999 16.54289246 165.83441162 C16.38630913 164.22254974 16.38630913 164.22254974 16.2265625 162.578125 C16.122939 161.51112366 16.01931549 160.44412231 15.91255188 159.3447876 C14.92621468 149.20634617 13.91250089 139.07082985 12.875 128.9375 C12.79266113 128.13272217 12.71032227 127.32794434 12.62548828 126.4987793 C11.55332552 116.04996931 10.38669868 105.61654801 9.1418457 95.18676758 C7.84862465 84.11599848 6.84263579 73.01837449 5.81115723 61.9208374 C4.45503032 47.35316561 2.92418205 32.81271464 1.21899414 18.28173828 C1.13696243 17.57060379 1.05493073 16.8594693 0.97041321 16.12678528 C0.75127705 14.22845045 0.52768013 12.33063201 0.30371094 10.43286133 C-0.00562075 6.93646841 -0.05266519 3.50811804 0 0 Z " fill="#FDFDFD" transform="translate(2591,991)"/>
<path d="M0 0 C4.30455827 0.44046643 6.42113869 3.18003596 9.125 6.25 C9.84296753 7.04821167 9.84296753 7.04821167 10.57543945 7.86254883 C14.4112858 12.18837325 17.95316233 16.71059182 21.42236328 21.33276367 C24.53754616 25.46943092 27.86795346 29.32008966 31.40625 33.09765625 C33.70931167 35.84665388 34.83250831 38.26303658 35.625 41.75 C34.40191694 48.11003194 29.07986762 51.51710618 24.01953125 55.125 C18.14207111 58.98359048 12.11286345 62.5206879 5.99951172 65.99047852 C-1.41475731 70.20269247 -8.42109895 74.58425146 -15.22412109 79.72509766 C-20.37662708 83.59944131 -25.67295809 87.21341596 -31.0625 90.75 C-31.84101318 91.26868652 -32.61952637 91.78737305 -33.42163086 92.32177734 C-38.24141079 95.45729785 -43.1752763 98.15783817 -48.32592773 100.69628906 C-48.9701342 101.01598663 -49.61434067 101.3356842 -50.27806854 101.66506958 C-51.85107086 102.44534802 -53.42539958 103.22295156 -55 104 C-54.43020707 104.00135653 -53.86041415 104.00271306 -53.27335477 104.00411069 C-19.52054924 104.0847193 14.2322114 104.1756568 47.98495166 104.28005161 C52.03554046 104.29257084 56.08612952 104.30500356 60.13671875 104.31738281 C60.9431355 104.31984881 61.74955224 104.3223148 62.58040586 104.32485552 C75.64654226 104.36460489 88.71268732 104.39734258 101.77884898 104.42749982 C115.18084147 104.45858783 128.58279708 104.49718583 141.98474813 104.54279006 C150.25786399 104.57070411 158.5309528 104.59272447 166.80410317 104.60726251 C172.47337872 104.6177854 178.14260195 104.63558734 183.81183812 104.65916704 C187.08518402 104.67256502 190.35844207 104.68162501 193.63181686 104.68421364 C197.17756014 104.68752095 200.7230465 104.70295703 204.26873779 104.7215271 C205.8270948 104.718625 205.8270948 104.718625 207.41693377 104.71566427 C208.36541477 104.72312976 209.31389577 104.73059525 210.29111862 104.73828697 C211.10979565 104.74056529 211.92847269 104.74284362 212.77195811 104.74519098 C215.27999495 105.0320215 216.8825219 105.63357705 219 107 C219.875 109.4375 219.875 109.4375 220 112 C218 115 218 115 215 116 C212.3240253 116.09917418 209.67405347 116.14114379 206.9978981 116.13701439 C206.16923064 116.13966622 205.34056318 116.14231804 204.48678458 116.14505023 C201.68586026 116.15276271 198.88497965 116.15330314 196.08404541 116.15390015 C194.06529205 116.15791347 192.0465395 116.16235148 190.02778792 116.1671797 C184.46130968 116.1791653 178.89484012 116.18479824 173.3283515 116.18936086 C167.33229851 116.19530933 161.33625594 116.20692096 155.34020996 116.21765137 C141.53608952 116.24103106 127.73196589 116.25558421 113.92783224 116.26788078 C109.1526716 116.27213488 104.37751135 116.27670059 99.60235119 116.2814641 C74.21893468 116.3067222 48.83551753 116.32877291 23.45209122 116.34119225 C17.57059985 116.34411363 11.68910851 116.34708114 5.80761719 116.35009766 C5.07690824 116.35046857 4.34619929 116.35083947 3.59334765 116.35122162 C-20.10359773 116.36338 -43.80046889 116.39432891 -67.4973794 116.43601918 C-91.85377324 116.47879163 -116.21012787 116.50543126 -140.56656029 116.51066696 C-144.00553741 116.51140742 -147.44451446 116.51231811 -150.88349152 116.51332474 C-151.89873993 116.51361066 -151.89873993 116.51361066 -152.93449841 116.51390236 C-163.8334272 116.51741793 -174.73226312 116.53772486 -185.63115779 116.56412137 C-196.58320232 116.59024698 -207.53515419 116.59758662 -218.48722765 116.58702008 C-224.42225942 116.5818204 -230.35699542 116.58480543 -236.29198456 116.60948563 C-241.72277274 116.63188121 -247.15305102 116.63131368 -252.58384755 116.61228175 C-254.55090193 116.60946814 -256.51799019 116.6151553 -258.48498985 116.63009469 C-261.15546187 116.64914056 -263.82410428 116.63745332 -266.49453354 116.61803246 C-267.26141617 116.63088168 -268.0282988 116.6437309 -268.81842029 116.65696949 C-274.638734 116.56372031 -277.53551936 114.70190037 -282 111 C-281.814375 110.38125 -281.62875 109.7625 -281.4375 109.125 C-280.76313824 106.95839822 -280.76313824 106.95839822 -282 105 C-271.605 104.505 -271.605 104.505 -261 104 C-262.32 103.01 -263.64 102.02 -265 101 C-268.7634252 97.70449623 -268.7634252 97.70449623 -269.70703125 94.89453125 C-269.87588608 91.56121191 -269.4293741 89.48574706 -267.21484375 86.98046875 C-262.38767481 84.00674499 -257.21297658 82.8895376 -251.75 81.5 C-239.05817172 78.22613617 -229.46370493 73.95607966 -218.625 66.5625 C-217.58512939 65.86181396 -216.54525879 65.16112793 -215.47387695 64.43920898 C-210.40371874 61.01637782 -205.35577948 57.56170577 -200.31640625 54.09375 C-199.44741699 53.49618896 -198.57842773 52.89862793 -197.68310547 52.28295898 C-196.0528988 51.15910197 -194.42548549 50.03117927 -192.80126953 48.89868164 C-192.07665527 48.39715576 -191.35204102 47.89562988 -190.60546875 47.37890625 C-189.97793701 46.9413501 -189.35040527 46.50379395 -188.70385742 46.05297852 C-187 45 -187 45 -184 44 C-182.78989206 46.34477274 -181.60757291 48.69783837 -180.4375 51.0625 C-180.09525391 51.71927734 -179.75300781 52.37605469 -179.40039062 53.05273438 C-177.10848927 57.75228968 -176.69777441 60.75837841 -178 66 C-178.33 66.66 -178.66 67.32 -179 68 C-172.08514695 70.51449202 -164.06161951 71.35387317 -157 69 C-155.83040345 66.5232073 -155.03872549 64.17211328 -154.4375 61.5 C-152.15605215 57.53226461 -148.25706385 55.52556896 -144 54 C-141.85693359 54.44873047 -141.85693359 54.44873047 -140 55 C-139.82041748 56.17925049 -139.82041748 56.17925049 -139.63720703 57.38232422 C-138.76012551 63.11604302 -137.86730892 68.84615961 -136.9296875 74.5703125 C-136.578125 76.75520833 -136.2265625 78.94010417 -135.875 81.125 C-135.60236328 82.75888672 -135.60236328 82.75888672 -135.32421875 84.42578125 C-135.06705078 86.04419922 -135.06705078 86.04419922 -134.8046875 87.6953125 C-134.64983887 88.64422363 -134.49499023 89.59313477 -134.33544922 90.57080078 C-133.86706273 95.35897885 -134 100.18896735 -134 105 C-117.5 104.67 -101 104.34 -84 104 C-85.32 102.35 -86.64 100.7 -88 99 C-88.28458552 94.16773785 -86.96502361 91.60813178 -83.8671875 88.09765625 C-82.55125541 86.738124 -81.21994959 85.39333275 -79.875 84.0625 C-78.55856889 82.72135329 -77.24346086 81.37890658 -75.9296875 80.03515625 C-75.05159424 79.15935913 -75.05159424 79.15935913 -74.15576172 78.26586914 C-73.44436035 77.51813232 -72.73295898 76.77039551 -72 76 C-71.4557991 75.43676529 -70.91159821 74.87353058 -70.35090637 74.29322815 C-65.87706526 69.46622753 -63.10628009 64.75902343 -60.58984375 58.70703125 C-60.21444962 57.83914474 -59.83905548 56.97125824 -59.45228577 56.07707214 C-58.2666095 53.32800539 -57.10150345 50.57080315 -55.9375 47.8125 C-55.15440627 45.98311911 -54.369911 44.15433751 -53.58398438 42.32617188 C-52.43962604 39.66387362 -51.29620863 37.00123632 -50.15878296 34.33596802 C-47.23535925 27.49460106 -44.17949909 20.72679056 -41 14 C-36.91170185 15.55095619 -33.76699168 17.44376701 -30.25 20.0625 C-29.28578125 20.77535156 -28.3215625 21.48820312 -27.328125 22.22265625 C-25 24 -25 24 -24 25 C-23.95919217 26.99958364 -23.95745644 29.00045254 -24 31 C-22.10174715 30.57312017 -20.20646817 30.13300518 -18.3125 29.6875 C-17.25675781 29.44386719 -16.20101562 29.20023438 -15.11328125 28.94921875 C-11.20401623 27.75730984 -8.11827866 26.54711708 -5.67578125 23.16796875 C-4.81612338 20.41010679 -4.98815448 18.18984567 -5.1875 15.3125 C-5.33444999 9.00911903 -3.59401795 5.08296825 0 0 Z " fill="#36334B" transform="translate(2748,1197)"/>
<path d="M0 0 C1.26531052 0.00830841 1.26531052 0.00830841 2.55618286 0.01678467 C24.1905817 0.18344967 50.46495793 0.75342764 66.84765625 16.9453125 C75.92978814 28.04758214 77.27239752 39.92742342 77.14331055 53.77661133 C77.1248803 55.82580852 77.12280265 57.87455605 77.12304688 59.92382812 C77.07443565 70.81814304 77.07443565 70.81814304 75.9375 74.5 C76.72125 74.005 77.505 73.51 78.3125 73 C83.00619854 71.05777992 86.92265302 70.77309221 91.9375 71.5 C96.78284827 73.83294546 99.6718461 76.62013007 101.9375 81.5 C102.82435758 87.92519266 102.67084374 94.06564418 99.3359375 99.75390625 C96.69936411 103.04594063 93.48116019 105.26957858 89.9375 107.5 C89.03 108.11875 88.1225 108.7375 87.1875 109.375 C82.11264009 111.13168228 77.24036108 111.27240554 71.9375 110.5 C68.68946665 108.46201829 67.35979116 107.19890981 66.4296875 103.45703125 C66.05309843 100.80642356 65.9375 98.17617821 65.9375 95.5 C65.53660156 95.88671875 65.13570312 96.2734375 64.72265625 96.671875 C58.50842968 102.36472655 52.73603142 105.7693407 44.140625 105.6015625 C43.16254883 105.58689941 42.18447266 105.57223633 41.17675781 105.55712891 C40.43780273 105.53827637 39.69884766 105.51942383 38.9375 105.5 C38.95844727 104.57775635 38.97939453 103.6555127 39.00097656 102.70532227 C39.06963681 99.24428069 39.11953229 95.78397524 39.15722656 92.32250977 C39.17719458 90.83183282 39.2043792 89.3412327 39.23925781 87.85083008 C39.6357718 75.60075088 39.6357718 75.60075088 34.9375 64.5 C31.46545508 61.18944554 28.92730744 60.27861638 24.25 60.1875 C21.46551263 60.27887351 19.6228156 60.6048948 16.9375 61.5 C10.41850266 59.61952 6.62801167 56.14664124 2.9375 50.5 C1.12825127 46.92704632 -0.51875891 43.28128966 -2.04663086 39.57958984 C-4.24011359 34.47784857 -6.35061861 31.54321512 -11.0625 28.5 C-13.5625 27.703125 -13.5625 27.703125 -16.0625 28.5 C-19.26878524 30.68726639 -22.15131956 33.1369317 -25.125 35.62890625 C-28.0625 37.5 -28.0625 37.5 -30.875 37.33984375 C-33.0625 36.5 -33.0625 36.5 -34.0625 35.5 C-34.75017957 25.36995099 -34.45775706 15.63758006 -29.4375 6.5625 C-20.89358447 -0.85721612 -10.68690695 -0.13575208 0 0 Z " fill="#38354F" transform="translate(2576.0625,331.5)"/>
<path d="M0 0 C4.30455827 0.44046643 6.42113869 3.18003596 9.125 6.25 C9.84296753 7.04821167 9.84296753 7.04821167 10.57543945 7.86254883 C14.4112858 12.18837325 17.95316233 16.71059182 21.42236328 21.33276367 C24.53754616 25.46943092 27.86795346 29.32008966 31.40625 33.09765625 C33.70931167 35.84665388 34.83250831 38.26303658 35.625 41.75 C34.40191694 48.11003194 29.07986762 51.51710618 24.01953125 55.125 C18.14207111 58.98359048 12.11286345 62.5206879 5.99951172 65.99047852 C-1.41475731 70.20269247 -8.42109895 74.58425146 -15.22412109 79.72509766 C-20.37662708 83.59944131 -25.67295809 87.21341596 -31.0625 90.75 C-31.84101318 91.26868652 -32.61952637 91.78737305 -33.42163086 92.32177734 C-40.4349585 96.88431608 -47.36771248 100.18385624 -55 104 C78.65 104.495 78.65 104.495 215 105 C215 105.33 215 105.66 215 106 C99.5 106 -16 106 -135 106 C-135 102.04 -135 98.08 -135 94 C-134.67 94 -134.34 94 -134 94 C-134 97.63 -134 101.26 -134 105 C-117.5 104.67 -101 104.34 -84 104 C-85.32 102.35 -86.64 100.7 -88 99 C-88.28458552 94.16773785 -86.96502361 91.60813178 -83.8671875 88.09765625 C-82.55125541 86.738124 -81.21994959 85.39333275 -79.875 84.0625 C-78.55856889 82.72135329 -77.24346086 81.37890658 -75.9296875 80.03515625 C-75.34429199 79.4512915 -74.75889648 78.86742676 -74.15576172 78.26586914 C-73.44436035 77.51813232 -72.73295898 76.77039551 -72 76 C-71.4557991 75.43676529 -70.91159821 74.87353058 -70.35090637 74.29322815 C-65.87706526 69.46622753 -63.10628009 64.75902343 -60.58984375 58.70703125 C-60.21444962 57.83914474 -59.83905548 56.97125824 -59.45228577 56.07707214 C-58.2666095 53.32800539 -57.10150345 50.57080315 -55.9375 47.8125 C-55.15440627 45.98311911 -54.369911 44.15433751 -53.58398438 42.32617188 C-52.43962604 39.66387362 -51.29620863 37.00123632 -50.15878296 34.33596802 C-47.23535925 27.49460106 -44.17949909 20.72679056 -41 14 C-36.91170185 15.55095619 -33.76699168 17.44376701 -30.25 20.0625 C-29.28578125 20.77535156 -28.3215625 21.48820312 -27.328125 22.22265625 C-25 24 -25 24 -24 25 C-23.95919217 26.99958364 -23.95745644 29.00045254 -24 31 C-22.10174715 30.57312017 -20.20646817 30.13300518 -18.3125 29.6875 C-16.72888672 29.32205078 -16.72888672 29.32205078 -15.11328125 28.94921875 C-11.20401623 27.75730984 -8.11827866 26.54711708 -5.67578125 23.16796875 C-4.81612338 20.41010679 -4.98815448 18.18984567 -5.1875 15.3125 C-5.33444999 9.00911903 -3.59401795 5.08296825 0 0 Z " fill="#3C3952" transform="translate(2748,1197)"/>
<path d="M0 0 C1.50852583 -0.00350436 3.01704796 -0.0091665 4.52555847 -0.01681519 C8.6083083 -0.03102656 12.69038168 -0.0140387 16.77306676 0.00946999 C21.05170605 0.02962173 25.33031844 0.02369725 29.60899353 0.0213623 C36.79217647 0.02141582 43.97509591 0.04114263 51.15820312 0.07324219 C59.45677689 0.11014678 67.75500579 0.11891525 76.05365092 0.11194468 C84.0461797 0.1056348 92.03859053 0.11640202 100.0310955 0.13591003 C103.42848838 0.14407365 106.82582088 0.1467955 110.22322273 0.1452179 C114.22475397 0.14433754 118.22595859 0.15859544 122.22740364 0.18444443 C123.69391293 0.19159276 125.16045699 0.19369627 126.62697983 0.19032669 C128.63232872 0.18659862 130.63768438 0.20323554 132.64295959 0.2208252 C134.3244993 0.22641827 134.3244993 0.22641827 136.0400095 0.23212433 C141.93798657 0.95546381 146.3539874 3.8446939 150.02319336 8.39257812 C152.6239655 13.46052109 152.12579009 19.4649176 150.49584961 24.80273438 C148.13291105 29.59052255 144.80827794 31.45887814 140.16381836 33.61523438 C136.78880829 34.70227237 133.64592616 34.74592823 130.11125183 34.75567627 C128.87057449 34.76138641 127.62989716 34.76709656 126.35162354 34.77297974 C124.97937022 34.774225 123.60711679 34.77535012 122.23486328 34.77636719 C120.78752008 34.78099729 119.3401781 34.78602221 117.89283752 34.79141235 C113.9629781 34.80451951 110.03313575 34.81097798 106.10325789 34.81542301 C103.64681695 34.81835635 101.19038064 34.82246165 98.73394203 34.82692719 C91.04472952 34.84059745 83.35552764 34.85026651 75.66630381 34.85412908 C66.79677734 34.85860933 57.92740501 34.87615763 49.0579254 34.90512967 C42.19749168 34.9267597 35.3371013 34.93683406 28.47663385 34.93817019 C24.38125034 34.93921724 20.28601183 34.94510371 16.19066429 34.96298981 C12.33696999 34.97949349 8.48352933 34.98161496 4.62981224 34.9728508 C3.21852946 34.97208166 1.8072329 34.97640692 0.39598465 34.98630905 C-14.87505017 35.08714243 -14.87505017 35.08714243 -20.79711914 29.89648438 C-21.26375977 29.30867187 -21.73040039 28.72085938 -22.21118164 28.11523438 C-22.69329102 27.52742187 -23.17540039 26.93960938 -23.67211914 26.33398438 C-26.50294583 22.15424027 -26.40162049 17.46185309 -25.83618164 12.61523438 C-24.29794469 7.94492461 -21.27719743 4.4333638 -17.21881294 1.65519714 C-11.84481388 -0.6904276 -5.76252954 -0.05629805 0 0 Z " fill="#DFDFDF" transform="translate(761.836181640625,587.384765625)"/>
<path d="M0 0 C0.85386734 -0.00230769 1.70773468 -0.00461538 2.58747679 -0.006993 C5.46809996 -0.01231533 8.34850261 -0.00329037 11.22911453 0.00558662 C13.30734187 0.00471501 15.385569 0.00296486 17.46379495 0.00040829 C23.18977711 -0.004078 28.91568491 0.00395603 34.64165759 0.01396441 C40.81069743 0.02257818 46.97973285 0.01968023 53.14877701 0.01815987 C63.84210978 0.0171097 74.53541574 0.02333043 85.22874069 0.03463554 C96.44560486 0.04646379 107.66245932 0.05416626 118.87932968 0.05634117 C119.57638715 0.05647865 120.27344462 0.05661613 120.99162505 0.05675778 C124.5315318 0.05743443 128.07143855 0.0580372 131.61134532 0.05861153 C156.69384157 0.06281395 181.77632514 0.07629313 206.85881424 0.09521675 C231.2282797 0.11358123 255.59774169 0.1277506 279.96721268 0.13623238 C280.7181967 0.13649543 281.46918072 0.13675848 282.24292183 0.1370295 C289.78451348 0.13966651 297.32610517 0.14221814 304.86769687 0.14470722 C320.2312116 0.14977984 335.59472611 0.15542235 350.95824051 0.16140938 C351.66465228 0.16168396 352.37106405 0.16195854 353.09888223 0.16224144 C400.28335063 0.18064722 447.46781159 0.21237969 494.65227127 0.24609566 C494.98227127 2.55609566 495.31227127 4.86609566 495.65227127 7.24609566 C490.8743593 11.05786982 487.24973998 11.82256531 481.13208961 11.74946022 C480.28386647 11.75527398 479.43564332 11.76108775 478.56171644 11.76707768 C475.71208679 11.7817056 472.86331469 11.7677794 470.01369095 11.75403023 C467.95308352 11.75863802 465.89247937 11.76499011 463.83188212 11.77293921 C458.1636862 11.78967203 452.49575888 11.78136813 446.82756186 11.76899433 C440.71708555 11.75996249 434.60665617 11.77390422 428.49618912 11.78491402 C417.21629239 11.80169339 405.93650542 11.80021038 394.6566114 11.78926814 C384.23771189 11.77921056 373.81884386 11.77657696 363.39994049 11.78135872 C362.70914638 11.78166426 362.01835228 11.7819698 361.30662502 11.7822846 C358.50257115 11.78352992 355.6985173 11.78480352 352.89446346 11.78612365 C326.58625637 11.79836192 300.27810398 11.78726174 273.96990533 11.76573607 C250.58665427 11.74674916 227.20349033 11.74845541 203.82024002 11.76758003 C177.5574957 11.78898786 151.2947997 11.79749824 125.03204787 11.78513098 C122.23368876 11.78384807 119.43532965 11.78259672 116.63697052 11.78135872 C115.94792712 11.78104241 115.25888373 11.7807261 114.54896023 11.78040021 C104.13414873 11.7758463 93.71937211 11.78117878 83.30456543 11.79127693 C71.46649856 11.80269774 59.62853464 11.79950293 47.79047178 11.77815396 C41.74647981 11.76761464 35.70266505 11.76357078 29.65867424 11.77675056 C24.13198338 11.7886204 18.60563494 11.78220157 13.07897539 11.76084036 C11.07371671 11.75635132 9.06842943 11.75869169 7.06318896 11.76834351 C4.34863144 11.78041292 1.63526473 11.76812948 -1.07922935 11.74946022 C-1.86757459 11.75882488 -2.65591983 11.76818955 -3.46815431 11.77783799 C-7.00484877 11.72883371 -8.98647372 11.51413914 -11.86450994 9.37869787 C-13.34772873 7.24609566 -13.34772873 7.24609566 -13.34772873 4.62109566 C-12.34772873 2.24609566 -12.34772873 2.24609566 -10.80696177 1.11303914 C-7.23472227 -0.14626801 -3.74087731 -0.02467699 0 0 Z " fill="#38374A" transform="translate(13.347728729248047,1301.7539043426514)"/>
<path d="M0 0 C8.07341303 3.35122805 10.77425016 11.13171471 14.34912109 18.51635742 C18.22591417 26.71712301 18.22591417 26.71712301 25.16796875 32.2578125 C27.9247857 33.15590957 29.65248031 33.70500984 32.3125 32.375 C36.98720792 31.80468563 40.43566498 31.93658249 44.6875 34.0625 C49.12931975 37.97553169 52.02723102 43.07748403 52.54296875 49.0390625 C52.40083763 58.83318899 51.89063496 68.59832489 51.3125 78.375 C52.3025 78.375 53.2925 78.375 54.3125 78.375 C54.48694825 79.95749487 54.65142422 81.54108813 54.8125 83.125 C54.9053125 84.00671875 54.998125 84.8884375 55.09375 85.796875 C55.41064779 90.98041746 55.3125 96.18177974 55.3125 101.375 C40.7925 101.375 26.2725 101.375 11.3125 101.375 C11.3125 95.435 11.3125 89.495 11.3125 83.375 C10.075 83.33375 8.8375 83.2925 7.5625 83.25 C-2.69264035 82.07291628 -11.90505544 75.9395157 -18.6875 68.375 C-21.05607355 65.19040782 -22.93124823 61.93020874 -24.6875 58.375 C-25.10128906 57.57835937 -25.51507812 56.78171875 -25.94140625 55.9609375 C-30.69943631 45.25122523 -30.43853948 31.90066484 -26.4375 21 C-24.19810661 15.76092533 -21.87544901 11.31882114 -16.5 9 C-15.59701172 8.67128906 -15.59701172 8.67128906 -14.67578125 8.3359375 C-12.15335574 7.11684776 -10.30651247 5.45161041 -8.1875 3.625 C-5.08177342 1.14674619 -4.06475501 0.41336492 0 0 Z " fill="#F1A6AA" transform="translate(2563.6875,358.625)"/>
<path d="M0 0 C1.53745628 -0.0076664 1.53745628 -0.0076664 3.10597229 -0.01548767 C6.49136202 -0.02937843 9.87654806 -0.02842732 13.26196289 -0.02612305 C15.61698991 -0.03001013 17.97201622 -0.03434482 20.32704163 -0.03910828 C25.26232171 -0.04656929 30.19753025 -0.04627994 35.1328125 -0.04101562 C41.45576884 -0.03521988 47.77843237 -0.05215537 54.10134029 -0.0753603 C58.96466279 -0.09009483 63.82791471 -0.09096973 68.69125557 -0.08785057 C71.02244204 -0.08836388 73.35363246 -0.09360336 75.68479729 -0.10366249 C78.94500619 -0.11600439 82.20464393 -0.10924837 85.46484375 -0.09765625 C86.42659515 -0.10529999 87.38834656 -0.11294373 88.37924194 -0.12081909 C95.20483295 -0.06720097 99.43606745 1.12347777 104.60961914 5.8371582 C107.70199975 9.8502476 108.06331871 14.3297995 107.79711914 19.2746582 C106.10153644 24.56088661 103.15780915 27.09498841 98.79711914 30.2746582 C96.00940556 31.20389606 94.30325334 31.4078957 91.42132568 31.42855835 C90.52700333 31.43715881 89.63268097 31.44575928 88.71125793 31.45462036 C87.73251205 31.45888031 86.75376617 31.46314026 85.74536133 31.4675293 C84.19612221 31.47979553 84.19612221 31.47979553 82.61558533 31.49230957 C79.1917275 31.51715704 75.76791112 31.53367782 72.34399414 31.5480957 C71.17499825 31.55341938 70.00600235 31.55874306 68.80158234 31.56422806 C62.61439164 31.59095653 56.4272211 31.61033264 50.23999023 31.62475586 C43.84969169 31.64140493 37.45990873 31.6861865 31.06980515 31.7371273 C26.15583707 31.77078278 21.24199166 31.78233147 16.32791901 31.78798294 C13.97240508 31.79469978 11.61689934 31.80993291 9.2614975 31.83387375 C5.96272241 31.86549078 2.6653419 31.86556663 -0.63354492 31.8581543 C-1.60419388 31.87455963 -2.57484283 31.89096497 -3.5749054 31.90786743 C-10.08446588 31.84807331 -13.31247304 30.62158095 -18.20288086 26.2746582 C-21.26919313 22.02138634 -21.84242762 17.94990595 -21.68725586 12.8137207 C-20.85253728 8.43817975 -18.5084592 5.20020259 -15.20288086 2.2746582 C-10.35322397 -0.38348211 -5.37724484 -0.01382238 0 0 Z " fill="#DFDFDF" transform="translate(1949.202880859375,504.725341796875)"/>
<path d="M0 0 C1.03512726 -0.01283524 2.07025452 -0.02567047 3.13674927 -0.03889465 C4.26064056 -0.04628159 5.38453186 -0.05366852 6.54248047 -0.0612793 C7.69706757 -0.06935104 8.85165466 -0.07742279 10.04122925 -0.08573914 C12.49084975 -0.09959158 14.94048965 -0.11030852 17.39013672 -0.11816406 C21.12358683 -0.13533213 24.85614134 -0.17920424 28.58935547 -0.22338867 C30.96955729 -0.23351936 33.34976665 -0.24203429 35.72998047 -0.2487793 C36.84172638 -0.26628738 37.95347229 -0.28379547 39.09890747 -0.30183411 C45.60005841 -0.28378967 50.64422204 0.34435897 56.03466797 4.17700195 C59.58178499 7.8127969 60.32045024 10.74329981 60.53466797 15.67700195 C60.32746698 20.60303845 59.52281673 23.50997377 56.03466797 27.17700195 C49.78770127 31.78331375 44.35402946 31.76292378 36.74951172 31.70825195 C35.57505997 31.71207886 34.40060822 31.71590576 33.19056702 31.71984863 C30.71533345 31.72256296 28.24007096 31.71523553 25.76489258 31.69848633 C21.98111981 31.67705266 18.19924173 31.6983163 14.41552734 31.72387695 C12.00601796 31.72123397 9.59650974 31.71610961 7.18701172 31.70825195 C6.05875473 31.71634888 4.93049774 31.7244458 3.76805115 31.73278809 C-4.16217973 31.63828667 -7.40051672 30.35643183 -13.27783203 25.11450195 C-16.16605832 21.79839029 -16.25482781 18.52097132 -16.17626953 14.23168945 C-15.68677455 9.46364579 -13.43352246 6.38587518 -9.90283203 3.36450195 C-6.15990599 0.5772166 -4.57135975 0.04929131 0 0 Z " fill="#DFDFDF" transform="translate(2108.96533203125,504.822998046875)"/>
<path d="M0 0 C7.51349929 6.0747441 12.59479233 13.65379646 13.9375 23.375 C14.00451384 26.58492544 13.93456596 29.79028812 13.875 33 C13.8036957 39.5796046 13.97243813 45.74449613 15.5 52.18359375 C15.98770355 54.62646597 15.96626032 56.88954317 15.9375 59.375 C12.2719862 59.88369827 8.60493573 60.38036408 4.9375 60.875 C3.90753906 61.01808594 2.87757813 61.16117187 1.81640625 61.30859375 C-3.86882532 62.06903874 -9.32716539 62.54044234 -15.0625 62.375 C-15.06636719 60.74304688 -15.06636719 60.74304688 -15.0703125 59.078125 C-15.24718849 50.22320771 -16.16629718 43.80036061 -20.62890625 35.9453125 C-24.91980037 28.25210178 -25.08443688 19.63448724 -22.9375 11.25 C-21.00172862 5.38789988 -17.90017449 1.12126122 -12.625 -2.125 C-7.84706783 -3.05727945 -4.26986275 -2.26564146 0 0 Z " fill="#F1A7AB" transform="translate(2481.0625,426.625)"/>
<path d="M0 0 C9.57 0 19.14 0 29 0 C29.37125 2.248125 29.7425 4.49625 30.125 6.8125 C31.28440645 13.13191726 33.33579523 18.03252274 36.63671875 23.5859375 C40.84172894 31.0320587 41.00965555 40.01732581 39.25 48.25 C37.08725923 54.73822232 33.75132934 59.23951543 28 63 C23.77372349 63.9720436 20.8083763 63.39593941 16.9375 61.5 C8.7197972 54.50621038 3.29764462 46.89507564 2 36 C1.93441809 32.87320043 2.00253529 29.75155975 2.0625 26.625 C2.16325301 17.54715406 1.33018454 8.97874566 0 0 Z " fill="#F1A7AC" transform="translate(2688,806)"/>
<path d="M0 0 C3.44733656 4.13357452 6.41239821 8.47667577 9.3125 13 C10.01342773 14.04800781 10.01342773 14.04800781 10.72851562 15.1171875 C14.02762612 20.28270762 14.02762612 20.28270762 13.890625 23.83984375 C13 26 13 26 11.4375 28.5625 C9.91465409 32.20408804 9.91860735 34.11969496 10.0625 38 C10.13330343 41.81394456 10.04007985 43.89797857 8.625 47.5 C4.04646369 51.86051077 -1.35480412 53.8175727 -7.625 54.25 C-8.40875 54.1675 -9.1925 54.085 -10 54 C-10.19722656 52.94554687 -10.39445312 51.89109375 -10.59765625 50.8046875 C-11.85662998 46.40879858 -14.67643129 44.45973992 -18.4375 42.125 C-19.31631836 41.54105469 -19.31631836 41.54105469 -20.21289062 40.9453125 C-22.77777548 39.26838437 -25.08254508 37.97248497 -28 37 C-29.53515625 34.78515625 -29.53515625 34.78515625 -31.0625 32.0625 C-33.19623733 28.27918235 -33.19623733 28.27918235 -36 25 C-35.27018921 24.5035498 -35.27018921 24.5035498 -34.52563477 23.99707031 C-22.93769927 16.10798971 -11.42704215 8.12036926 0 0 Z " fill="#F0A6AA" transform="translate(2734,1174)"/>
<path d="M0 0 C17.16 0 34.32 0 52 0 C52 7.59 52 15.18 52 23 C43 28 43 28 41 28 C40.896875 28.721875 40.79375 29.44375 40.6875 30.1875 C39.5642625 34.78256249 37.93931026 37.37379316 34 40 C26.7087213 40.83174587 20.63190511 40.06087928 14 37 C14.350625 36.505 14.70125 36.01 15.0625 35.5 C16.8090748 30.8424672 15.76554207 26.72246966 13.8125 22.328125 C12.91967782 20.57291776 12.0028775 18.82962851 11.05859375 17.1015625 C10 15 10 15 10 13 C9.34 13 8.68 13 8 13 C8 9.04 8 5.08 8 1 C5.36 1 2.72 1 0 1 C0 0.67 0 0.34 0 0 Z " fill="#EFA6AA" transform="translate(2554,1228)"/>
<path d="M0 0 C3.63 0 7.26 0 11 0 C11.69761537 2.60183588 12.38337774 5.20583602 13.0625 7.8125 C13.26166016 8.55048828 13.46082031 9.28847656 13.66601562 10.04882812 C15.11328125 15.66015625 15.11328125 15.66015625 14 19 C12.04034952 16.39682213 10.08251018 13.79228758 8.125 11.1875 C7.56941406 10.44951172 7.01382813 9.71152344 6.44140625 8.95117188 C5.90644531 8.23896484 5.37148437 7.52675781 4.8203125 6.79296875 C4.08192139 5.81106567 4.08192139 5.81106567 3.32861328 4.80932617 C2.17467505 3.23787519 1.08145651 1.62218477 0 0 Z " fill="#F5F6F9" transform="translate(2649,708)"/>
<path d="M0 0 C0.66 0 1.32 0 2 0 C2 7.26 2 14.52 2 22 C1.34 21.34 0.68 20.68 0 20 C-0.99 20.33 -1.98 20.66 -3 21 C-2.505 12.09 -2.505 12.09 -2 3 C-1.34 3 -0.68 3 0 3 C0 2.01 0 1.02 0 0 Z " fill="#F4B0B3" transform="translate(2604,1229)"/>
<path d="M0 0 C0.66 0.33 1.32 0.66 2 1 C2.3690205 14.6332574 2.3690205 14.6332574 0 21 C-0.66 20.67 -1.32 20.34 -2 20 C-2.31620422 13.20160929 -1.12676382 6.69016016 0 0 Z " fill="#E19CA3" transform="translate(2614,404)"/>
<path d="M0 0 C0.33 0 0.66 0 1 0 C1.53107314 2.74837849 2.05015881 5.49812375 2.5625 8.25 C2.71396484 9.02730469 2.86542969 9.80460938 3.02148438 10.60546875 C3.16005859 11.35957031 3.29863281 12.11367188 3.44140625 12.890625 C3.57232666 13.58188477 3.70324707 14.27314453 3.83813477 14.98535156 C4.01710362 17.21287942 3.65206197 18.87506962 3 21 C2.01 21 1.02 21 0 21 C0 14.07 0 7.14 0 0 Z " fill="#EDECFC" transform="translate(2466,532)"/>
<path d="M0 0 C-0.6875 1.9375 -0.6875 1.9375 -2 4 C-4.3125 4.625 -4.3125 4.625 -7 5 C-8.6792238 5.63437344 -10.35008418 6.29289322 -12 7 C-12.33 6.01 -12.66 5.02 -13 4 C-11.59248779 3.13083113 -10.1735479 2.28014851 -8.75 1.4375 C-7.96109375 0.96183594 -7.1721875 0.48617188 -6.359375 -0.00390625 C-3.69155375 -1.13022151 -2.65498232 -1.0169313 0 0 Z " fill="#423C54" transform="translate(2608,1252)"/>
<path d="M0 0 C0.66 1.98 1.32 3.96 2 6 C0.1875 6.625 0.1875 6.625 -2 7 C-5 5 -5 5 -6 3 C-2.25 0 -2.25 0 0 0 Z " fill="#423D55" transform="translate(2564,1241)"/>
<path d="M0 0 C0.66 0 1.32 0 2 0 C2.69670416 1.78810766 3.38211189 3.58062052 4.0625 5.375 C4.63677734 6.87160156 4.63677734 6.87160156 5.22265625 8.3984375 C6 11 6 11 5 13 C3 12 3 12 1.9375 9 C1.628125 8.01 1.31875 7.02 1 6 C0.67 5.67 0.34 5.34 0 5 C-0.04063832 3.33382885 -0.042721 1.66611905 0 0 Z " fill="#45435B" transform="translate(2729,1128)"/>
<path d="M0 0 C1.98 0 3.96 0 6 0 C6 0.99 6 1.98 6 3 C7.32 3.33 8.64 3.66 10 4 C9.34 4 8.68 4 8 4 C7.67 4.66 7.34 5.32 7 6 C7 5.34 7 4.68 7 4 C6.21625 4.020625 5.4325 4.04125 4.625 4.0625 C2 4 2 4 0 3 C0 2.01 0 1.02 0 0 Z " fill="#6860F1" transform="translate(2462,489)"/>
<path d="M0 0 C0.66 0.66 1.32 1.32 2 2 C2.66 1.67 3.32 1.34 4 1 C5.23076923 6.41538462 5.23076923 6.41538462 4.0625 9.375 C3.711875 9.91125 3.36125 10.4475 3 11 C2.566875 10.1028125 2.566875 10.1028125 2.125 9.1875 C0.95257974 6.80672208 0.95257974 6.80672208 -1 4 C-0.625 1.8125 -0.625 1.8125 0 0 Z " fill="#E8A1A6" transform="translate(2464,465)"/>
<path d="M0 0 C0.99 0.33 1.98 0.66 3 1 C1.54955729 5.10958767 -0.51110752 8.43258745 -3 12 C-4 10 -4 10 -3.22265625 7.6171875 C-2.83980469 6.71226562 -2.45695312 5.80734375 -2.0625 4.875 C-1.68222656 3.96492188 -1.30195313 3.05484375 -0.91015625 2.1171875 C-0.60980469 1.41851562 -0.30945312 0.71984375 0 0 Z " fill="#F3AFB4" transform="translate(2540,374)"/>
<path d="M0 0 C0 0.99 0 1.98 0 3 C2.475 3.99 2.475 3.99 5 5 C3 6 3 6 1.0546875 5.44140625 C0.33539062 5.15136719 -0.38390625 4.86132812 -1.125 4.5625 C-1.84945312 4.27503906 -2.57390625 3.98757813 -3.3203125 3.69140625 C-4.15175781 3.34916016 -4.15175781 3.34916016 -5 3 C-2.25 0 -2.25 0 0 0 Z " fill="#E09DA2" transform="translate(2573,1262)"/>
<path d="M0 0 C0.66 0 1.32 0 2 0 C1.67 3.63 1.34 7.26 1 11 C-0.33333333 8.33333333 -1.66666667 5.66666667 -3 3 C-2.34 3 -1.68 3 -1 3 C-0.67 2.01 -0.34 1.02 0 0 Z " fill="#56536A" transform="translate(2669,940)"/>
<path d="M0 0 C0.99 0.33 1.98 0.66 3 1 C-1.625 5.875 -1.625 5.875 -5 7 C-5.33 6.01 -5.66 5.02 -6 4 C-5.01 4 -4.02 4 -3 4 C-3 3.34 -3 2.68 -3 2 C-2.01 2 -1.02 2 0 2 C0 1.34 0 0.68 0 0 Z " fill="#413952" transform="translate(2708,1189)"/>
<path d="M0 0 C1.98 0 3.96 0 6 0 C5.34 1.98 4.68 3.96 4 6 C2.62437146 4.71034824 1.29233607 3.37310707 0 2 C0 1.34 0 0.68 0 0 Z " fill="#D4D4D8" transform="translate(1922,1380)"/>
<path d="M0 0 C0 0.99 0 1.98 0 3 C-1.75 4.60546875 -1.75 4.60546875 -4 6.1875 C-4.7425 6.71730469 -5.485 7.24710938 -6.25 7.79296875 C-6.8275 8.19128906 -7.405 8.58960938 -8 9 C-8.33 7.68 -8.66 6.36 -9 5 C-8.43410156 4.72285156 -7.86820313 4.44570312 -7.28515625 4.16015625 C-6.55167969 3.79792969 -5.81820312 3.43570312 -5.0625 3.0625 C-3.96615234 2.52302734 -3.96615234 2.52302734 -2.84765625 1.97265625 C-1.03750973 1.13628173 -1.03750973 1.13628173 0 0 Z " fill="#464459" transform="translate(2521,1269)"/>
<path d="M0 0 C1.9375 0.375 1.9375 0.375 4 1 C4.33 1.66 4.66 2.32 5 3 C5.99 3.33 6.98 3.66 8 4 C7.67 4.99 7.34 5.98 7 7 C5.82780457 6.21654285 4.66236332 5.42297164 3.5 4.625 C2.8503125 4.18414063 2.200625 3.74328125 1.53125 3.2890625 C1.0259375 2.86367187 0.520625 2.43828125 0 2 C0 1.34 0 0.68 0 0 Z " fill="#E2A0A5" transform="translate(2711,1211)"/>
<path d="M0 0 C2.97 0.33 5.94 0.66 9 1 C8.67 1.99 8.34 2.98 8 4 C5.9375 4.6875 5.9375 4.6875 4 5 C3.67 4.01 3.34 3.02 3 2 C2.01 1.34 1.02 0.68 0 0 Z " fill="#444353" transform="translate(2415,0)"/>
<path d="M0 0 C0.66 0.33 1.32 0.66 2 1 C0.92598892 3.91517292 0.22189824 5.77810176 -2 8 C-2.99 8.33 -3.98 8.66 -5 9 C-3.7508258 5.54074837 -2.32472205 2.85306797 0 0 Z " fill="#383746" transform="translate(1027,1415)"/>
<path d="M0 0 C1 3 1 3 -0.1875 6.125 C-2 9 -2 9 -4.11328125 9.6796875 C-4.73589844 9.78539062 -5.35851563 9.89109375 -6 10 C-5.18957164 8.51969728 -4.37659652 7.04078858 -3.5625 5.5625 C-2.88380859 4.32693359 -2.88380859 4.32693359 -2.19140625 3.06640625 C-1 1 -1 1 0 0 Z " fill="#434350" transform="translate(1046,1386)"/>
<path d="M0 0 C0.33 0.66 0.66 1.32 1 2 C0.34 2 -0.32 2 -1 2 C-0.649375 2.598125 -0.29875 3.19625 0.0625 3.8125 C1 6 1 6 0 9 C-1.5625 7.8125 -1.5625 7.8125 -3 6 C-2.8125 3.375 -2.8125 3.375 -2 1 C-1.34 0.67 -0.68 0.34 0 0 Z " fill="#434153" transform="translate(3,1303)"/>
<path d="M0 0 C0.33 0 0.66 0 1 0 C1.3125 2.75 1.3125 2.75 1 6 C-1.5 8.375 -1.5 8.375 -4 10 C-2.8905928 6.51329166 -1.73662334 3.22515763 0 0 Z " fill="#7F75FC" transform="translate(2546,509)"/>
<path d="M0 0 C-0.99 0.66 -1.98 1.32 -3 2 C-4.32 1.34 -5.64 0.68 -7 0 C-3.86650268 -1.04449911 -3.01031744 -0.93423645 0 0 Z M-5 2 C-4.34 2 -3.68 2 -3 2 C-3.66 3.65 -4.32 5.3 -5 7 C-5.33 6.01 -5.66 5.02 -6 4 C-5.67 3.34 -5.34 2.68 -5 2 Z " fill="#F1B4B8" transform="translate(2475,425)"/>
<path d="M0 0 C0.99386719 0.00902344 1.98773437 0.01804687 3.01171875 0.02734375 C4.15060547 0.04474609 4.15060547 0.04474609 5.3125 0.0625 C5.3125 0.3925 5.3125 0.7225 5.3125 1.0625 C3.73324025 1.45430108 2.14881206 1.82530736 0.5625 2.1875 C-0.31921875 2.39632813 -1.2009375 2.60515625 -2.109375 2.8203125 C-5.01625493 3.09338304 -6.25411348 2.59758028 -8.6875 1.0625 C-5.53819107 0.01273036 -3.29935544 -0.03881595 0 0 Z " fill="#524459" transform="translate(2597.6875,389.9375)"/>
<path d="M0 0 C0.66 0.33 1.32 0.66 2 1 C2 1.66 2 2.32 2 3 C-0.5 4.625 -0.5 4.625 -3 6 C-3.66 4.68 -4.32 3.36 -5 2 C-4.360625 1.855625 -3.72125 1.71125 -3.0625 1.5625 C-1.02454854 1.18992819 -1.02454854 1.18992819 0 0 Z " fill="#403A53" transform="translate(2552,362)"/>
<path d="M0 0 C0.33 0.99 0.66 1.98 1 3 C0.01 4.485 0.01 4.485 -1 6 C-2.32 5.34 -3.64 4.68 -5 4 C-3.35 2.68 -1.7 1.36 0 0 Z " fill="#383748" transform="translate(564,1325)"/>
<path d="M0 0 C0.66 0.66 1.32 1.32 2 2 C0.35 3.65 -1.3 5.3 -3 7 C-3.33 6.01 -3.66 5.02 -4 4 C-2.68 2.68 -1.36 1.36 0 0 Z " fill="#DA989F" transform="translate(2741,1218)"/>
<path d="M0 0 C0.66 0 1.32 0 2 0 C2 1.98 2 3.96 2 6 C1.01 6 0.02 6 -1 6 C-1.042721 4.33388095 -1.04063832 2.66617115 -1 1 C-0.67 0.67 -0.34 0.34 0 0 Z " fill="#30314D" transform="translate(2460,489)"/>
<path d="M0 0 C0 3 0 3 -2 6 C-4.97 5.505 -4.97 5.505 -8 5 C-7.4225 4.731875 -6.845 4.46375 -6.25 4.1875 C-3.9674132 2.98280141 -2.0262058 1.59201885 0 0 Z " fill="#DB9AA2" transform="translate(2552,365)"/>
</svg>
